<svg width="87" height="94" viewBox="0 0 87 94" fill="none" xmlns="http://www.w3.org/2000/svg">
<g clip-path="url(#clip0_34_1418)">
<path d="M53.7499 77.4786C53.7499 72.4818 53.7499 67.4933 53.7499 62.4965C53.7499 61.7721 53.5429 61.5993 52.8392 61.5828C48.4925 61.484 44.1541 61.2453 39.8157 60.949C39.5406 60.9629 39.2685 60.8866 39.0412 60.732C38.8138 60.5773 38.6438 60.3528 38.5572 60.0928C38.4775 59.7877 38.3307 59.5038 38.1274 59.2619C37.9241 59.0199 37.6694 58.8257 37.3815 58.6934C36.5536 58.323 36.5536 57.508 36.8682 56.7178C39.8736 49.8771 44.5266 44.5346 51.2661 41.1513C59.2971 37.1176 67.3944 36.7472 75.3426 41.2912C81.7674 44.9708 85.4931 50.6426 86.9338 57.8208C86.9886 58.1506 86.9648 58.4885 86.8641 58.8074C86.7634 59.1263 86.5888 59.4171 86.3542 59.6565C85.8295 60.3692 85.1408 60.9466 84.3457 61.3405C83.5506 61.7343 82.6722 61.9331 81.784 61.9203C80.2357 61.9203 78.6958 61.9944 77.1475 61.9203C76.3196 61.9203 76.1871 62.1837 76.1871 62.9081C76.1871 71.3211 76.1485 79.7369 76.0712 88.1554C76.0215 88.7305 76.0215 89.3089 76.0712 89.8841C76.3527 91.4234 75.4833 92.403 74.4815 93.3497C74.3392 93.4764 74.1729 93.5736 73.9924 93.6358C73.8119 93.698 73.6207 93.7239 73.4301 93.7119L55.2816 94.0165C54.0811 94.0165 53.7333 93.7037 53.7333 92.4689C53.7416 87.4639 53.7499 82.4671 53.7499 77.4786ZM55.9274 77.1987C55.9274 81.7427 55.9274 86.2538 55.9274 90.8307C55.9274 91.5634 56.093 91.8186 56.8795 91.8021C61.8472 91.6978 66.8341 91.6237 71.8404 91.5798C72.5442 91.5798 72.6683 91.3493 72.6683 90.699C72.6683 81.6439 72.6683 72.5889 72.6683 63.5338C72.6683 62.8176 72.4862 62.6036 71.7576 62.6118C66.79 62.6118 61.8223 62.6118 56.8547 62.6118C56.0267 62.6118 55.8612 62.9246 55.8694 63.6737C55.9439 68.1766 55.9274 72.6876 55.9274 77.1987ZM61.0855 57.8949C60.5307 57.0717 60.0174 56.2485 59.4296 55.5241C59.1919 55.2253 59.0352 54.871 58.9743 54.4949C58.9135 54.1188 58.9505 53.7335 59.0818 53.3756C59.9098 50.3957 60.688 47.3828 61.5243 44.4028C61.6733 43.8595 61.6071 43.5797 61.0689 43.3903C60.1272 43.0249 59.3645 42.3109 58.9411 41.3982C58.6679 40.7973 58.3367 40.822 57.7985 40.9701C49.3784 43.2092 43.442 48.3788 39.5342 56.051C39.1782 56.7507 39.2775 56.9236 40.0806 57.0059C44.6591 57.4669 49.2542 57.7303 53.8575 57.8785C56.2337 57.9608 58.6182 57.8949 61.0855 57.8949ZM64.8691 58.1089C70.8717 58.1583 76.659 58.1089 82.4463 57.8208C83.1666 57.8208 84.2098 58.0925 84.5327 57.5739C84.8556 57.0553 84.3092 56.1251 84.0691 55.4089C81.4859 47.7258 76.2423 42.8498 68.3382 40.7808C67.9822 40.6903 67.6593 40.4762 67.4026 41.0442C67.1487 41.6003 66.7803 42.0972 66.321 42.5028C65.8618 42.9083 65.322 43.2135 64.7367 43.3986C64.0826 43.6373 64.0412 43.9419 64.2151 44.5181C65.043 47.4322 65.871 50.3545 66.7651 53.2604C66.8857 53.5878 66.9267 53.9388 66.885 54.285C66.8433 54.6312 66.72 54.9627 66.525 55.2525C65.962 56.1415 65.4735 57.0635 64.8691 58.1089ZM62.9235 48.1154H62.7496L61.2676 53.9025C61.2448 53.9959 61.2434 54.0932 61.2634 54.1872C61.2835 54.2812 61.3245 54.3696 61.3835 54.4458C61.8873 55.277 62.4606 56.0645 63.0974 56.8001C63.5444 56.0427 63.9253 55.3595 64.3475 54.668C64.4625 54.5303 64.5433 54.3677 64.5836 54.1933C64.6238 54.0189 64.6224 53.8375 64.5794 53.6637C64.0246 51.8609 63.4948 49.9676 62.9235 48.1154ZM60.8454 40.3363C61.0275 40.7295 61.3212 41.0613 61.6904 41.2909C62.0596 41.5205 62.4881 41.6379 62.9235 41.6287C63.3928 41.6145 63.852 41.49 64.2636 41.2654C64.6752 41.0407 65.0274 40.7224 65.2914 40.3363C63.8172 40.1223 62.3196 40.1223 60.8454 40.3363Z" fill="#D8AC52"/>
<path d="M77.8264 12.068C77.8159 12.5391 77.7772 13.0091 77.7105 13.4757C77.5412 14.096 77.5023 14.7444 77.5963 15.3803C77.6903 16.0163 77.9152 16.6261 78.2569 17.1718C78.5572 17.7133 78.7309 18.3151 78.7651 18.9325C78.7992 19.55 78.6931 20.1671 78.4544 20.7381C78.2158 21.3092 77.8508 21.8194 77.3866 22.2309C76.9224 22.6424 76.3709 22.9447 75.7731 23.1152C75.2929 23.2716 75.2267 23.5103 75.1604 23.9384C74.8139 26.3838 74.0168 28.7446 72.8091 30.9026C68.5452 38.2043 59.562 38.5912 54.3046 31.7258C52.5789 29.434 51.442 26.758 50.9929 23.9302C50.9733 23.5746 50.8616 23.2301 50.6687 22.9301C50.4757 22.6301 50.2081 22.3848 49.8917 22.2179C49.0374 21.783 48.3508 21.0807 47.9378 20.2193C47.5248 19.3579 47.4084 18.3854 47.6066 17.4517C47.6976 17.0073 47.8959 16.5915 48.1843 16.2402C48.4728 15.8888 48.8428 15.6125 49.2625 15.4348C49.8751 15.2043 49.9 14.8421 49.842 14.3235C49.5965 12.1833 49.8807 10.0158 50.67 8.00967C52.1603 4.15715 55.8115 1.99216 59.3137 2.75773C59.4582 2.80038 59.6117 2.80299 59.7576 2.76527C59.9035 2.72755 60.0363 2.65094 60.1416 2.5437C66.8645 -2.84819 75.7814 0.790304 77.5284 9.1786C77.7025 10.1327 77.8021 11.0987 77.8264 12.068ZM68.7191 11.6976C68.5286 11.8787 68.4293 11.9528 68.3465 12.0433C66.45 14.1817 64.1465 15.9257 61.5688 17.1746C58.9911 18.4236 56.1902 19.1528 53.3277 19.3203C52.7729 19.3203 52.7233 19.5755 52.7481 20.02C52.8282 21.8092 53.1058 23.5842 53.576 25.3131C54.5696 28.8364 56.4242 31.7258 59.8187 33.4298C61.6137 34.4183 63.7265 34.6695 65.7054 34.1295C68.421 33.3063 70.1431 31.3965 71.3768 28.9845C72.8257 26.1528 73.1154 23.0576 73.3969 19.9706C73.3969 19.5343 73.1817 19.3368 72.8919 19.1474C72.1567 18.5757 71.5169 17.8923 70.9959 17.1224C69.9182 15.4633 69.1471 13.6262 68.7191 11.6976ZM74.2828 17.3858C75.5709 14.9729 75.9469 12.181 75.3426 9.51611C73.5128 1.48178 65.3162 0.279926 60.9613 4.70868C60.7763 4.91081 60.5334 5.05158 60.2654 5.11194C59.9974 5.17231 59.7172 5.14936 59.4627 5.04619C58.7947 4.80809 58.0774 4.74016 57.3763 4.84863C54.7269 5.30138 53.2366 6.99715 52.4086 9.4091C51.8255 11.4846 51.7743 13.6722 52.2596 15.7724C52.5328 17.3117 52.566 17.3282 54.1225 17.1471C58.4991 16.61 62.5861 14.688 65.7799 11.6646C66.8067 10.7762 67.5901 9.64325 68.0567 8.37188C68.272 7.75449 68.5783 7.24411 69.3483 7.33466C70.1183 7.42521 70.2673 8.00144 70.3667 8.64353C70.6295 10.7409 71.2189 12.7849 72.1136 14.7022C72.5949 15.773 73.3517 16.6987 74.3077 17.3858H74.2828ZM76.4024 18.2831C76.0567 18.6013 75.8037 19.0062 75.6696 19.4552C75.5356 19.9042 75.5256 20.3808 75.6406 20.835C76.5348 20.1764 76.6259 19.3779 76.4272 18.2831H76.4024ZM50.5044 19.8389C50.5044 19.0157 50.5044 18.4477 50.5044 17.8715C50.5044 17.6986 50.5044 17.4517 50.2477 17.4352C49.9911 17.4187 49.9331 17.6245 49.8586 17.7974C49.5274 18.5547 49.8503 19.1145 50.5044 19.8389Z" fill="#D8AC52"/>
<path d="M26.2954 81.965V72.0867C26.2954 70.8273 26.61 70.498 27.8933 70.4897H45.9507C46.6432 70.5592 47.2931 70.8544 47.7993 71.3294C48.3054 71.8043 48.6394 72.4324 48.7491 73.1157C48.7491 79.1909 48.7353 85.2715 48.7077 91.3576C48.7077 92.3866 47.383 93.5555 46.0915 93.6131C44.063 93.6955 42.0345 93.6872 40.0061 93.7202L28.0341 93.8436C26.6845 93.8436 26.3782 93.572 26.3782 92.1973C26.3782 88.7728 26.3782 85.3483 26.3782 81.9238L26.2954 81.965ZM45.2387 81.965C45.2387 79.1168 45.2387 76.2685 45.2387 73.4203C45.2387 72.9429 45.2387 72.5971 44.568 72.5971C39.4514 72.6465 34.3319 72.6739 29.2097 72.6794C28.5805 72.6794 28.4812 72.9593 28.4812 73.5026C28.5198 79.2979 28.5474 85.0931 28.564 90.8884C28.564 91.5387 28.7958 91.7116 29.3919 91.7116C34.4092 91.6183 39.4321 91.5469 44.4604 91.4975C45.0731 91.4975 45.2884 91.3329 45.2884 90.6744C45.2221 87.7438 45.2387 84.8626 45.2387 81.9815V81.965Z" fill="#D8AC52"/>
<path d="M10.4652 93.2756H1.57309C0.339454 93.2756 0.00827789 92.971 0.00827789 91.7609C0.00827789 87.4749 0.00827789 83.186 0.00827789 78.8945C0.00827789 77.9313 0.380851 77.5609 1.34954 77.5609H19.6222C20.4883 77.6429 21.3183 77.9464 22.0315 78.4417C22.3875 78.6311 22.4289 78.985 22.4289 79.3555C22.4289 83.3232 22.4289 87.291 22.371 91.267C22.371 92.2631 21.0462 93.1274 19.5394 93.1357C16.5174 93.1357 13.4872 93.1357 10.432 93.1357L10.4652 93.2756ZM10.4652 91.0777V90.9871C12.949 90.9871 15.4908 90.9871 17.9994 90.9871C18.8274 90.9871 18.9598 90.7402 18.9516 90.0158C18.9074 86.8767 18.9074 83.7403 18.9516 80.6067C18.9516 79.8988 18.7694 79.6683 18.0325 79.6765C13.0649 79.6765 8.07518 79.6765 3.06338 79.6765C2.40931 79.6765 2.17748 79.8329 2.18576 80.4997C2.18576 83.7348 2.18576 86.9617 2.18576 90.1969C2.18576 90.8637 2.35135 91.0201 3.0137 91.0201C5.48097 91.053 7.95651 91.0777 10.432 91.0777H10.4652Z" fill="#D8AC52"/>
<path d="M28.9779 37.9408C29.1949 37.9223 29.4121 37.974 29.5971 38.0882C29.7821 38.2025 29.925 38.3731 30.0046 38.5747C30.1032 38.7618 30.1371 38.9761 30.1012 39.1843C30.0653 39.3926 29.9615 39.5833 29.8059 39.7271C29.5684 39.9413 29.304 40.1239 29.0193 40.2704C18.3459 46.5234 9.81238 55.8255 4.52883 66.9665C4.4626 67.1146 4.39636 67.2546 4.32185 67.3945C3.99067 68.0202 3.49391 68.3412 2.82328 68.0037C2.67938 67.9459 2.55039 67.8567 2.44586 67.7426C2.34134 67.6286 2.26395 67.4926 2.21943 67.3448C2.17491 67.197 2.16439 67.0411 2.18866 66.8887C2.21293 66.7363 2.27136 66.5912 2.35963 66.4643C3.07994 65.0402 3.75885 63.5832 4.54539 62.192C10.0835 52.327 18.1618 44.1047 27.9513 38.3689C28.2416 38.1255 28.5998 37.9761 28.9779 37.9408Z" fill="#D8AC52"/>
<path d="M26.2126 34.1624C28.8537 34.5987 31.5197 34.9856 34.1774 35.4877C34.3421 35.5065 34.4996 35.5653 34.636 35.6589C34.7725 35.7525 34.8836 35.8781 34.9597 36.0245C35.0358 36.1709 35.0745 36.3337 35.0723 36.4985C35.0702 36.6633 35.0273 36.825 34.9474 36.9695C34.1194 39.3485 33.2087 41.711 32.3062 44.0736C32.2748 44.2251 32.2087 44.3673 32.1129 44.4891C32.0171 44.611 31.8943 44.7092 31.7541 44.7762C31.6138 44.8431 31.4599 44.8769 31.3044 44.875C31.1489 44.8731 30.9959 44.8354 30.8573 44.7651C30.713 44.7114 30.5822 44.6272 30.474 44.5182C30.3657 44.4091 30.2827 44.278 30.2307 44.1338C30.1787 43.9896 30.1589 43.8358 30.1728 43.6833C30.1866 43.5307 30.2338 43.383 30.3109 43.2504C30.9153 41.6616 31.4949 40.0729 32.0744 38.4759C32.4718 37.381 32.4635 37.381 31.3376 37.1999L26.2871 36.3768C26.1297 36.351 25.9746 36.3124 25.8235 36.2615C25.6869 36.239 25.5564 36.1891 25.4399 36.1149C25.3234 36.0406 25.2234 35.9435 25.1459 35.8294C25.0684 35.7154 25.0151 35.5869 24.9893 35.4517C24.9634 35.3165 24.9655 35.1775 24.9955 35.0432C25.0499 34.7711 25.2053 34.5294 25.4308 34.3662C25.6564 34.2029 25.9355 34.1302 26.2126 34.1624Z" fill="#D8AC52"/>
</g>
<defs>
<clipPath id="clip0_34_1418">
<rect width="87" height="94" fill="white"/>
</clipPath>
</defs>
</svg>
