<svg width="669" height="641" viewBox="0 0 669 641" fill="none" xmlns="http://www.w3.org/2000/svg">
<g opacity="0.4">
<path d="M404.12 249.926V41.3722L334.501 4.19617L264.882 41.3722V249.926" stroke="white" stroke-width="2.68282" stroke-miterlimit="10"/>
<path d="M349.35 222.467L226.873 53.6659L148.727 64.6346L114.248 135.674L236.724 304.401" stroke="white" stroke-width="2.68282" stroke-miterlimit="10"/>
<path d="M288.92 232.479L90.7965 167.991L33.9692 222.835L47.7901 300.573L245.84 365.061" stroke="white" stroke-width="2.68282" stroke-miterlimit="10"/>
<path d="M245.84 276.133L47.7901 340.62L33.9692 418.359L90.7965 473.203L288.92 408.715" stroke="white" stroke-width="2.68282" stroke-miterlimit="10"/>
<path d="M236.724 336.792L114.248 505.52L148.727 576.559L226.873 587.454L349.35 418.727" stroke="white" stroke-width="2.68282" stroke-miterlimit="10"/>
<path d="M264.882 391.268V599.822L334.501 636.998L404.12 599.822V391.268" stroke="white" stroke-width="2.68282" stroke-miterlimit="10"/>
<path d="M319.65 418.727L442.053 587.454L520.2 576.559L554.752 505.52L432.276 336.792" stroke="white" stroke-width="2.68282" stroke-miterlimit="10"/>
<path d="M380.079 408.715L578.203 473.203L635.03 418.359L621.209 340.62L423.086 276.133" stroke="white" stroke-width="2.68282" stroke-miterlimit="10"/>
<path d="M423.086 365.061L621.209 300.573L635.03 222.835L578.203 167.991L380.079 232.479" stroke="white" stroke-width="2.68282" stroke-miterlimit="10"/>
<path d="M432.276 304.401L554.752 135.674L520.2 64.6346L442.053 53.6659L319.65 222.467" stroke="white" stroke-width="2.68282" stroke-miterlimit="10"/>
<path d="M334.499 418.8C388.662 418.8 432.569 374.833 432.569 320.597C432.569 266.361 388.662 222.393 334.499 222.393C280.337 222.393 236.43 266.361 236.43 320.597C236.43 374.833 280.337 418.8 334.499 418.8Z" stroke="white" stroke-width="2.68282" stroke-miterlimit="10"/>
<path d="M334.5 4.19617V320.597" stroke="white" stroke-width="2.68282" stroke-miterlimit="10"/>
<path d="M148.727 64.6346L334.499 320.597" stroke="white" stroke-width="2.68282" stroke-miterlimit="10"/>
<path d="M33.9692 222.835L334.499 320.597" stroke="white" stroke-width="2.68282" stroke-miterlimit="10"/>
<path d="M33.9692 418.359L334.499 320.597" stroke="white" stroke-width="2.68282" stroke-miterlimit="10"/>
<path d="M148.727 576.559L334.499 320.597" stroke="white" stroke-width="2.68282" stroke-miterlimit="10"/>
<path d="M334.5 636.998V320.597" stroke="white" stroke-width="2.68282" stroke-miterlimit="10"/>
<path d="M520.199 576.559L334.5 320.597" stroke="white" stroke-width="2.68282" stroke-miterlimit="10"/>
<path d="M635.03 418.359L334.5 320.597" stroke="white" stroke-width="2.68282" stroke-miterlimit="10"/>
<path d="M635.03 222.835L334.5 320.597" stroke="white" stroke-width="2.68282" stroke-miterlimit="10"/>
<path d="M520.199 64.6346L334.5 320.597" stroke="white" stroke-width="2.68282" stroke-miterlimit="10"/>
</g>
</svg>
