<svg width="29" height="28" viewBox="0 0 29 28" fill="none" xmlns="http://www.w3.org/2000/svg">
<path d="M28.3335 13.6859C28.3335 6.12658 22.2069 0 14.6476 0C7.08825 0 0.96167 6.12658 0.96167 13.6859C0.96167 20.5176 5.96344 26.1796 12.5102 27.2066V17.6452H9.03795V13.6859H12.5102V10.6713C12.5102 7.2439 14.5497 5.34712 17.6772 5.34712C19.1767 5.34712 20.7442 5.6171 20.7442 5.6171V8.98404H19.0196C17.3174 8.98404 16.7924 10.0415 16.7924 11.1214V13.6859H20.587L19.9797 17.6452H16.7924V27.2066C23.3317 26.1796 28.3335 20.5176 28.3335 13.6859Z" fill="white"/>
<path d="M19.9717 17.6452L20.5795 13.6859H16.7849V11.1214C16.7849 10.0415 17.3173 8.98409 19.012 8.98409H20.7367V5.61714C20.7367 5.61714 19.1692 5.34717 17.6696 5.34717C14.5427 5.34717 12.5027 7.24448 12.5027 10.6713V13.6859H9.03043V17.6452H12.5027V27.2066C13.2003 27.3189 13.9124 27.3718 14.64 27.3718C15.3676 27.3718 16.0797 27.312 16.7774 27.2066V17.6452H19.9717Z" fill="#446F50"/>
</svg>
