<svg width="206" height="56" viewBox="0 0 206 56" fill="none" xmlns="http://www.w3.org/2000/svg">
<path d="M69.4941 13.7637H71.2373L75.5786 22.3467C76.1763 21.2399 76.7573 20.1608 77.3218 19.1094C77.5597 18.6611 77.806 18.1963 78.0605 17.7148C78.3151 17.2334 78.5641 16.7603 78.8076 16.2954C79.0566 15.825 79.2918 15.374 79.5132 14.9424C79.7345 14.5107 79.9338 14.1178 80.1108 13.7637H81.6548V24.7705H80.1274V15.7476L75.5039 24.7705H75.1553L70.3159 15.3657V24.7705H69.4941V13.7637ZM86.3447 16.2705V22.3218C86.3447 22.5321 86.3973 22.7313 86.5024 22.9194C86.6131 23.1076 86.7598 23.2708 86.9424 23.4092C87.125 23.5475 87.3381 23.6582 87.5815 23.7412C87.8306 23.8187 88.0962 23.8574 88.3784 23.8574C88.5666 23.8574 88.7575 23.8132 88.9512 23.7246C89.1504 23.6361 89.3441 23.5171 89.5322 23.3677C89.7259 23.2183 89.9085 23.0467 90.0801 22.853C90.2572 22.6593 90.4149 22.4601 90.5532 22.2554V16.2705H91.8979V24.7705H90.5532V23.2764C90.3208 23.5586 90.0745 23.8049 89.8145 24.0151C89.5544 24.2199 89.2915 24.3942 89.0259 24.5381C88.7603 24.6764 88.4974 24.7788 88.2373 24.8452C87.9827 24.9172 87.7393 24.9531 87.5068 24.9531C87.1582 24.9531 86.8317 24.884 86.5273 24.7456C86.223 24.6073 85.9546 24.4191 85.7222 24.1812C85.4953 23.9432 85.3154 23.6637 85.1826 23.3428C85.0498 23.0218 84.9834 22.6815 84.9834 22.3218V16.2705H86.3447ZM96.9033 13.3818H97.1606V16.2705H99.0532V16.9927H97.1606V22.9775C97.1606 23.1048 97.1883 23.2238 97.2437 23.3345C97.299 23.4451 97.3737 23.542 97.4678 23.625C97.5674 23.708 97.6808 23.7744 97.8081 23.8242C97.9409 23.8685 98.0848 23.8906 98.2397 23.8906C98.4722 23.8906 98.6686 23.8519 98.8291 23.7744C98.9896 23.6969 99.1169 23.6029 99.2109 23.4922L99.46 23.6582C99.2275 24.0566 98.9342 24.3721 98.5801 24.6045C98.2314 24.8369 97.8053 24.9531 97.3018 24.9531C97.0472 24.9531 96.8258 24.9033 96.6377 24.8037C96.4495 24.7096 96.2946 24.5768 96.1729 24.4053C96.0511 24.2282 95.9598 24.0207 95.8989 23.7827C95.8381 23.5392 95.8076 23.2708 95.8076 22.9775V16.9927H94.3301V16.644L95.6831 16.2705H95.8076V13.8135L96.9033 13.3818ZM102.116 16.5527L103.195 16.1128H103.461V24.7705H102.116V16.5527ZM101.983 13.0166C101.983 12.8838 102.003 12.7593 102.042 12.6431C102.086 12.5269 102.144 12.4245 102.216 12.3359C102.288 12.2474 102.371 12.1782 102.465 12.1284C102.564 12.0786 102.67 12.0537 102.78 12.0537C102.891 12.0537 102.993 12.0786 103.087 12.1284C103.187 12.1782 103.273 12.2474 103.345 12.3359C103.417 12.4245 103.472 12.5269 103.511 12.6431C103.555 12.7593 103.577 12.8838 103.577 13.0166C103.577 13.1494 103.555 13.2739 103.511 13.3901C103.472 13.5063 103.417 13.6087 103.345 13.6973C103.273 13.7858 103.187 13.855 103.087 13.9048C102.993 13.9546 102.891 13.9795 102.78 13.9795C102.67 13.9795 102.564 13.9546 102.465 13.9048C102.371 13.855 102.288 13.7858 102.216 13.6973C102.144 13.6087 102.086 13.5063 102.042 13.3901C102.003 13.2739 101.983 13.1494 101.983 13.0166ZM106.897 12.3691L107.985 11.9375H108.259V17.6733C108.475 17.4354 108.71 17.2196 108.964 17.0259C109.224 16.8322 109.487 16.6689 109.753 16.5361C110.024 16.3978 110.295 16.2926 110.566 16.2207C110.838 16.1488 111.095 16.1128 111.338 16.1128C111.809 16.1128 112.24 16.2124 112.633 16.4116C113.026 16.6108 113.364 16.882 113.646 17.2251C113.934 17.5682 114.158 17.9694 114.318 18.4287C114.479 18.8825 114.559 19.3695 114.559 19.8896C114.559 20.5924 114.44 21.251 114.202 21.8652C113.964 22.4795 113.638 23.0163 113.223 23.4756C112.813 23.9294 112.329 24.2891 111.77 24.5547C111.217 24.8203 110.625 24.9531 109.994 24.9531C109.396 24.9531 108.834 24.8757 108.309 24.7207C107.783 24.5602 107.312 24.3195 106.897 23.9985V12.3691ZM108.259 23.3843H108.309C108.414 23.4839 108.53 23.5863 108.657 23.6914C108.785 23.7965 108.928 23.8934 109.089 23.9819C109.249 24.0649 109.432 24.1341 109.637 24.1895C109.847 24.2393 110.085 24.2642 110.351 24.2642C110.766 24.2642 111.145 24.1701 111.488 23.9819C111.831 23.7882 112.124 23.5226 112.368 23.1851C112.611 22.842 112.799 22.438 112.932 21.9731C113.065 21.5028 113.131 20.9909 113.131 20.4375C113.131 20.0169 113.062 19.624 112.924 19.2588C112.785 18.888 112.597 18.5671 112.359 18.2959C112.121 18.0192 111.839 17.8034 111.513 17.6484C111.192 17.488 110.849 17.4077 110.483 17.4077C110.273 17.4077 110.057 17.4354 109.836 17.4907C109.62 17.5461 109.413 17.6208 109.213 17.7148C109.02 17.8089 108.843 17.9196 108.682 18.0469C108.522 18.1686 108.392 18.3014 108.292 18.4453H108.259V23.3843ZM124.777 12.3691L125.865 11.9375H126.139V17.6733C126.354 17.4354 126.59 17.2196 126.844 17.0259C127.104 16.8322 127.367 16.6689 127.633 16.5361C127.904 16.3978 128.175 16.2926 128.446 16.2207C128.717 16.1488 128.975 16.1128 129.218 16.1128C129.689 16.1128 130.12 16.2124 130.513 16.4116C130.906 16.6108 131.244 16.882 131.526 17.2251C131.814 17.5682 132.038 17.9694 132.198 18.4287C132.359 18.8825 132.439 19.3695 132.439 19.8896C132.439 20.5924 132.32 21.251 132.082 21.8652C131.844 22.4795 131.518 23.0163 131.103 23.4756C130.693 23.9294 130.209 24.2891 129.65 24.5547C129.097 24.8203 128.504 24.9531 127.874 24.9531C127.276 24.9531 126.714 24.8757 126.188 24.7207C125.663 24.5602 125.192 24.3195 124.777 23.9985V12.3691ZM126.139 23.3843H126.188C126.294 23.4839 126.41 23.5863 126.537 23.6914C126.664 23.7965 126.808 23.8934 126.969 23.9819C127.129 24.0649 127.312 24.1341 127.517 24.1895C127.727 24.2393 127.965 24.2642 128.23 24.2642C128.646 24.2642 129.025 24.1701 129.368 23.9819C129.711 23.7882 130.004 23.5226 130.248 23.1851C130.491 22.842 130.679 22.438 130.812 21.9731C130.945 21.5028 131.011 20.9909 131.011 20.4375C131.011 20.0169 130.942 19.624 130.804 19.2588C130.665 18.888 130.477 18.5671 130.239 18.2959C130.001 18.0192 129.719 17.8034 129.393 17.6484C129.072 17.488 128.729 17.4077 128.363 17.4077C128.153 17.4077 127.937 17.4354 127.716 17.4907C127.5 17.5461 127.292 17.6208 127.093 17.7148C126.9 17.8089 126.722 17.9196 126.562 18.0469C126.402 18.1686 126.271 18.3014 126.172 18.4453H126.139V23.3843ZM135.319 16.5527L136.398 16.1128H136.664V24.7705H135.319V16.5527ZM135.187 13.0166C135.187 12.8838 135.206 12.7593 135.245 12.6431C135.289 12.5269 135.347 12.4245 135.419 12.3359C135.491 12.2474 135.574 12.1782 135.668 12.1284C135.768 12.0786 135.873 12.0537 135.983 12.0537C136.094 12.0537 136.196 12.0786 136.291 12.1284C136.39 12.1782 136.476 12.2474 136.548 12.3359C136.62 12.4245 136.675 12.5269 136.714 12.6431C136.758 12.7593 136.78 12.8838 136.78 13.0166C136.78 13.1494 136.758 13.2739 136.714 13.3901C136.675 13.5063 136.62 13.6087 136.548 13.6973C136.476 13.7858 136.39 13.855 136.291 13.9048C136.196 13.9546 136.094 13.9795 135.983 13.9795C135.873 13.9795 135.768 13.9546 135.668 13.9048C135.574 13.855 135.491 13.7858 135.419 13.6973C135.347 13.6087 135.289 13.5063 135.245 13.3901C135.206 13.2739 135.187 13.1494 135.187 13.0166ZM141.205 16.1128H141.462V17.7646C142.12 17.1891 142.726 16.7713 143.28 16.5112C143.839 16.2456 144.384 16.1128 144.915 16.1128C145.186 16.1128 145.441 16.1792 145.679 16.312C145.922 16.4448 146.132 16.6274 146.31 16.8599C146.487 17.0923 146.625 17.3662 146.725 17.6816C146.83 17.9915 146.882 18.3236 146.882 18.6777V24.7705H145.529V18.9683C145.529 18.686 145.491 18.4398 145.413 18.2295C145.341 18.0137 145.236 17.8338 145.098 17.6899C144.965 17.5461 144.804 17.4382 144.616 17.3662C144.434 17.2887 144.232 17.25 144.01 17.25C143.817 17.25 143.612 17.2887 143.396 17.3662C143.18 17.4382 142.962 17.5378 142.74 17.665C142.524 17.7868 142.306 17.9307 142.084 18.0967C141.869 18.2627 141.661 18.437 141.462 18.6196V24.7705H140.101V16.5444L141.205 16.1128ZM161.674 13.5146L166.854 24.7705H165.269L163.592 21.1016H158.719L157.001 24.7705H156.104L161.367 13.5146H161.674ZM159.06 20.3877H163.251L161.143 15.9136L159.06 20.3877ZM168.705 12.3691L169.792 11.9375H170.066V17.6733C170.282 17.4354 170.517 17.2196 170.772 17.0259C171.032 16.8322 171.295 16.6689 171.561 16.5361C171.832 16.3978 172.103 16.2926 172.374 16.2207C172.645 16.1488 172.903 16.1128 173.146 16.1128C173.616 16.1128 174.048 16.2124 174.441 16.4116C174.834 16.6108 175.171 16.882 175.454 17.2251C175.741 17.5682 175.965 17.9694 176.126 18.4287C176.286 18.8825 176.367 19.3695 176.367 19.8896C176.367 20.5924 176.248 21.251 176.01 21.8652C175.772 22.4795 175.445 23.0163 175.03 23.4756C174.621 23.9294 174.137 24.2891 173.578 24.5547C173.024 24.8203 172.432 24.9531 171.801 24.9531C171.204 24.9531 170.642 24.8757 170.116 24.7207C169.59 24.5602 169.12 24.3195 168.705 23.9985V12.3691ZM170.066 23.3843H170.116C170.221 23.4839 170.338 23.5863 170.465 23.6914C170.592 23.7965 170.736 23.8934 170.896 23.9819C171.057 24.0649 171.24 24.1341 171.444 24.1895C171.655 24.2393 171.893 24.2642 172.158 24.2642C172.573 24.2642 172.952 24.1701 173.295 23.9819C173.639 23.7882 173.932 23.5226 174.175 23.1851C174.419 22.842 174.607 22.438 174.74 21.9731C174.873 21.5028 174.939 20.9909 174.939 20.4375C174.939 20.0169 174.87 19.624 174.731 19.2588C174.593 18.888 174.405 18.5671 174.167 18.2959C173.929 18.0192 173.647 17.8034 173.32 17.6484C172.999 17.488 172.656 17.4077 172.291 17.4077C172.081 17.4077 171.865 17.4354 171.644 17.4907C171.428 17.5461 171.22 17.6208 171.021 17.7148C170.827 17.8089 170.65 17.9196 170.49 18.0469C170.329 18.1686 170.199 18.3014 170.1 18.4453H170.066V23.3843ZM184.941 23.9487C184.67 24.1535 184.405 24.3223 184.145 24.4551C183.884 24.5824 183.627 24.6847 183.373 24.7622C183.124 24.8341 182.88 24.884 182.642 24.9116C182.41 24.9393 182.183 24.9531 181.961 24.9531C181.486 24.9531 181.04 24.8369 180.625 24.6045C180.21 24.3721 179.847 24.0594 179.538 23.6665C179.233 23.2736 178.99 22.8171 178.807 22.2969C178.63 21.7712 178.542 21.2178 178.542 20.6367C178.542 20.0612 178.655 19.5023 178.882 18.96C179.109 18.4176 179.416 17.9362 179.803 17.5156C180.191 17.0895 180.644 16.7492 181.165 16.4946C181.685 16.2401 182.241 16.1128 182.833 16.1128C183.016 16.1128 183.187 16.1239 183.348 16.146C183.514 16.1626 183.677 16.1986 183.837 16.2539C184.003 16.3092 184.175 16.3895 184.352 16.4946C184.529 16.5998 184.726 16.7354 184.941 16.9014V12.3774L186.021 11.9375H186.286V24.7705H184.941V23.9487ZM184.941 18.9766C184.941 18.6445 184.875 18.3429 184.742 18.0718C184.609 17.7951 184.435 17.5599 184.219 17.3662C184.003 17.167 183.76 17.0148 183.489 16.9097C183.218 16.799 182.944 16.7437 182.667 16.7437C182.307 16.7437 181.97 16.8267 181.654 16.9927C181.339 17.1587 181.065 17.3939 180.833 17.6982C180.6 17.9971 180.415 18.3568 180.276 18.7773C180.144 19.1924 180.077 19.6517 180.077 20.1553C180.077 20.6976 180.149 21.2039 180.293 21.6743C180.442 22.1447 180.644 22.557 180.899 22.9111C181.159 23.2598 181.461 23.5365 181.804 23.7412C182.147 23.9404 182.515 24.04 182.908 24.04C183.107 24.04 183.303 24.0179 183.497 23.9736C183.691 23.9238 183.873 23.8602 184.045 23.7827C184.222 23.6997 184.382 23.6056 184.526 23.5005C184.67 23.3953 184.795 23.2847 184.9 23.1685H184.941V18.9766ZM190.951 16.2705V22.3218C190.951 22.5321 191.004 22.7313 191.109 22.9194C191.22 23.1076 191.366 23.2708 191.549 23.4092C191.731 23.5475 191.944 23.6582 192.188 23.7412C192.437 23.8187 192.703 23.8574 192.985 23.8574C193.173 23.8574 193.364 23.8132 193.558 23.7246C193.757 23.6361 193.951 23.5171 194.139 23.3677C194.332 23.2183 194.515 23.0467 194.687 22.853C194.864 22.6593 195.021 22.4601 195.16 22.2554V16.2705H196.504V24.7705H195.16V23.2764C194.927 23.5586 194.681 23.8049 194.421 24.0151C194.161 24.2199 193.898 24.3942 193.632 24.5381C193.367 24.6764 193.104 24.7788 192.844 24.8452C192.589 24.9172 192.346 24.9531 192.113 24.9531C191.765 24.9531 191.438 24.884 191.134 24.7456C190.829 24.6073 190.561 24.4191 190.329 24.1812C190.102 23.9432 189.922 23.6637 189.789 23.3428C189.656 23.0218 189.59 22.6815 189.59 22.3218V16.2705H190.951ZM201.194 24.7705H199.833V12.3774L200.929 11.9375H201.194V24.7705ZM73.6528 34.5146L78.8325 45.7705H77.2471L75.5703 42.1016H70.6978L68.9795 45.7705H68.083L73.3457 34.5146H73.6528ZM71.0381 41.3877H75.23L73.1216 36.9136L71.0381 41.3877ZM79.3555 45.2808L85.4233 37.9844H79.3555V37.2705H87.5317V37.6855L81.3228 45.0566H87.5317V45.7705H79.3555V45.2808ZM89.6816 37.5527L90.7607 37.1128H91.0264V45.7705H89.6816V37.5527ZM89.5488 34.0166C89.5488 33.8838 89.5682 33.7593 89.6069 33.6431C89.6512 33.5269 89.7093 33.4245 89.7812 33.3359C89.8532 33.2474 89.9362 33.1782 90.0303 33.1284C90.1299 33.0786 90.235 33.0537 90.3457 33.0537C90.4564 33.0537 90.5588 33.0786 90.6528 33.1284C90.7524 33.1782 90.8382 33.2474 90.9102 33.3359C90.9821 33.4245 91.0374 33.5269 91.0762 33.6431C91.1204 33.7593 91.1426 33.8838 91.1426 34.0166C91.1426 34.1494 91.1204 34.2739 91.0762 34.3901C91.0374 34.5063 90.9821 34.6087 90.9102 34.6973C90.8382 34.7858 90.7524 34.855 90.6528 34.9048C90.5588 34.9546 90.4564 34.9795 90.3457 34.9795C90.235 34.9795 90.1299 34.9546 90.0303 34.9048C89.9362 34.855 89.8532 34.7858 89.7812 34.6973C89.7093 34.6087 89.6512 34.5063 89.6069 34.3901C89.5682 34.2739 89.5488 34.1494 89.5488 34.0166ZM93.1348 45.2808L99.2026 37.9844H93.1348V37.2705H101.311V37.6855L95.1021 45.0566H101.311V45.7705H93.1348V45.2808ZM117.572 34.7637V35.4775H112.202V39.4121H116.086V40.126H112.202V45.7705H110.683V34.7637H117.572ZM123.25 45.9531C122.625 45.9531 122.046 45.8397 121.515 45.6128C120.989 45.3859 120.533 45.0788 120.146 44.6914C119.764 44.2985 119.465 43.842 119.249 43.3218C119.033 42.7961 118.925 42.2344 118.925 41.6367C118.925 41.0114 119.033 40.4248 119.249 39.877C119.465 39.3236 119.764 38.8421 120.146 38.4326C120.533 38.0231 120.989 37.7021 121.515 37.4697C122.046 37.2318 122.625 37.1128 123.25 37.1128C123.87 37.1128 124.443 37.2207 124.968 37.4365C125.494 37.6523 125.948 37.9484 126.33 38.3247C126.717 38.701 127.019 39.1437 127.234 39.6528C127.45 40.1564 127.558 40.6987 127.558 41.2798C127.558 41.9217 127.45 42.5277 127.234 43.0977C127.019 43.6621 126.717 44.1574 126.33 44.5835C125.948 45.0041 125.494 45.3389 124.968 45.5879C124.443 45.8314 123.87 45.9531 123.25 45.9531ZM123.574 45.3306C123.928 45.3306 124.252 45.2448 124.545 45.0732C124.844 44.9017 125.101 44.672 125.317 44.3843C125.533 44.091 125.699 43.7534 125.815 43.3716C125.937 42.9897 125.998 42.5858 125.998 42.1597C125.998 41.5454 125.942 40.9699 125.832 40.4331C125.721 39.8963 125.538 39.4287 125.284 39.0303C125.035 38.6318 124.708 38.3192 124.304 38.0923C123.906 37.8599 123.416 37.7437 122.835 37.7437C122.531 37.7437 122.235 37.8267 121.947 37.9927C121.665 38.1532 121.413 38.3745 121.191 38.6567C120.976 38.939 120.801 39.271 120.668 39.6528C120.541 40.0291 120.478 40.4303 120.478 40.8564C120.478 41.4762 120.547 42.0573 120.685 42.5996C120.823 43.1419 121.023 43.6151 121.283 44.019C121.548 44.423 121.872 44.744 122.254 44.9819C122.641 45.2144 123.081 45.3306 123.574 45.3306ZM131.65 37.2705V43.3218C131.65 43.5321 131.703 43.7313 131.808 43.9194C131.919 44.1076 132.065 44.2708 132.248 44.4092C132.431 44.5475 132.644 44.6582 132.887 44.7412C133.136 44.8187 133.402 44.8574 133.684 44.8574C133.872 44.8574 134.063 44.8132 134.257 44.7246C134.456 44.6361 134.65 44.5171 134.838 44.3677C135.032 44.2183 135.214 44.0467 135.386 43.853C135.563 43.6593 135.721 43.4601 135.859 43.2554V37.2705H137.204V45.7705H135.859V44.2764C135.626 44.5586 135.38 44.8049 135.12 45.0151C134.86 45.2199 134.597 45.3942 134.332 45.5381C134.066 45.6764 133.803 45.7788 133.543 45.8452C133.288 45.9172 133.045 45.9531 132.812 45.9531C132.464 45.9531 132.137 45.884 131.833 45.7456C131.529 45.6073 131.26 45.4191 131.028 45.1812C130.801 44.9432 130.621 44.6637 130.488 44.3428C130.355 44.0218 130.289 43.6815 130.289 43.3218V37.2705H131.65ZM141.636 37.1128H141.894V38.7646C142.552 38.1891 143.158 37.7713 143.711 37.5112C144.27 37.2456 144.815 37.1128 145.347 37.1128C145.618 37.1128 145.872 37.1792 146.11 37.312C146.354 37.4448 146.564 37.6274 146.741 37.8599C146.918 38.0923 147.057 38.3662 147.156 38.6816C147.261 38.9915 147.314 39.3236 147.314 39.6777V45.7705H145.961V39.9683C145.961 39.686 145.922 39.4398 145.845 39.2295C145.773 39.0137 145.668 38.8338 145.529 38.6899C145.396 38.5461 145.236 38.4382 145.048 38.3662C144.865 38.2887 144.663 38.25 144.442 38.25C144.248 38.25 144.043 38.2887 143.828 38.3662C143.612 38.4382 143.393 38.5378 143.172 38.665C142.956 38.7868 142.737 38.9307 142.516 39.0967C142.3 39.2627 142.093 39.437 141.894 39.6196V45.7705H140.532V37.5444L141.636 37.1128ZM156.47 44.9487C156.199 45.1535 155.933 45.3223 155.673 45.4551C155.413 45.5824 155.155 45.6847 154.901 45.7622C154.652 45.8341 154.408 45.884 154.17 45.9116C153.938 45.9393 153.711 45.9531 153.49 45.9531C153.014 45.9531 152.568 45.8369 152.153 45.6045C151.738 45.3721 151.376 45.0594 151.066 44.6665C150.762 44.2736 150.518 43.8171 150.335 43.2969C150.158 42.7712 150.07 42.2178 150.07 41.6367C150.07 41.0612 150.183 40.5023 150.41 39.96C150.637 39.4176 150.944 38.9362 151.332 38.5156C151.719 38.0895 152.173 37.7492 152.693 37.4946C153.213 37.2401 153.769 37.1128 154.361 37.1128C154.544 37.1128 154.715 37.1239 154.876 37.146C155.042 37.1626 155.205 37.1986 155.366 37.2539C155.532 37.3092 155.703 37.3895 155.88 37.4946C156.057 37.5998 156.254 37.7354 156.47 37.9014V33.3774L157.549 32.9375H157.814V45.7705H156.47V44.9487ZM156.47 39.9766C156.47 39.6445 156.403 39.3429 156.271 39.0718C156.138 38.7951 155.963 38.5599 155.748 38.3662C155.532 38.167 155.288 38.0148 155.017 37.9097C154.746 37.799 154.472 37.7437 154.195 37.7437C153.836 37.7437 153.498 37.8267 153.183 37.9927C152.867 38.1587 152.593 38.3939 152.361 38.6982C152.128 38.9971 151.943 39.3568 151.805 39.7773C151.672 40.1924 151.605 40.6517 151.605 41.1553C151.605 41.6976 151.677 42.2039 151.821 42.6743C151.971 43.1447 152.173 43.557 152.427 43.9111C152.687 44.2598 152.989 44.5365 153.332 44.7412C153.675 44.9404 154.043 45.04 154.436 45.04C154.635 45.04 154.832 45.0179 155.025 44.9736C155.219 44.9238 155.402 44.8602 155.573 44.7827C155.75 44.6997 155.911 44.6056 156.055 44.5005C156.199 44.3953 156.323 44.2847 156.428 44.1685H156.47V39.9766ZM166.979 44.6084C166.979 44.863 167.056 45.0926 167.211 45.2974C167.366 45.5021 167.56 45.6598 167.792 45.7705H166.314C166.121 45.6764 165.955 45.5298 165.816 45.3306C165.684 45.1258 165.617 44.8851 165.617 44.6084C165.451 44.7246 165.266 44.8602 165.061 45.0151C164.862 45.1701 164.638 45.3167 164.389 45.4551C164.14 45.5934 163.863 45.7096 163.559 45.8037C163.254 45.9033 162.917 45.9531 162.546 45.9531C162.236 45.9531 161.957 45.8978 161.708 45.7871C161.464 45.682 161.257 45.5353 161.085 45.3472C160.913 45.159 160.781 44.9349 160.687 44.6748C160.592 44.4147 160.545 44.1353 160.545 43.8364C160.545 43.4657 160.615 43.1309 160.753 42.832C160.897 42.5332 161.09 42.2648 161.334 42.0269C161.583 41.7834 161.871 41.5703 162.197 41.3877C162.529 41.1995 162.883 41.0335 163.26 40.8896C163.636 40.7402 164.026 40.6102 164.43 40.4995C164.834 40.3888 165.23 40.2865 165.617 40.1924V39.7524C165.617 39.3651 165.587 39.0386 165.526 38.7729C165.465 38.5073 165.368 38.2943 165.235 38.1338C165.108 37.9678 164.945 37.8516 164.746 37.7852C164.546 37.7132 164.306 37.6772 164.023 37.6772C163.763 37.6772 163.523 37.7243 163.301 37.8184C163.08 37.9124 162.886 38.0397 162.72 38.2002C162.554 38.3551 162.419 38.5405 162.313 38.7563C162.208 38.9666 162.139 39.1908 162.106 39.4287H160.894C160.938 39.0635 161.06 38.737 161.259 38.4492C161.458 38.1615 161.708 37.9207 162.006 37.7271C162.311 37.5278 162.651 37.3757 163.027 37.2705C163.409 37.1654 163.805 37.1128 164.214 37.1128C164.74 37.1128 165.18 37.1681 165.534 37.2788C165.888 37.384 166.171 37.5334 166.381 37.7271C166.597 37.9207 166.749 38.1587 166.837 38.4409C166.931 38.7176 166.979 39.0247 166.979 39.3623V44.6084ZM165.617 40.8232C165.191 40.9395 164.757 41.0861 164.314 41.2632C163.871 41.4347 163.47 41.6284 163.11 41.8442C162.756 42.0601 162.466 42.298 162.239 42.5581C162.012 42.8182 161.898 43.0949 161.898 43.3882C161.898 43.5985 161.94 43.7977 162.023 43.9858C162.111 44.1685 162.228 44.3317 162.372 44.4756C162.515 44.6139 162.679 44.7246 162.861 44.8076C163.049 44.8851 163.243 44.9238 163.442 44.9238C163.658 44.9238 163.857 44.8934 164.04 44.8325C164.228 44.7716 164.408 44.6942 164.58 44.6001C164.751 44.5005 164.92 44.3898 165.086 44.2681C165.257 44.1408 165.435 44.0107 165.617 43.8779V40.8232ZM171.727 34.3818H171.984V37.2705H173.876V37.9927H171.984V43.9775C171.984 44.1048 172.012 44.2238 172.067 44.3345C172.122 44.4451 172.197 44.542 172.291 44.625C172.391 44.708 172.504 44.7744 172.631 44.8242C172.764 44.8685 172.908 44.8906 173.063 44.8906C173.295 44.8906 173.492 44.8519 173.652 44.7744C173.813 44.6969 173.94 44.6029 174.034 44.4922L174.283 44.6582C174.051 45.0566 173.757 45.3721 173.403 45.6045C173.055 45.8369 172.629 45.9531 172.125 45.9531C171.87 45.9531 171.649 45.9033 171.461 45.8037C171.273 45.7096 171.118 45.5768 170.996 45.4053C170.874 45.2282 170.783 45.0207 170.722 44.7827C170.661 44.5392 170.631 44.2708 170.631 43.9775V37.9927H169.153V37.644L170.506 37.2705H170.631V34.8135L171.727 34.3818ZM176.939 37.5527L178.019 37.1128H178.284V45.7705H176.939V37.5527ZM176.807 34.0166C176.807 33.8838 176.826 33.7593 176.865 33.6431C176.909 33.5269 176.967 33.4245 177.039 33.3359C177.111 33.2474 177.194 33.1782 177.288 33.1284C177.388 33.0786 177.493 33.0537 177.604 33.0537C177.714 33.0537 177.817 33.0786 177.911 33.1284C178.01 33.1782 178.096 33.2474 178.168 33.3359C178.24 33.4245 178.295 33.5269 178.334 33.6431C178.378 33.7593 178.4 33.8838 178.4 34.0166C178.4 34.1494 178.378 34.2739 178.334 34.3901C178.295 34.5063 178.24 34.6087 178.168 34.6973C178.096 34.7858 178.01 34.855 177.911 34.9048C177.817 34.9546 177.714 34.9795 177.604 34.9795C177.493 34.9795 177.388 34.9546 177.288 34.9048C177.194 34.855 177.111 34.7858 177.039 34.6973C176.967 34.6087 176.909 34.5063 176.865 34.3901C176.826 34.2739 176.807 34.1494 176.807 34.0166ZM185.473 45.9531C184.847 45.9531 184.269 45.8397 183.738 45.6128C183.212 45.3859 182.756 45.0788 182.368 44.6914C181.986 44.2985 181.688 43.842 181.472 43.3218C181.256 42.7961 181.148 42.2344 181.148 41.6367C181.148 41.0114 181.256 40.4248 181.472 39.877C181.688 39.3236 181.986 38.8421 182.368 38.4326C182.756 38.0231 183.212 37.7021 183.738 37.4697C184.269 37.2318 184.847 37.1128 185.473 37.1128C186.092 37.1128 186.665 37.2207 187.191 37.4365C187.717 37.6523 188.17 37.9484 188.552 38.3247C188.94 38.701 189.241 39.1437 189.457 39.6528C189.673 40.1564 189.781 40.6987 189.781 41.2798C189.781 41.9217 189.673 42.5277 189.457 43.0977C189.241 43.6621 188.94 44.1574 188.552 44.5835C188.17 45.0041 187.717 45.3389 187.191 45.5879C186.665 45.8314 186.092 45.9531 185.473 45.9531ZM185.796 45.3306C186.151 45.3306 186.474 45.2448 186.768 45.0732C187.066 44.9017 187.324 44.672 187.54 44.3843C187.755 44.091 187.921 43.7534 188.038 43.3716C188.159 42.9897 188.22 42.5858 188.22 42.1597C188.22 41.5454 188.165 40.9699 188.054 40.4331C187.944 39.8963 187.761 39.4287 187.506 39.0303C187.257 38.6318 186.931 38.3192 186.527 38.0923C186.128 37.8599 185.639 37.7437 185.058 37.7437C184.753 37.7437 184.457 37.8267 184.169 37.9927C183.887 38.1532 183.635 38.3745 183.414 38.6567C183.198 38.939 183.024 39.271 182.891 39.6528C182.764 40.0291 182.7 40.4303 182.7 40.8564C182.7 41.4762 182.769 42.0573 182.908 42.5996C183.046 43.1419 183.245 43.6151 183.505 44.019C183.771 44.423 184.095 44.744 184.477 44.9819C184.864 45.2144 185.304 45.3306 185.796 45.3306ZM193.616 37.1128H193.873V38.7646C194.532 38.1891 195.138 37.7713 195.691 37.5112C196.25 37.2456 196.795 37.1128 197.326 37.1128C197.597 37.1128 197.852 37.1792 198.09 37.312C198.333 37.4448 198.544 37.6274 198.721 37.8599C198.898 38.0923 199.036 38.3662 199.136 38.6816C199.241 38.9915 199.293 39.3236 199.293 39.6777V45.7705H197.94V39.9683C197.94 39.686 197.902 39.4398 197.824 39.2295C197.752 39.0137 197.647 38.8338 197.509 38.6899C197.376 38.5461 197.215 38.4382 197.027 38.3662C196.845 38.2887 196.643 38.25 196.421 38.25C196.228 38.25 196.023 38.2887 195.807 38.3662C195.591 38.4382 195.373 38.5378 195.151 38.665C194.936 38.7868 194.717 38.9307 194.496 39.0967C194.28 39.2627 194.072 39.437 193.873 39.6196V45.7705H192.512V37.5444L193.616 37.1128Z" fill="white"/>
<rect x="27.5901" y="4.94975" width="32.0183" height="32.0183" transform="rotate(45 27.5901 4.94975)" stroke="white" stroke-width="7"/>
</svg>
