<svg width="207" height="75" viewBox="0 0 207 75" fill="none" xmlns="http://www.w3.org/2000/svg">
<g clip-path="url(#clip0_227_1400)">
<path d="M205.089 73.0151H77.7046V2.01724H93.1946H205.089V73.0151ZM207 0.0323276H75.7429V73.0216H58.7434V43.4418H56.8326V73.0216H39.7886V2.01724H48.1323V0.0387931H37.8587V73.0216H20.9102V0H18.9994V73.0216H1.91077V0H0V75H207V0.0323276Z" fill="black"/>
<path d="M58.7243 0.0646973H56.7944V34.4483H58.7243V0.0646973Z" fill="black"/>
<path d="M97.4493 42.4203V48.5237H98.6594V40.5453H97.2327L95.1436 44.5992H95.0735L92.9844 40.5453H91.494V48.5237H92.6978V42.4203H92.7551L93.3666 43.7134L95.0735 46.9009L96.7805 43.7134L97.3983 42.4203H97.4493Z" fill="black"/>
<path d="M104.01 47.541V48.4914H105.226V42.5754H104.01V46.5517C104.01 47.25 103.373 47.5797 102.736 47.5797C101.99 47.5797 101.621 47.1013 101.621 46.2026V42.5754H100.405V46.3578C100.405 47.819 101.105 48.653 102.315 48.653C102.671 48.6779 103.025 48.5813 103.32 48.3786C103.616 48.1759 103.836 47.8788 103.946 47.5345H103.997L104.01 47.541Z" fill="black"/>
<path d="M108.506 40.9591H107.417V42.0259C107.417 42.4332 107.283 42.6078 106.876 42.6078H106.366V43.6229H107.271V47.2565C107.253 47.4308 107.273 47.607 107.331 47.7722C107.388 47.9374 107.482 48.0875 107.604 48.2114C107.726 48.3353 107.874 48.43 108.036 48.4885C108.199 48.547 108.373 48.5679 108.544 48.5496H109.602V47.5022H108.474V43.6229H109.691V42.582H108.474L108.506 40.9591Z" fill="black"/>
<path d="M112.372 40.6746C112.372 40.2932 112.162 40.0281 111.659 40.0281C111.156 40.0281 110.939 40.2996 110.939 40.6746V40.8686C110.939 41.2436 111.162 41.5151 111.659 41.5151C112.156 41.5151 112.372 41.2371 112.372 40.8686V40.6746Z" fill="black"/>
<path d="M112.258 42.5819H111.041V48.5237H112.258V42.5819Z" fill="black"/>
<path d="M115.219 46.5517V44.5345C115.219 43.9267 115.799 43.5194 116.538 43.5194C116.731 43.5138 116.924 43.5502 117.102 43.626C117.281 43.7018 117.441 43.8154 117.573 43.9591C117.705 44.1029 117.806 44.2735 117.868 44.4597C117.93 44.6458 117.952 44.8432 117.933 45.0388V46.0668C117.95 46.2604 117.928 46.4558 117.867 46.6401C117.806 46.8244 117.707 46.9936 117.577 47.1368C117.448 47.2801 117.29 47.394 117.114 47.4714C116.938 47.5488 116.749 47.5879 116.557 47.5862C115.818 47.5862 115.238 47.1724 115.238 46.5711L115.219 46.5517ZM119.219 45.5366C119.219 43.597 118.372 42.4332 116.907 42.4332C116.552 42.4183 116.202 42.5205 115.91 42.7245C115.617 42.9284 115.397 43.2232 115.283 43.5646H115.226V40.0862H114.009V48.4914H115.226V47.5409H115.283C115.403 47.8787 115.626 48.1691 115.919 48.3701C116.212 48.5712 116.56 48.6725 116.914 48.6595C118.379 48.6595 119.226 47.5021 119.226 45.5495L119.219 45.5366Z" fill="black"/>
<path d="M127.818 46.3965C127.829 46.539 127.808 46.6821 127.757 46.8152C127.706 46.9484 127.626 47.0682 127.524 47.1658C127.421 47.2633 127.298 47.3361 127.163 47.3786C127.029 47.4212 126.887 47.4325 126.748 47.4116H124.582V44.9871H126.748C126.885 44.9706 127.025 44.9851 127.156 45.0295C127.287 45.0739 127.408 45.1472 127.508 45.2441C127.608 45.3411 127.686 45.4592 127.737 45.5902C127.787 45.7212 127.808 45.8619 127.799 46.0021V46.3901L127.818 46.3965ZM124.601 41.6508H126.557C126.686 41.6342 126.817 41.6469 126.941 41.688C127.064 41.7291 127.178 41.7977 127.272 41.8886C127.367 41.9795 127.44 42.0907 127.487 42.2139C127.534 42.3372 127.553 42.4695 127.544 42.6013V42.9698C127.552 43.1011 127.532 43.2327 127.485 43.3551C127.437 43.4776 127.364 43.5878 127.269 43.6781C127.175 43.7683 127.062 43.8362 126.939 43.8769C126.816 43.9177 126.685 43.9303 126.557 43.9138H124.601V41.6508ZM127.518 44.3599V44.2888C127.718 44.2738 127.913 44.2175 128.091 44.1233C128.269 44.0291 128.426 43.899 128.552 43.7409C128.679 43.5829 128.772 43.4003 128.827 43.2043C128.881 43.0083 128.895 42.8031 128.869 42.6013C128.886 42.3222 128.844 42.0425 128.745 41.7814C128.647 41.5204 128.493 41.2841 128.296 41.0888C128.099 40.8935 127.862 40.7438 127.603 40.65C127.343 40.5562 127.067 40.5204 126.792 40.5452H123.34V48.4914H127.162C127.444 48.4792 127.721 48.4096 127.976 48.2867C128.231 48.1638 128.459 47.9902 128.647 47.7761C128.834 47.5621 128.978 47.3119 129.068 47.0405C129.159 46.7691 129.195 46.4819 129.174 46.1961C129.188 45.7314 129.023 45.2794 128.714 44.9365C128.405 44.5935 127.976 44.3866 127.518 44.3599Z" fill="black"/>
<path d="M131.824 42.5819H130.607V48.5237H131.824V42.5819Z" fill="black"/>
<path d="M131.939 40.6746C131.939 40.2932 131.728 40.0281 131.225 40.0281C130.722 40.0281 130.506 40.2996 130.506 40.6746V40.8686C130.506 41.2436 130.728 41.5151 131.225 41.5151C131.722 41.5151 131.939 41.2371 131.939 40.8686V40.6746Z" fill="black"/>
<path d="M134.843 43.5582H134.786V42.5819H133.569V48.5237H134.786V44.5474C134.786 43.8491 135.423 43.5194 136.06 43.5194C136.805 43.5194 137.149 43.9849 137.149 44.9095V48.4914H138.372V44.7478C138.372 43.2866 137.665 42.4396 136.461 42.4396C136.106 42.4193 135.754 42.5176 135.46 42.7197C135.165 42.9217 134.944 43.2163 134.83 43.5582H134.843Z" fill="black"/>
<path d="M144.32 45.2586L145.441 41.7414H145.499L146.62 45.2586H144.32ZM144.709 40.5517L142.034 48.4914H143.308L143.989 46.3384H146.9L147.639 48.4914H148.957L146.295 40.5194L144.709 40.5517Z" fill="black"/>
<path d="M152.607 43.5194C152.8 43.5138 152.993 43.5502 153.171 43.626C153.35 43.7018 153.51 43.8154 153.642 43.9591C153.774 44.1029 153.875 44.2735 153.937 44.4597C153.998 44.6458 154.021 44.8432 154.002 45.0388V46.0668C154.02 46.2621 153.997 46.4591 153.934 46.6448C153.872 46.8305 153.772 47.0007 153.64 47.1442C153.508 47.2877 153.348 47.4013 153.17 47.4774C152.992 47.5536 152.8 47.5907 152.607 47.5862C151.868 47.5862 151.288 47.1724 151.288 46.5711V44.5345C151.288 43.9332 151.868 43.5194 152.607 43.5194ZM151.288 40.0862H150.072V48.4914H151.288V47.5409H151.346C151.466 47.8781 151.689 48.1676 151.982 48.3676C152.275 48.5675 152.623 48.6675 152.976 48.653C154.435 48.653 155.288 47.5021 155.288 45.5495C155.288 43.597 154.435 42.4396 152.976 42.4396C152.622 42.4225 152.272 42.5221 151.978 42.7237C151.684 42.9253 151.462 43.2181 151.346 43.5582H151.288V40.0862Z" fill="black"/>
<path d="M160.339 46.5517C160.339 47.1595 159.759 47.5668 159.021 47.5668C158.827 47.5723 158.635 47.536 158.456 47.4602C158.278 47.3843 158.117 47.2708 157.985 47.127C157.853 46.9833 157.753 46.8126 157.691 46.6265C157.629 46.4403 157.607 46.2429 157.626 46.0474V45.0323C157.608 44.837 157.631 44.64 157.693 44.4543C157.755 44.2686 157.856 44.0984 157.987 43.9549C158.119 43.8114 158.279 43.6978 158.457 43.6216C158.635 43.5455 158.827 43.5084 159.021 43.5129C159.759 43.5129 160.339 43.9267 160.339 44.528V46.5517ZM160.339 43.5517H160.282C160.165 43.2116 159.943 42.9189 159.65 42.7173C159.356 42.5157 159.005 42.416 158.651 42.4332C157.186 42.4332 156.339 43.584 156.339 45.5366C156.339 47.4892 157.186 48.6465 158.651 48.6465C159.005 48.6616 159.354 48.5611 159.648 48.3598C159.941 48.1585 160.163 47.8669 160.282 47.528H160.339V48.5107H161.556V40.0862H160.339V43.584V43.5517Z" fill="black"/>
<path d="M166.81 46.5517C166.81 47.25 166.173 47.5797 165.568 47.5797C164.823 47.5797 164.454 47.1013 164.454 46.1961V42.5754H163.237V46.3578C163.237 47.819 163.938 48.6466 165.148 48.6466C165.503 48.6707 165.855 48.5746 166.15 48.3733C166.445 48.172 166.666 47.877 166.778 47.5345H166.817V48.4914H168.033V42.5754H166.817V46.5517H166.81Z" fill="black"/>
<path d="M170.988 40.0862H169.772V47.2888C169.754 47.4576 169.774 47.6283 169.831 47.7881C169.887 47.9479 169.979 48.0926 170.098 48.2114C170.218 48.3302 170.362 48.42 170.521 48.4741C170.679 48.5282 170.848 48.5451 171.014 48.5237H171.791V47.5086H170.988V40.0862Z" fill="black"/>
<path d="M176.058 46.765C176.058 47.3469 175.498 47.709 174.753 47.709C174.147 47.709 173.765 47.4375 173.765 46.9138V46.7069C173.765 46.1896 174.179 45.9051 175.039 45.9051H176.065V46.765H176.058ZM177.275 44.5215C177.275 43.2284 176.44 42.4461 174.944 42.4461C174.509 42.4122 174.074 42.5019 173.687 42.7052C173.3 42.9085 172.976 43.2173 172.753 43.5969L173.479 44.2435C173.614 43.9932 173.815 43.7854 174.058 43.6429C174.302 43.5003 174.58 43.4285 174.861 43.4353C175.02 43.4084 175.184 43.42 175.338 43.4691C175.493 43.5182 175.634 43.6035 175.749 43.718C175.865 43.8325 175.953 43.9731 176.006 44.1284C176.058 44.2837 176.074 44.4494 176.052 44.612V45.1163H175.007C173.383 45.1163 172.53 45.7176 172.53 46.8944C172.517 47.1424 172.557 47.3903 172.649 47.6206C172.741 47.8509 172.881 48.0579 173.06 48.2269C173.24 48.396 173.453 48.5229 173.686 48.5988C173.919 48.6746 174.166 48.6976 174.409 48.6659C174.776 48.7028 175.145 48.6106 175.453 48.4046C175.761 48.1987 175.991 47.8915 176.103 47.5344H176.16C176.164 47.67 176.195 47.8034 176.25 47.927C176.305 48.0506 176.384 48.1618 176.481 48.2544C176.579 48.347 176.694 48.419 176.819 48.4663C176.944 48.5136 177.078 48.5353 177.211 48.5301H177.886V47.5086H177.249V44.528L177.275 44.5215Z" fill="black"/>
<path d="M183.173 43.5388V42.5819H178.721V43.597H181.733L178.619 47.5151V48.5237H183.249V47.5022H180.014L183.173 43.5388Z" fill="black"/>
<path d="M185.134 41.5151C185.638 41.5151 185.848 41.2436 185.848 40.8686V40.6746C185.848 40.2996 185.638 40.0281 185.134 40.0281C184.631 40.0281 184.408 40.3061 184.408 40.6746V40.8686C184.408 41.2436 184.638 41.5151 185.134 41.5151Z" fill="black"/>
<path d="M185.739 42.5819H184.523V48.5237H185.739V42.5819Z" fill="black"/>
<path d="M191.644 47.5022H188.408L191.567 43.5388V42.5819H187.115V43.597H190.128L187.013 47.5151V48.5237H191.644V47.5022Z" fill="black"/>
<path d="M91.494 62.2371H92.7551V58.7651H95.9589V57.6207H92.7551V55.4031H96.3601V54.2587H91.494V62.2371Z" fill="black"/>
<path d="M101.118 59.7608C101.118 60.8147 100.557 61.3449 99.7358 61.3449C98.9142 61.3449 98.3473 60.8147 98.3473 59.7608V58.7587C98.3473 57.7113 98.9078 57.1811 99.7358 57.1811C100.564 57.1811 101.118 57.7048 101.118 58.7587V59.7608ZM99.7358 56.1531C98.1116 56.1531 97.0671 57.3686 97.0671 59.263C97.0671 61.1574 98.1116 62.3729 99.7358 62.3729C101.36 62.3729 102.404 61.1639 102.404 59.263C102.404 57.3621 101.354 56.1531 99.7358 56.1531Z" fill="black"/>
<path d="M107.271 60.2716C107.271 60.9634 106.634 61.2996 106.029 61.2996C105.283 61.2996 104.914 60.8147 104.914 59.916V56.2888H103.697V60.0711C103.697 61.5324 104.398 62.3664 105.608 62.3664C105.964 62.3901 106.317 62.2931 106.612 62.0906C106.907 61.888 107.128 61.5916 107.239 61.2479H107.277V62.2306H108.493V56.2888H107.277V60.2651L107.271 60.2716Z" fill="black"/>
<path d="M113.13 56.1531C112.776 56.1338 112.424 56.2326 112.13 56.4345C111.836 56.6364 111.614 56.9303 111.5 57.2716H111.462V56.2888H110.245V62.2371H111.462V58.2608C111.462 57.5626 112.098 57.2264 112.735 57.2264C113.487 57.2264 113.831 57.6983 113.831 58.6229V62.2307H115.047V58.4613C115.047 57.0001 114.34 56.1466 113.137 56.1466L113.13 56.1531Z" fill="black"/>
<path d="M120.378 60.2845C120.378 60.8858 119.799 61.2995 119.06 61.2995C118.867 61.3051 118.674 61.2687 118.496 61.1929C118.317 61.1171 118.156 61.0035 118.024 60.8598C117.892 60.716 117.792 60.5454 117.73 60.3593C117.668 60.1731 117.646 59.9757 117.665 59.7802V58.7457C117.647 58.5504 117.67 58.3534 117.732 58.1677C117.795 57.982 117.895 57.8118 118.027 57.6683C118.159 57.5248 118.319 57.4112 118.497 57.335C118.675 57.2588 118.867 57.2218 119.06 57.2263C119.799 57.2263 120.378 57.6401 120.378 58.2414V60.278V60.2845ZM120.378 57.278H120.321C120.204 56.9385 119.982 56.6464 119.688 56.4449C119.395 56.2434 119.045 56.1433 118.691 56.1595C117.226 56.1595 116.379 57.3103 116.379 59.2694C116.379 61.2284 117.226 62.3793 118.691 62.3793C119.044 62.3923 119.393 62.291 119.686 62.09C119.979 61.8889 120.201 61.5986 120.321 61.2608H120.378V62.2371H121.595V53.7866H120.378V57.2845V57.278Z" fill="black"/>
<path d="M126.416 60.472C126.416 61.0603 125.856 61.4224 125.143 61.4224C124.506 61.4224 124.162 61.1444 124.162 60.6207V60.4138C124.162 59.903 124.576 59.6185 125.436 59.6185H126.461V60.472H126.416ZM127.639 58.2349C127.639 56.9418 126.799 56.153 125.302 56.153C124.868 56.1214 124.433 56.2121 124.047 56.4152C123.66 56.6182 123.336 56.9258 123.111 57.3039L123.837 57.9828C123.972 57.7324 124.173 57.5246 124.416 57.3821C124.66 57.2396 124.938 57.1678 125.219 57.1746C126.034 57.1746 126.416 57.5948 126.416 58.319V58.8362H125.366C123.748 58.8362 122.888 59.4375 122.888 60.6142C122.876 60.8619 122.917 61.1094 123.009 61.3391C123.101 61.5688 123.242 61.7754 123.421 61.9441C123.6 62.1129 123.813 62.2399 124.046 62.3162C124.278 62.3925 124.524 62.4163 124.767 62.3858C125.134 62.4239 125.504 62.3322 125.812 62.1261C126.121 61.9199 126.35 61.612 126.461 61.2543H126.518C126.522 61.3899 126.553 61.5233 126.608 61.6469C126.663 61.7704 126.742 61.8817 126.84 61.9743C126.937 62.0668 127.052 62.1388 127.177 62.1862C127.303 62.2335 127.436 62.2552 127.569 62.25H128.251V61.222H127.614V58.2414L127.639 58.2349Z" fill="black"/>
<path d="M130.958 54.6659H129.862V55.7068C129.862 56.1206 129.728 56.2887 129.327 56.2887H128.837V57.3038H129.741V60.9374C129.723 61.1117 129.744 61.2879 129.801 61.4531C129.859 61.6183 129.952 61.7684 130.074 61.8923C130.196 62.0162 130.344 62.1109 130.507 62.1694C130.67 62.228 130.843 62.2488 131.015 62.2305H132.079V61.2155H130.951V57.3038H132.168V56.2887H130.951L130.958 54.6659Z" fill="black"/>
<path d="M134.709 56.2888H133.493V62.2306H134.709V56.2888Z" fill="black"/>
<path d="M134.104 53.7349C133.601 53.7349 133.384 54.0064 133.384 54.3814V54.5818C133.384 54.9568 133.607 55.2284 134.104 55.2284C134.601 55.2284 134.817 54.9504 134.817 54.5818V54.3814C134.817 54.0064 134.607 53.7349 134.104 53.7349Z" fill="black"/>
<path d="M137.346 58.7587C137.346 57.7113 137.907 57.1811 138.728 57.1811C139.55 57.1811 140.117 57.7048 140.117 58.7587V59.7608C140.117 60.8147 139.556 61.3449 138.728 61.3449C137.9 61.3449 137.346 60.8147 137.346 59.7608V58.7587ZM136.072 59.263C136.072 61.1639 137.123 62.3729 138.741 62.3729C140.359 62.3729 141.397 61.1639 141.397 59.263C141.397 57.3621 140.352 56.1531 138.728 56.1531C137.104 56.1531 136.06 57.3686 136.06 59.263H136.072Z" fill="black"/>
<path d="M145.652 56.1531C145.297 56.1327 144.945 56.2311 144.65 56.4331C144.356 56.6352 144.135 56.9297 144.021 57.2716H143.945V56.2888H142.728V62.2371H143.945V58.2608C143.945 57.5626 144.582 57.2264 145.218 57.2264C145.964 57.2264 146.308 57.6983 146.308 58.6229V62.2307H147.524V58.4613C147.524 57.0001 146.824 56.1466 145.613 56.1466L145.652 56.1531Z" fill="black"/>
<path d="M176.924 25.4159H174.383V26.4956H176.924V25.4159Z" fill="black"/>
<path d="M96.8824 34.6293H94.3411V35.709H96.8824V34.6293Z" fill="black"/>
<path d="M95.29 11.6444H92.7487V12.7242H95.29V11.6444Z" fill="black"/>
<path d="M123.563 12.7177H125.697V12.0712H124.213V11.638C124.214 11.527 124.259 11.4211 124.336 11.3427C124.413 11.2642 124.517 11.2194 124.627 11.2177H125.703V10.5647H124.62C124.342 10.5713 124.077 10.6865 123.88 10.8863C123.683 11.0862 123.57 11.3554 123.563 11.638V12.6919V12.7177Z" fill="black"/>
<path d="M115.807 24.6081L115.777 32.9098L117.083 32.9146L117.113 24.613L115.807 24.6081Z" fill="black"/>
<path d="M94.0226 18.1875H93.9589C93.6898 18.2993 93.4024 18.3585 93.1118 18.3621C92.9204 18.3705 92.7297 18.3333 92.555 18.2536C92.3803 18.1739 92.2263 18.0539 92.1054 17.903C91.8433 17.5553 91.7102 17.1249 91.7297 16.6875C91.7129 16.2381 91.8604 15.7983 92.1437 15.4526C92.2723 15.2976 92.4334 15.1737 92.6152 15.0898C92.797 15.0059 92.9949 14.9642 93.1946 14.9677C93.4532 14.9727 93.7092 15.0207 93.9525 15.1099H94.0098V18.1358L94.0226 18.1875ZM94.6595 13.7457L94.1754 14.1272H94.1181C93.7558 13.9688 93.3661 13.8852 92.9717 13.8815C92.6423 13.8748 92.3153 13.938 92.0114 14.0672C91.7076 14.1963 91.4337 14.3886 91.2074 14.6315C90.6939 15.1919 90.4192 15.9355 90.4431 16.7005C90.4244 17.1063 90.4909 17.5115 90.638 17.8894C90.7851 18.2672 91.0096 18.609 91.2965 18.8923C91.7152 19.2748 92.262 19.4806 92.8252 19.4677C93.3359 19.4692 93.8305 19.2859 94.22 18.9505L94.2837 18.8987L94.3474 18.9569C94.581 19.199 94.8989 19.3383 95.2327 19.3449H99.1307C99.303 19.3516 99.4742 19.3136 99.6281 19.2344C99.7819 19.1552 99.9132 19.0374 100.01 18.8923L100.086 18.7824L100.551 19.3449H102.971C103.145 19.3521 103.317 19.3144 103.472 19.2352C103.627 19.156 103.759 19.038 103.857 18.8923L103.927 18.7824L104.398 19.3449H106.799C106.974 19.3468 107.148 19.3088 107.306 19.2339C107.465 19.1589 107.605 19.0488 107.716 18.9117L107.786 18.8211L108.226 19.3384H111.799C111.972 19.3457 112.145 19.3079 112.3 19.2287C112.455 19.1495 112.587 19.0315 112.684 18.8858L112.748 18.7888L113.27 19.3384H115.64C115.812 19.3452 115.983 19.3072 116.137 19.228C116.291 19.1488 116.422 19.031 116.519 18.8858L116.589 18.7888L117.098 19.3384H119.468C119.625 19.3405 119.781 19.3094 119.926 19.2471C120.07 19.1848 120.201 19.0925 120.308 18.9763C120.532 18.7428 120.656 18.4291 120.652 18.1035V14.0431H119.378V17.9224C119.385 17.9692 119.38 18.0167 119.365 18.0615C119.351 18.1062 119.326 18.1469 119.294 18.1806C119.261 18.2143 119.221 18.2399 119.178 18.2557C119.134 18.2715 119.087 18.2769 119.041 18.2716H116.812V18.0259C116.817 17.957 116.817 17.8879 116.812 17.819V14.0367H115.538V17.916C115.544 17.9627 115.539 18.0103 115.525 18.055C115.51 18.0997 115.485 18.1405 115.453 18.1741C115.42 18.2078 115.381 18.2335 115.337 18.2492C115.293 18.265 115.246 18.2704 115.2 18.2651H112.984V18.1617C112.984 18.0518 112.984 17.8966 112.984 17.7091V14.0367H111.71V17.916C111.716 17.9627 111.712 18.0103 111.697 18.055C111.682 18.0997 111.658 18.1405 111.625 18.1741C111.593 18.2078 111.553 18.2335 111.509 18.2492C111.465 18.265 111.419 18.2704 111.372 18.2651H108.009V14.0625H106.736V17.9418C106.742 17.9886 106.737 18.0361 106.722 18.0809C106.708 18.1256 106.683 18.1663 106.651 18.2C106.618 18.2337 106.578 18.2593 106.535 18.2751C106.491 18.2909 106.444 18.2963 106.398 18.291H104.137V18.0453C104.142 17.9764 104.142 17.9073 104.137 17.8384V14.0367H102.831V17.916C102.837 17.9627 102.833 18.0103 102.818 18.055C102.803 18.0997 102.779 18.1405 102.746 18.1741C102.714 18.2078 102.674 18.2335 102.63 18.2492C102.587 18.265 102.54 18.2704 102.494 18.2651H100.277V18.1617C100.285 18.0584 100.285 17.9546 100.277 17.8513V14.0367H99.0033V17.916C99.0094 17.9627 99.0049 18.0103 98.9902 18.055C98.9755 18.0997 98.951 18.1405 98.9184 18.1741C98.8859 18.2078 98.8462 18.2335 98.8024 18.2492C98.7587 18.265 98.7119 18.2704 98.6657 18.2651H95.6149C95.575 18.2655 95.5355 18.257 95.4992 18.2402C95.4629 18.2235 95.4307 18.1989 95.4047 18.1681C95.3706 18.1362 95.3439 18.097 95.3263 18.0535C95.3087 18.0099 95.3007 17.963 95.3028 17.916V13.7263H94.6659L94.6595 13.7457Z" fill="black"/>
<path d="M123.824 15.4526C123.939 15.3073 124.086 15.1917 124.253 15.1153C124.42 15.0388 124.603 15.0037 124.786 15.0129C125.021 15.0137 125.247 15.1011 125.423 15.2586C125.529 15.3547 125.613 15.4736 125.668 15.6067C125.723 15.7398 125.748 15.8838 125.741 16.028V18.2521H124.913C124.714 18.261 124.516 18.2264 124.331 18.1505C124.147 18.0747 123.98 17.9594 123.843 17.8125C123.568 17.4889 123.426 17.0694 123.448 16.6422C123.427 16.2156 123.554 15.7949 123.805 15.4526H123.824ZM130.779 16.0345C130.773 15.8979 130.795 15.7615 130.844 15.6344C130.893 15.5072 130.969 15.3923 131.066 15.2974C131.155 15.2024 131.263 15.1279 131.383 15.0788C131.503 15.0297 131.631 15.0073 131.76 15.0129C131.937 15.0087 132.112 15.0449 132.273 15.1188C132.434 15.1926 132.577 15.3023 132.69 15.4396C132.964 15.8359 133.098 16.3141 133.072 16.7974C133.095 17.2553 132.972 17.7085 132.722 18.0905C132.623 18.2475 132.486 18.3763 132.325 18.4645C132.163 18.5528 131.982 18.5976 131.798 18.5948C131.613 18.5934 131.429 18.5531 131.259 18.4764C131.089 18.3996 130.937 18.288 130.811 18.1487V16.028L130.779 16.0345ZM124.716 19.3513H125.722V19.4612C125.588 20.5215 124.882 21.0582 123.627 21.0582C123.36 21.055 123.094 21.0312 122.831 20.987L123.423 22.1314H123.856C124.208 22.1295 124.559 22.0861 124.901 22.0021C125.374 21.8876 125.812 21.6542 126.174 21.3232C126.434 21.08 126.643 20.7865 126.79 20.4601C126.936 20.1337 127.017 19.7809 127.028 19.4224V19.3254H129.576C129.881 19.3309 130.176 19.2149 130.397 19.0021L130.474 18.931L130.537 19.0151C130.711 19.2277 130.931 19.3967 131.179 19.5089C131.428 19.621 131.699 19.6733 131.97 19.6616C132.301 19.6682 132.628 19.5955 132.926 19.4494C133.224 19.3034 133.483 19.0881 133.684 18.8211C134.156 18.2098 134.406 17.4514 134.391 16.6745C134.414 16.2712 134.348 15.8678 134.197 15.494C134.046 15.1202 133.814 14.7856 133.518 14.5151C133.051 14.1134 132.455 13.8995 131.843 13.9138C131.274 13.883 130.711 14.0469 130.244 14.3793C129.998 14.5723 129.803 14.8234 129.674 15.1107C129.545 15.398 129.487 15.7129 129.506 16.028V17.903C129.507 17.9474 129.499 17.9915 129.482 18.0327C129.466 18.0739 129.441 18.1111 129.41 18.1422C129.377 18.1763 129.337 18.203 129.293 18.2208C129.249 18.2386 129.202 18.2471 129.155 18.2457H127.066V16.028C127.079 15.6996 127.013 15.3728 126.873 15.0764C126.733 14.7799 126.524 14.5228 126.264 14.3276C125.83 14.0369 125.318 13.888 124.799 13.9008C124.448 13.8888 124.098 13.9477 123.77 14.0743C123.442 14.2008 123.142 14.3924 122.888 14.6379C122.644 14.9096 122.456 15.2279 122.334 15.5743C122.213 15.9207 122.161 16.2881 122.181 16.6551C122.163 17.3125 122.372 17.9555 122.773 18.472C123.011 18.7587 123.31 18.986 123.648 19.1362C123.986 19.2865 124.354 19.3556 124.722 19.3383L124.716 19.3513Z" fill="black"/>
<path d="M93.6977 33.0259V32.9289H96.4811C96.6526 32.9301 96.8223 32.8924 96.9776 32.8186C97.133 32.7448 97.2702 32.6367 97.3791 32.5022C97.564 32.2721 97.6652 31.9844 97.6658 31.6875V27.6337H96.3919V31.513C96.3927 31.5573 96.3846 31.6014 96.3682 31.6425C96.3517 31.6836 96.3273 31.7209 96.2964 31.7522C96.2632 31.7863 96.2234 31.813 96.1796 31.8308C96.1358 31.8486 96.0888 31.8571 96.0416 31.8556H93.7296V27.6337H92.4557V32.5669C92.4557 33.9375 91.7551 34.6294 90.3794 34.6294C90.1662 34.6303 89.9533 34.6152 89.7424 34.5841L90.3093 35.6962H90.6469C91.3629 35.7197 92.0678 35.5114 92.6595 35.1013C92.982 34.8577 93.2462 34.5434 93.4326 34.1819C93.6189 33.8203 93.7226 33.4208 93.7359 33.013L93.6977 33.0259Z" fill="black"/>
<path d="M106.111 29.6249L106.022 29.5797L106.073 29.4892C106.243 29.2097 106.489 28.9854 106.78 28.8426C107.058 28.7057 107.363 28.635 107.672 28.6357C107.952 28.6298 108.229 28.6919 108.481 28.8168C108.787 28.9742 109.043 29.2163 109.22 29.515L109.271 29.6055L109.175 29.6573C108.891 29.8212 108.642 30.041 108.443 30.3038C108.14 30.6446 107.899 31.0363 107.729 31.4611L107.634 31.7004L107.544 31.4611C107.388 31.0558 107.159 30.6832 106.869 30.362C106.659 30.0976 106.399 29.8779 106.105 29.7155L106.111 29.6249ZM101.169 32.5732C101.169 33.9439 100.475 34.6357 99.0989 34.6357H98.8823L99.4046 35.7025C100.109 35.7397 100.806 35.5322 101.379 35.1142C101.702 34.8702 101.966 34.556 102.154 34.1946C102.341 33.8333 102.446 33.4339 102.462 33.0258V32.9288H107.003C107.107 32.9322 107.21 32.9098 107.303 32.8636C107.396 32.8174 107.477 32.7488 107.538 32.6637L107.621 32.5991L107.678 32.6637C107.744 32.7507 107.827 32.8218 107.923 32.8721C108.019 32.9224 108.125 32.9506 108.232 32.9547H112.882C113.054 32.9606 113.225 32.9243 113.38 32.8489C113.535 32.7735 113.67 32.6612 113.774 32.5215C113.972 32.301 114.079 32.0117 114.073 31.7133V24.6594L112.799 25.3577V31.487C112.799 31.5762 112.764 31.6618 112.704 31.7262C112.635 31.7932 112.544 31.8304 112.449 31.8297H108.85L108.914 31.681C109.047 31.2918 109.264 30.9381 109.551 30.6465C109.836 30.3502 110.162 30.0975 110.519 29.8965L110.627 29.6055C110.402 28.9253 109.952 28.3451 109.353 27.9633C108.875 27.6443 108.314 27.4757 107.742 27.4784C107.165 27.4727 106.598 27.6246 106.099 27.918C105.443 28.2933 104.95 28.9048 104.717 29.6314L104.838 29.9159C105.225 30.1025 105.568 30.3715 105.844 30.7047C106.075 30.9953 106.252 31.3261 106.366 31.681L106.411 31.8103H102.462V27.6077H101.188V32.5538L101.169 32.5732Z" fill="black"/>
<path d="M122.232 28.5582C122.727 28.5598 123.202 28.7515 123.563 29.0949C123.731 29.2736 123.861 29.4849 123.946 29.7159C124.032 29.947 124.07 30.1932 124.06 30.4397V31.5259C124.066 31.5724 124.062 31.6198 124.047 31.6643C124.032 31.7088 124.008 31.7492 123.975 31.7824C123.942 31.8156 123.903 31.8407 123.859 31.8556C123.815 31.8706 123.768 31.875 123.722 31.8686H120.538V32.9677H124.2C124.469 32.9641 124.73 32.8685 124.939 32.6962C124.996 32.6541 125.042 32.5986 125.073 32.5345L125.124 32.3664L125.62 32.9677H127.862C128.037 32.9688 128.21 32.9298 128.367 32.8537C128.525 32.7776 128.664 32.6663 128.773 32.5281L128.843 32.444L129.321 32.9677H135.798L136.353 32.2565V31.8686H134.174C133.934 31.8813 133.695 31.828 133.482 31.7142C133.269 31.6004 133.09 31.4304 132.964 31.222C132.796 30.9371 132.71 30.6101 132.716 30.2781C132.684 30.0544 132.704 29.8263 132.774 29.6118C132.844 29.3973 132.962 29.2022 133.119 29.0417C133.276 28.8813 133.467 28.76 133.678 28.6874C133.888 28.6147 134.113 28.5926 134.333 28.6229C134.696 28.6292 135.057 28.677 135.41 28.7651V27.6854C135.015 27.5655 134.605 27.5024 134.193 27.4979C133.524 27.4744 132.865 27.6767 132.321 28.0733C132.019 28.3095 131.779 28.6165 131.62 28.9679C131.462 29.3193 131.389 29.7046 131.41 30.0906C131.408 30.4366 131.466 30.7802 131.582 31.1056C131.642 31.3089 131.73 31.5026 131.843 31.6811L131.958 31.8427H129.015V27.6401H127.741V31.4612C127.743 31.5114 127.734 31.5613 127.714 31.6072C127.694 31.6532 127.664 31.6939 127.627 31.7263C127.595 31.7668 127.554 31.7986 127.507 31.8189C127.461 31.8392 127.41 31.8474 127.359 31.8427H125.359V31.7393C125.367 31.6252 125.367 31.5107 125.359 31.3966V30.2651C125.386 29.549 125.132 28.8513 124.652 28.3255C124.381 28.0433 124.054 27.8222 123.693 27.6763C123.332 27.5304 122.945 27.463 122.557 27.4785C122.269 27.477 121.982 27.4965 121.697 27.5367V28.5712C121.875 28.5585 122.054 28.5585 122.232 28.5712V28.5582Z" fill="black"/>
<path d="M140.633 34.972C141.281 35.5086 142.103 35.7806 142.938 35.735H144.072C144.859 35.7643 145.632 35.5253 146.269 35.0561C146.57 34.8106 146.814 34.502 146.985 34.1516C147.157 33.8011 147.252 33.4171 147.263 33.0259V32.9354H150.085C150.257 32.9366 150.428 32.899 150.584 32.8252C150.74 32.7514 150.879 32.6433 150.989 32.5087C151.174 32.2786 151.275 31.9909 151.276 31.694V27.6401H150.002V31.5194C149.998 31.6115 149.96 31.6987 149.895 31.7626C149.829 31.8265 149.742 31.8622 149.651 31.8621H147.288V27.6401H146.015V32.5733C146.044 32.8787 146.002 33.1868 145.891 33.4722C145.78 33.7577 145.604 34.0125 145.378 34.2156C144.816 34.5437 144.17 34.6904 143.524 34.6358C142.856 34.6909 142.187 34.5303 141.614 34.1768C141.409 33.9684 141.252 33.7164 141.155 33.4391C141.058 33.1618 141.024 32.8661 141.053 32.5733V29.8901L139.779 30.6272V32.6962C139.754 33.1193 139.822 33.5428 139.977 33.9363C140.132 34.3298 140.371 34.6835 140.677 34.972H140.633Z" fill="black"/>
<path d="M168.275 29.6249L168.18 29.5732L168.23 29.4827C168.398 29.1927 168.643 28.9572 168.937 28.8038C169.216 28.6678 169.52 28.5971 169.829 28.5969C170.111 28.5902 170.391 28.6523 170.644 28.778C170.951 28.9354 171.207 29.1775 171.383 29.4762L171.434 29.5732L171.339 29.6185C171.061 29.7755 170.815 29.9838 170.613 30.2327C170.305 30.5729 170.061 30.9673 169.893 31.3965L169.804 31.6293L169.708 31.3965C169.556 30.9872 169.326 30.6117 169.033 30.2909C168.821 30.0301 168.565 29.811 168.275 29.6443V29.6249ZM180.211 29.6249C180.204 29.4884 180.226 29.352 180.276 29.2249C180.325 29.0977 180.401 28.9828 180.498 28.8879C180.585 28.7927 180.692 28.718 180.811 28.6689C180.93 28.6197 181.057 28.5974 181.186 28.6034C181.363 28.5981 181.539 28.6344 181.7 28.7095C181.862 28.7847 182.004 28.8966 182.115 29.0366C182.394 29.4283 182.531 29.9055 182.504 30.3879C182.523 30.8464 182.399 31.2994 182.147 31.681C182.05 31.8379 181.914 31.9668 181.754 32.0551C181.593 32.1434 181.413 32.1883 181.23 32.1853C181.043 32.1844 180.857 32.1437 180.686 32.0657C180.515 31.9878 180.362 31.8744 180.237 31.7327L180.211 29.6249ZM157.027 32.9418H163.441C163.615 32.9516 163.788 32.915 163.943 32.8355C164.098 32.7561 164.231 32.6367 164.326 32.4892L164.39 32.3857L164.918 32.9418H169.173C169.276 32.9441 169.377 32.9212 169.469 32.875C169.562 32.8289 169.641 32.7608 169.702 32.6767L169.734 32.6443L169.816 32.5797L169.874 32.6508C169.938 32.7372 170.021 32.8081 170.116 32.8584C170.21 32.9087 170.315 32.9372 170.422 32.9418H175.077C175.253 32.9429 175.427 32.904 175.585 32.8279C175.744 32.7518 175.884 32.6404 175.995 32.5021L176.058 32.418L176.536 32.9418H178.975C179.282 32.9476 179.579 32.8316 179.803 32.6185L179.88 32.5474L179.937 32.6314C180.111 32.844 180.33 33.013 180.579 33.1252C180.828 33.2374 181.098 33.2896 181.37 33.278C181.701 33.2843 182.029 33.2122 182.327 33.0674C182.626 32.9226 182.887 32.7091 183.09 32.4439C183.559 31.815 183.8 31.0406 183.771 30.2521C183.793 29.8511 183.727 29.4502 183.579 29.0781C183.43 28.7059 183.202 28.3716 182.912 28.0991C182.445 27.6959 181.849 27.4817 181.236 27.4978C180.667 27.4696 180.103 27.6307 179.631 27.9568C179.385 28.1499 179.19 28.401 179.061 28.6883C178.932 28.9756 178.874 29.2905 178.893 29.6055V31.487C178.891 31.5741 178.857 31.6573 178.797 31.7198C178.765 31.7542 178.727 31.7817 178.684 31.8006C178.641 31.8195 178.595 31.8294 178.549 31.8297H176.243V27.6271H174.969V31.4482C174.97 31.4982 174.96 31.5477 174.94 31.5934C174.92 31.6391 174.891 31.68 174.854 31.7133C174.823 31.7533 174.782 31.7848 174.735 31.8051C174.688 31.8254 174.638 31.8338 174.587 31.8297H171.027L171.065 31.7004C171.2 31.3122 171.417 30.959 171.702 30.6659C171.983 30.3697 172.307 30.119 172.663 29.9224L172.772 29.6249C172.543 28.9468 172.094 28.3677 171.498 27.9827C171.02 27.662 170.459 27.4931 169.887 27.4978C169.31 27.4956 168.744 27.6472 168.243 27.9374C167.587 28.3153 167.094 28.9288 166.861 29.6573L166.988 29.9418C167.374 30.1255 167.715 30.3925 167.988 30.7241C168.237 31.0087 168.431 31.3375 168.562 31.6939L168.606 31.8232H164.645V31.7133V27.64H163.339V31.4612C163.344 31.5518 163.317 31.6412 163.262 31.7133C163.224 31.7526 163.179 31.7837 163.128 31.8048C163.078 31.8259 163.024 31.8366 162.97 31.8362H157.32C157.083 31.8342 156.856 31.7419 156.683 31.5775C156.587 31.4883 156.511 31.3792 156.461 31.2576C156.41 31.136 156.386 31.0047 156.39 30.8728V27.64H155.116V30.8728C155.107 31.1757 155.167 31.4766 155.291 31.7523C155.414 32.0281 155.599 32.2713 155.83 32.4633C156.18 32.7789 156.635 32.9476 157.103 32.9353L157.027 32.9418Z" fill="black"/>
<path d="M144.091 27.6337H142.792V28.9656H144.091V27.6337Z" fill="black"/>
<path d="M151.301 33.9957H150.002V35.3276H151.301V33.9957Z" fill="black"/>
<path d="M160.524 33.9957H159.224V35.3276H160.524V33.9957Z" fill="black"/>
<path d="M129.028 33.9957H127.729V35.3276H129.028V33.9957Z" fill="black"/>
<path d="M102.475 25.1444H101.175V26.4763H102.475V25.1444Z" fill="black"/>
<path d="M93.7169 25.1444H92.4175V26.4763H93.7169V25.1444Z" fill="black"/>
</g>
<defs>
<clipPath id="clip0_227_1400">
<rect width="207" height="75" fill="white"/>
</clipPath>
</defs>
</svg>
