<svg width="152" height="55" viewBox="0 0 152 55" fill="none" xmlns="http://www.w3.org/2000/svg">
<g clip-path="url(#clip0_227_1463)">
<path d="M150.597 53.5444H57.0585V1.47931H68.4327H150.597V53.5444ZM152 0.0237069H55.618V53.5491H43.1353V31.8573H41.7322V53.5491H29.2167V1.47931H35.3435V0.0284483H27.7996V53.5491H15.3543V0H13.9513V53.5491H1.40308V0H0V55H152V0.0237069Z" fill="black"/>
<path d="M43.1212 0.0473633H41.7041V25.262H43.1212V0.0473633Z" fill="black"/>
<path d="M71.5569 31.1082V35.584H72.4456V29.7332H71.3979L69.8639 32.706H69.8125L68.2784 29.7332H67.184V35.584H68.068V31.1082H68.1101L68.559 32.0564L69.8125 34.3939L71.0659 32.0564L71.5195 31.1082H71.5569Z" fill="black"/>
<path d="M76.3741 34.8633V35.5603H77.2674V31.2219H76.3741V34.1379C76.3741 34.6499 75.9064 34.8918 75.4387 34.8918C74.8915 34.8918 74.6203 34.5409 74.6203 33.8818V31.2219H73.727V33.9956C73.727 35.0672 74.2415 35.6788 75.1301 35.6788C75.3913 35.697 75.651 35.6262 75.868 35.4776C76.0849 35.329 76.2466 35.1111 76.3274 34.8586H76.3648L76.3741 34.8633Z" fill="black"/>
<path d="M79.6761 30.0366H78.8763V30.8189C78.8763 31.1177 78.7781 31.2457 78.4788 31.2457H78.1046V31.9901H78.7687V34.6547C78.7555 34.7825 78.7706 34.9118 78.8129 35.0329C78.8553 35.1541 78.9238 35.2641 79.0134 35.355C79.103 35.4458 79.2116 35.5153 79.3311 35.5582C79.4506 35.6011 79.578 35.6164 79.7041 35.603H80.4805V34.8349H79.6527V31.9901H80.546V31.2267H79.6527L79.6761 30.0366Z" fill="black"/>
<path d="M82.515 29.828C82.515 29.5483 82.3606 29.3539 81.9911 29.3539C81.6217 29.3539 81.4626 29.553 81.4626 29.828V29.9703C81.4626 30.2453 81.6263 30.4444 81.9911 30.4444C82.3559 30.4444 82.515 30.2405 82.515 29.9703V29.828Z" fill="black"/>
<path d="M82.4308 31.2267H81.5375V35.584H82.4308V31.2267Z" fill="black"/>
<path d="M84.6055 34.138V32.6587C84.6055 32.213 85.0311 31.9143 85.5737 31.9143C85.7157 31.9102 85.857 31.9369 85.9882 31.9925C86.1193 32.0481 86.2372 32.1314 86.3341 32.2368C86.431 32.3422 86.5047 32.4673 86.5501 32.6038C86.5956 32.7403 86.6119 32.8851 86.5979 33.0285V33.7824C86.611 33.9244 86.5945 34.0676 86.5496 34.2028C86.5047 34.338 86.4323 34.4621 86.337 34.5671C86.2418 34.6721 86.1259 34.7557 85.9969 34.8125C85.8678 34.8692 85.7284 34.8979 85.5877 34.8966C85.0452 34.8966 84.6196 34.5932 84.6196 34.1522L84.6055 34.138ZM87.5426 33.3936C87.5426 31.9712 86.9206 31.1177 85.8449 31.1177C85.5844 31.1068 85.3274 31.1818 85.1124 31.3314C84.8974 31.4809 84.736 31.6971 84.6523 31.9475H84.6102V29.3966H83.7169V35.5604H84.6102V34.8634H84.6523C84.7404 35.1111 84.9038 35.3241 85.119 35.4715C85.3342 35.6189 85.59 35.6932 85.8496 35.6837C86.9253 35.6837 87.5473 34.835 87.5473 33.4031L87.5426 33.3936Z" fill="black"/>
<path d="M93.8565 34.0241C93.8646 34.1285 93.8494 34.2335 93.812 34.3311C93.7747 34.4288 93.716 34.5167 93.6405 34.5882C93.565 34.6597 93.4746 34.7131 93.3759 34.7443C93.2773 34.7755 93.173 34.7838 93.0708 34.7685H91.4806V32.9905H93.0708C93.1718 32.9784 93.2741 32.989 93.3706 33.0216C93.4671 33.0542 93.5553 33.1079 93.629 33.179C93.7027 33.2501 93.76 33.3367 93.7969 33.4328C93.8338 33.5289 93.8493 33.632 93.8424 33.7349V34.0194L93.8565 34.0241ZM91.4946 30.5439H92.9305C93.0253 30.5317 93.1216 30.541 93.2125 30.5712C93.3033 30.6013 93.3865 30.6516 93.4558 30.7183C93.5252 30.785 93.5791 30.8664 93.6136 30.9568C93.6481 31.0472 93.6624 31.1442 93.6554 31.2409V31.5112C93.6616 31.6074 93.6468 31.7039 93.612 31.7937C93.5772 31.8835 93.5232 31.9644 93.4539 32.0305C93.3846 32.0967 93.3018 32.1465 93.2113 32.1764C93.1208 32.2063 93.0249 32.2155 92.9305 32.2034H91.4946V30.5439ZM93.6367 32.5306V32.4784C93.7836 32.4674 93.9267 32.4261 94.0572 32.3571C94.1878 32.288 94.3031 32.1925 94.3959 32.0766C94.4888 31.9607 94.5573 31.8268 94.5972 31.6831C94.6372 31.5394 94.6477 31.3889 94.6282 31.2409C94.6411 31.0362 94.6102 30.8311 94.5377 30.6397C94.4651 30.4482 94.3525 30.275 94.2077 30.1317C94.0629 29.9885 93.8892 29.8788 93.6986 29.81C93.508 29.7412 93.305 29.715 93.1035 29.7331H90.5686V35.5603H93.3748C93.5819 35.5513 93.7851 35.5003 93.9724 35.4102C94.1597 35.3201 94.3273 35.1928 94.4651 35.0358C94.6029 34.8788 94.7083 34.6954 94.7749 34.4963C94.8414 34.2973 94.8679 34.0867 94.8527 33.8771C94.863 33.5363 94.7417 33.2049 94.5145 32.9534C94.2874 32.7019 93.9725 32.5502 93.6367 32.5306Z" fill="black"/>
<path d="M96.7983 31.2267H95.905V35.584H96.7983V31.2267Z" fill="black"/>
<path d="M96.8824 29.828C96.8824 29.5483 96.7281 29.3539 96.3586 29.3539C95.9892 29.3539 95.8301 29.553 95.8301 29.828V29.9703C95.8301 30.2453 95.9938 30.4444 96.3586 30.4444C96.7234 30.4444 96.8824 30.2405 96.8824 29.9703V29.828Z" fill="black"/>
<path d="M99.0152 31.9427H98.9731V31.2267H98.0798V35.5841H98.9731V32.6681C98.9731 32.156 99.4408 31.9142 99.9084 31.9142C100.456 31.9142 100.708 32.2556 100.708 32.9336V35.5603H101.606V32.8151C101.606 31.7435 101.087 31.1224 100.203 31.1224C99.9425 31.1075 99.6842 31.1796 99.4679 31.3278C99.2517 31.4759 99.0893 31.692 99.0058 31.9427H99.0152Z" fill="black"/>
<path d="M105.974 33.1897L106.798 30.6104H106.84L107.663 33.1897H105.974ZM106.26 29.7379L104.295 35.5604H105.231L105.731 33.9815H107.869L108.411 35.5604H109.379L107.424 29.7142L106.26 29.7379Z" fill="black"/>
<path d="M112.059 31.9143C112.201 31.9102 112.342 31.9369 112.474 31.9925C112.605 32.0481 112.723 32.1314 112.82 32.2368C112.916 32.3422 112.99 32.4673 113.036 32.6038C113.081 32.7403 113.097 32.8851 113.083 33.0285V33.7824C113.097 33.9256 113.08 34.0701 113.034 34.2062C112.988 34.3424 112.915 34.4672 112.818 34.5725C112.721 34.6777 112.603 34.761 112.473 34.8169C112.342 34.8727 112.201 34.8999 112.059 34.8966C111.517 34.8966 111.091 34.5932 111.091 34.1522V32.6587C111.091 32.2177 111.517 31.9143 112.059 31.9143ZM111.091 29.3966H110.198V35.5604H111.091V34.8634H111.133C111.221 35.1107 111.385 35.323 111.6 35.4696C111.815 35.6163 112.071 35.6896 112.33 35.6789C113.401 35.6789 114.028 34.835 114.028 33.4031C114.028 31.9712 113.401 31.1225 112.33 31.1225C112.07 31.1099 111.813 31.183 111.597 31.3308C111.381 31.4787 111.219 31.6933 111.133 31.9427H111.091V29.3966Z" fill="black"/>
<path d="M117.737 34.138C117.737 34.5837 117.311 34.8824 116.769 34.8824C116.627 34.8864 116.485 34.8598 116.354 34.8042C116.223 34.7486 116.105 34.6653 116.008 34.5599C115.911 34.4545 115.838 34.3293 115.792 34.1928C115.747 34.0563 115.73 33.9115 115.744 33.7682V33.0238C115.731 32.8805 115.748 32.7361 115.794 32.5999C115.84 32.4637 115.913 32.3389 116.01 32.2337C116.107 32.1284 116.224 32.0451 116.355 31.9893C116.486 31.9334 116.627 31.9062 116.769 31.9095C117.311 31.9095 117.737 32.213 117.737 32.6539V34.138ZM117.737 31.938H117.695C117.609 31.6886 117.446 31.4739 117.231 31.3261C117.015 31.1782 116.758 31.1051 116.497 31.1177C115.422 31.1177 114.8 31.9617 114.8 33.3936C114.8 34.8255 115.422 35.6742 116.497 35.6742C116.757 35.6853 117.014 35.6116 117.229 35.4639C117.445 35.3163 117.608 35.1025 117.695 34.8539H117.737V35.5746H118.63V29.3966H117.737V31.9617V31.938Z" fill="black"/>
<path d="M122.489 34.1379C122.489 34.6499 122.021 34.8918 121.577 34.8918C121.029 34.8918 120.758 34.5409 120.758 33.8771V31.2219H119.865V33.9956C119.865 35.0672 120.379 35.6741 121.268 35.6741C121.528 35.6918 121.787 35.6213 122.004 35.4737C122.221 35.3261 122.383 35.1097 122.465 34.8586H122.493V35.5603H123.387V31.2219H122.493V34.1379H122.489Z" fill="black"/>
<path d="M125.557 29.3966H124.663V34.6785C124.65 34.8023 124.665 34.9275 124.707 35.0447C124.748 35.1618 124.815 35.268 124.903 35.3551C124.991 35.4422 125.097 35.5081 125.213 35.5477C125.33 35.5874 125.454 35.5998 125.575 35.5841H126.146V34.8397H125.557V29.3966Z" fill="black"/>
<path d="M129.28 34.2944C129.28 34.7212 128.868 34.9867 128.321 34.9867C127.876 34.9867 127.596 34.7875 127.596 34.4035V34.2518C127.596 33.8725 127.9 33.6638 128.531 33.6638H129.284V34.2944H129.28ZM130.173 32.6492C130.173 31.7009 129.56 31.1272 128.461 31.1272C128.142 31.1023 127.822 31.1682 127.538 31.3172C127.254 31.4663 127.016 31.6928 126.852 31.9712L127.385 32.4453C127.485 32.2617 127.632 32.1094 127.811 32.0048C127.99 31.9003 128.194 31.8477 128.4 31.8526C128.517 31.8329 128.638 31.8414 128.751 31.8774C128.864 31.9134 128.968 31.9759 129.053 32.0599C129.138 32.1439 129.202 32.247 129.241 32.3609C129.279 32.4748 129.291 32.5963 129.275 32.7156V33.0854H128.508C127.315 33.0854 126.688 33.5263 126.688 34.3893C126.679 34.5712 126.709 34.753 126.776 34.9219C126.843 35.0907 126.947 35.2425 127.078 35.3665C127.21 35.4904 127.367 35.5835 127.538 35.6392C127.709 35.6948 127.89 35.7116 128.068 35.6884C128.338 35.7155 128.609 35.6478 128.835 35.4968C129.062 35.3458 129.23 35.1205 129.312 34.8587H129.354C129.357 34.9581 129.38 35.0559 129.42 35.1465C129.461 35.2372 129.518 35.3188 129.59 35.3866C129.662 35.4545 129.746 35.5073 129.838 35.542C129.93 35.5767 130.028 35.5926 130.126 35.5888H130.622V34.8397H130.154V32.6539L130.173 32.6492Z" fill="black"/>
<path d="M134.504 31.9284V31.2267H131.234V31.9711H133.447L131.16 34.8444V35.584H134.56V34.8349H132.184L134.504 31.9284Z" fill="black"/>
<path d="M135.944 30.4444C136.314 30.4444 136.468 30.2453 136.468 29.9703V29.828C136.468 29.553 136.314 29.3539 135.944 29.3539C135.575 29.3539 135.411 29.5578 135.411 29.828V29.9703C135.411 30.2453 135.579 30.4444 135.944 30.4444Z" fill="black"/>
<path d="M136.388 31.2267H135.495V35.584H136.388V31.2267Z" fill="black"/>
<path d="M140.724 34.8349H138.348L140.668 31.9284V31.2267H137.399V31.9711H139.611L137.324 34.8444V35.584H140.724V34.8349Z" fill="black"/>
<path d="M67.184 45.6405H68.1101V43.0944H70.4625V42.2552H68.1101V40.6289H70.7572V39.7897H67.184V45.6405Z" fill="black"/>
<path d="M74.2508 43.8245C74.2508 44.5974 73.8393 44.9862 73.2359 44.9862C72.6326 44.9862 72.2164 44.5974 72.2164 43.8245V43.0896C72.2164 42.3215 72.6279 41.9327 73.2359 41.9327C73.8439 41.9327 74.2508 42.3168 74.2508 43.0896V43.8245ZM73.2359 41.1788C72.0433 41.1788 71.2763 42.0702 71.2763 43.4594C71.2763 44.8487 72.0433 45.74 73.2359 45.74C74.4286 45.74 75.1956 44.8534 75.1956 43.4594C75.1956 42.0655 74.4239 41.1788 73.2359 41.1788Z" fill="black"/>
<path d="M78.7688 44.1991C78.7688 44.7065 78.3011 44.953 77.8568 44.953C77.3096 44.953 77.0383 44.5974 77.0383 43.9384V41.2784H76.145V44.0522C76.145 45.1237 76.6595 45.7353 77.5481 45.7353C77.8092 45.7527 78.0685 45.6816 78.2853 45.5331C78.5021 45.3845 78.6639 45.1671 78.7454 44.9151H78.7734V45.6358H79.6667V41.2784H78.7734V44.1944L78.7688 44.1991Z" fill="black"/>
<path d="M83.0715 41.1789C82.8111 41.1648 82.5532 41.2372 82.3371 41.3853C82.1209 41.5334 81.9584 41.7489 81.8742 41.9992H81.8462V41.2785H80.9529V45.6406H81.8462V42.7246C81.8462 42.2126 82.3139 41.966 82.7816 41.966C83.3334 41.966 83.586 42.3121 83.586 42.9901V45.6358H84.4793V42.8716C84.4793 41.8001 83.9601 41.1742 83.0762 41.1742L83.0715 41.1789Z" fill="black"/>
<path d="M88.3938 44.2086C88.3938 44.6495 87.9682 44.953 87.4257 44.953C87.2836 44.957 87.1423 44.9304 87.0112 44.8748C86.8801 44.8192 86.7622 44.7359 86.6653 44.6305C86.5683 44.5251 86.4947 44.3999 86.4492 44.2634C86.4037 44.1269 86.3875 43.9821 86.4015 43.8387V43.0801C86.3882 42.9369 86.405 42.7924 86.4508 42.6563C86.4966 42.5201 86.5702 42.3953 86.667 42.29C86.7637 42.1848 86.8814 42.1015 87.0121 42.0456C87.1429 41.9898 87.2838 41.9626 87.4257 41.9659C87.9682 41.9659 88.3938 42.2693 88.3938 42.7103V44.2038V44.2086ZM88.3938 42.0038H88.3517C88.2656 41.7548 88.1026 41.5406 87.887 41.3929C87.6713 41.2451 87.4145 41.1717 87.1545 41.1836C86.0788 41.1836 85.4567 42.0275 85.4567 43.4642C85.4567 44.9008 86.0788 45.7448 87.1545 45.7448C87.414 45.7543 87.6699 45.68 87.8851 45.5326C88.1003 45.3852 88.2637 45.1722 88.3517 44.9245H88.3938V45.6405H89.2871V39.4435H88.3938V42.0086V42.0038Z" fill="black"/>
<path d="M92.8276 44.3461C92.8276 44.7775 92.416 45.0431 91.8922 45.0431C91.4245 45.0431 91.1719 44.8392 91.1719 44.4551V44.3034C91.1719 43.9288 91.4759 43.7202 92.1073 43.7202H92.8603V44.3461H92.8276ZM93.7255 42.7056C93.7255 41.7573 93.1082 41.1788 92.0091 41.1788C91.6903 41.1556 91.3713 41.2222 91.0874 41.3711C90.8035 41.52 90.5657 41.7455 90.4002 42.0228L90.9334 42.5206C91.0328 42.3371 91.18 42.1847 91.359 42.0802C91.5379 41.9757 91.7418 41.923 91.9483 41.928C92.547 41.928 92.8276 42.2362 92.8276 42.7672V43.1465H92.0559C90.8679 43.1465 90.2365 43.5875 90.2365 44.4504C90.2277 44.6321 90.2581 44.8135 90.3257 44.982C90.3934 45.1504 90.4965 45.3019 90.628 45.4257C90.7594 45.5495 90.916 45.6426 91.0867 45.6985C91.2575 45.7545 91.4382 45.7719 91.6162 45.7495C91.8861 45.7775 92.1573 45.7102 92.3839 45.5591C92.6106 45.4079 92.7788 45.1821 92.8603 44.9198H92.9024C92.9054 45.0192 92.9278 45.1171 92.9683 45.2077C93.0088 45.2983 93.0665 45.3799 93.1383 45.4478C93.21 45.5156 93.2943 45.5684 93.3862 45.6031C93.4782 45.6378 93.576 45.6538 93.6741 45.65H94.1745V44.8961H93.7068V42.7103L93.7255 42.7056Z" fill="black"/>
<path d="M96.1622 40.0884H95.3578V40.8517C95.3578 41.1552 95.2596 41.2785 94.9649 41.2785H94.6048V42.0229H95.2689V44.6875C95.2557 44.8153 95.2708 44.9445 95.3131 45.0657C95.3555 45.1868 95.4239 45.2969 95.5136 45.3878C95.6032 45.4786 95.7118 45.5481 95.8313 45.591C95.9508 45.6339 96.0782 45.6492 96.2043 45.6358H96.9853V44.8914H96.1575V42.0229H97.0508V41.2785H96.1575L96.1622 40.0884Z" fill="black"/>
<path d="M98.9169 41.2784H98.0236V45.6358H98.9169V41.2784Z" fill="black"/>
<path d="M98.4726 39.4056C98.1031 39.4056 97.9441 39.6048 97.9441 39.8798V40.0268C97.9441 40.3018 98.1078 40.5009 98.4726 40.5009C98.8374 40.5009 98.9964 40.297 98.9964 40.0268V39.8798C98.9964 39.6048 98.8421 39.4056 98.4726 39.4056Z" fill="black"/>
<path d="M100.853 43.0896C100.853 42.3215 101.265 41.9327 101.868 41.9327C102.471 41.9327 102.888 42.3168 102.888 43.0896V43.8245C102.888 44.5974 102.476 44.9862 101.868 44.9862C101.26 44.9862 100.853 44.5974 100.853 43.8245V43.0896ZM99.9178 43.4594C99.9178 44.8534 100.689 45.74 101.877 45.74C103.065 45.74 103.828 44.8534 103.828 43.4594C103.828 42.0655 103.061 41.1788 101.868 41.1788C100.675 41.1788 99.9084 42.0702 99.9084 43.4594H99.9178Z" fill="black"/>
<path d="M106.952 41.1789C106.691 41.164 106.433 41.2361 106.217 41.3843C106 41.5325 105.838 41.7485 105.755 41.9992H105.698V41.2785H104.805V45.6406H105.698V42.7246C105.698 42.2126 106.166 41.966 106.634 41.966C107.181 41.966 107.434 42.3121 107.434 42.9901V45.6358H108.327V42.8716C108.327 41.8001 107.812 41.1742 106.924 41.1742L106.952 41.1789Z" fill="black"/>
<path d="M129.916 18.6383H128.049V19.4301H129.916V18.6383Z" fill="black"/>
<path d="M71.1407 25.3948H69.2746V26.1866H71.1407V25.3948Z" fill="black"/>
<path d="M69.9714 8.53918H68.1053V9.33099H69.9714V8.53918Z" fill="black"/>
<path d="M90.7323 9.32632H92.2991V8.85218H91.2093V8.53451C91.2106 8.45315 91.243 8.37547 91.2997 8.31794C91.3565 8.2604 91.4331 8.22754 91.5133 8.22632H92.3037V7.74744H91.5087C91.3043 7.75226 91.1095 7.83673 90.965 7.9833C90.8204 8.12987 90.7371 8.32728 90.7323 8.53451V9.30735V9.32632Z" fill="black"/>
<path d="M85.0373 18.0459L85.0153 24.1338L85.9741 24.1374L85.9961 18.0495L85.0373 18.0459Z" fill="black"/>
<path d="M69.0407 13.3375H68.9939C68.7964 13.4194 68.5854 13.4628 68.3719 13.4655C68.2314 13.4716 68.0914 13.4444 67.9631 13.3859C67.8348 13.3275 67.7217 13.2394 67.633 13.1288C67.4405 12.8739 67.3428 12.5582 67.357 12.2375C67.3447 11.9079 67.453 11.5854 67.661 11.3319C67.7555 11.2182 67.8738 11.1273 68.0073 11.0658C68.1408 11.0043 68.2861 10.9737 68.4327 10.9763C68.6226 10.9799 68.8106 11.0152 68.9893 11.0806H69.0314V13.2995L69.0407 13.3375ZM69.5084 10.0801L69.153 10.3599H69.1109C68.8449 10.2437 68.5587 10.1825 68.269 10.1797C68.0272 10.1748 67.787 10.2212 67.5639 10.3159C67.3408 10.4106 67.1397 10.5516 66.9735 10.7297C66.5965 11.1407 66.3948 11.686 66.4123 12.247C66.3986 12.5446 66.4474 12.8417 66.5554 13.1188C66.6635 13.3959 66.8283 13.6466 67.039 13.8543C67.3464 14.1348 67.7479 14.2858 68.1615 14.2763C68.5365 14.2774 68.8997 14.1429 69.1857 13.897L69.2325 13.859L69.2792 13.9017C69.4508 14.0792 69.6842 14.1814 69.9293 14.1862H72.7916C72.9182 14.1912 73.0439 14.1633 73.1568 14.1052C73.2698 14.0471 73.3662 13.9607 73.437 13.8543L73.4931 13.7737L73.8346 14.1862H75.6118C75.7391 14.1915 75.8656 14.1638 75.9793 14.1058C76.0931 14.0477 76.1903 13.9611 76.2619 13.8543L76.3133 13.7737L76.6594 14.1862H78.4226C78.5512 14.1876 78.6784 14.1598 78.7949 14.1048C78.9115 14.0498 79.0144 13.9691 79.0961 13.8685L79.1475 13.8021L79.4703 14.1814H82.094C82.2213 14.1868 82.3478 14.1591 82.4615 14.101C82.5753 14.0429 82.6726 13.9564 82.7441 13.8495L82.7909 13.7784L83.1744 14.1814H84.9142C85.0407 14.1864 85.1665 14.1585 85.2794 14.1005C85.3924 14.0424 85.4888 13.956 85.5596 13.8495L85.6111 13.7784L85.9852 14.1814H87.725C87.8405 14.183 87.955 14.1602 88.0612 14.1145C88.1675 14.0688 88.2633 14.0012 88.3424 13.9159C88.5065 13.7447 88.5973 13.5146 88.5949 13.2758V10.2982H87.6595V13.1431C87.664 13.1774 87.6607 13.2122 87.6499 13.245C87.6391 13.2778 87.6211 13.3077 87.5972 13.3324C87.5733 13.3571 87.5442 13.3759 87.512 13.3875C87.4799 13.399 87.4456 13.403 87.4117 13.3991H85.7747V13.2189C85.7785 13.1684 85.7785 13.1177 85.7747 13.0672V10.2935H84.8394V13.1383C84.8438 13.1726 84.8406 13.2075 84.8298 13.2403C84.819 13.2731 84.8009 13.303 84.777 13.3277C84.7531 13.3523 84.724 13.3712 84.6919 13.3827C84.6597 13.3943 84.6254 13.3983 84.5915 13.3944H82.9639V13.3185C82.9639 13.2379 82.9639 13.1241 82.9639 12.9866V10.2935H82.0285V13.1383C82.033 13.1726 82.0297 13.2075 82.0189 13.2403C82.0081 13.2731 81.9901 13.303 81.9662 13.3277C81.9423 13.3523 81.9132 13.3712 81.881 13.3827C81.8489 13.3943 81.8145 13.3983 81.7807 13.3944H79.3112V10.3125H78.3759V13.1573C78.3803 13.1916 78.377 13.2264 78.3663 13.2593C78.3554 13.2921 78.3374 13.3219 78.3135 13.3466C78.2896 13.3713 78.2605 13.3901 78.2284 13.4017C78.1962 13.4133 78.1619 13.4172 78.128 13.4133H76.4677V13.2332C76.4714 13.1827 76.4714 13.1319 76.4677 13.0814V10.2935H75.5089V13.1383C75.5134 13.1726 75.5101 13.2075 75.4993 13.2403C75.4885 13.2731 75.4705 13.303 75.4466 13.3277C75.4227 13.3523 75.3935 13.3712 75.3614 13.3827C75.3292 13.3943 75.2949 13.3983 75.261 13.3944H73.6335V13.3185C73.639 13.2427 73.639 13.1667 73.6335 13.0909V10.2935H72.6981V13.1383C72.7026 13.1726 72.6993 13.2075 72.6885 13.2403C72.6777 13.2731 72.6596 13.303 72.6357 13.3277C72.6118 13.3523 72.5827 13.3712 72.5506 13.3827C72.5184 13.3943 72.4841 13.3983 72.4502 13.3944H70.2099C70.1807 13.3946 70.1517 13.3884 70.125 13.3761C70.0984 13.3638 70.0747 13.3458 70.0556 13.3232C70.0306 13.2998 70.011 13.2711 69.998 13.2392C69.9851 13.2072 69.9792 13.1728 69.9808 13.1383V10.0659H69.5131L69.5084 10.0801Z" fill="black"/>
<path d="M90.9241 11.3319C91.0082 11.2254 91.1161 11.1406 91.2389 11.0846C91.3617 11.0285 91.4958 11.0028 91.6303 11.0095C91.8026 11.0101 91.9688 11.0742 92.098 11.1897C92.1759 11.2602 92.2374 11.3474 92.2778 11.445C92.3183 11.5426 92.3367 11.6482 92.3318 11.7539V13.3849H91.7238C91.5777 13.3915 91.4319 13.3661 91.2963 13.3104C91.1608 13.2548 91.0386 13.1703 90.9381 13.0625C90.7357 12.8252 90.6318 12.5176 90.6481 12.2043C90.6327 11.8915 90.7253 11.583 90.91 11.3319H90.9241ZM96.0313 11.7587C96.0262 11.6585 96.0424 11.5585 96.0787 11.4653C96.115 11.372 96.1706 11.2878 96.2417 11.2181C96.3071 11.1485 96.3864 11.0938 96.4743 11.0578C96.5623 11.0219 96.6568 11.0054 96.7515 11.0095C96.8812 11.0065 97.0099 11.033 97.1281 11.0872C97.2463 11.1413 97.351 11.2217 97.4344 11.3224C97.6353 11.6131 97.7341 11.9637 97.715 12.3181C97.7313 12.654 97.6412 12.9863 97.4577 13.2664C97.3852 13.3816 97.2848 13.476 97.1661 13.5407C97.0474 13.6054 96.9143 13.6383 96.7796 13.6362C96.643 13.6353 96.5082 13.6057 96.3834 13.5494C96.2587 13.4931 96.1468 13.4113 96.0547 13.3091V11.7539L96.0313 11.7587ZM91.5788 14.191H92.3178V14.2716C92.2196 15.0492 91.7004 15.4427 90.7791 15.4427C90.5832 15.4404 90.3878 15.423 90.1945 15.3906L90.6294 16.2298H90.9475C91.2059 16.2284 91.4633 16.1965 91.7145 16.1349C92.0625 16.051 92.3841 15.8798 92.6499 15.6371C92.8405 15.4587 92.9942 15.2435 93.1018 15.0042C93.2094 14.7648 93.2688 14.5061 93.2766 14.2431V14.172H95.1473C95.3713 14.1761 95.5879 14.091 95.7507 13.9349L95.8068 13.8828L95.8536 13.9444C95.981 14.1004 96.1423 14.2243 96.3249 14.3065C96.5074 14.3888 96.7063 14.4271 96.9059 14.4186C97.1486 14.4234 97.3891 14.3701 97.6077 14.263C97.8263 14.1559 98.0169 13.998 98.164 13.8022C98.5109 13.3539 98.6943 12.7978 98.6831 12.2281C98.7002 11.9323 98.6514 11.6364 98.5405 11.3623C98.4296 11.0882 98.2594 10.8429 98.0424 10.6444C97.6993 10.3499 97.2617 10.193 96.8123 10.2035C96.3944 10.1809 95.981 10.3011 95.6384 10.5449C95.4578 10.6864 95.3139 10.8706 95.2194 11.0812C95.1249 11.2919 95.0825 11.5228 95.0959 11.7539V13.1289C95.0967 13.1615 95.0909 13.1939 95.0788 13.224C95.0668 13.2542 95.0487 13.2816 95.0257 13.3043C95.0014 13.3293 94.9722 13.349 94.94 13.362C94.9078 13.3751 94.8733 13.3813 94.8387 13.3802H93.3046V11.7539C93.3144 11.5131 93.2658 11.2735 93.1631 11.0561C93.0604 10.8387 92.9066 10.6501 92.7153 10.5069C92.3967 10.2938 92.0213 10.1846 91.6396 10.194C91.3821 10.1852 91.1254 10.2284 90.8845 10.3212C90.6436 10.414 90.4233 10.5545 90.2366 10.7345C90.0574 10.9338 89.9193 11.1672 89.8301 11.4212C89.741 11.6752 89.7027 11.9447 89.7174 12.2138C89.7039 12.6959 89.8579 13.1674 90.1524 13.5462C90.3267 13.7564 90.5466 13.9231 90.7948 14.0333C91.0429 14.1435 91.3129 14.1942 91.5835 14.1815L91.5788 14.191Z" fill="black"/>
<path d="M68.8022 24.219V24.1478H70.846C70.972 24.1487 71.0965 24.1211 71.2106 24.0669C71.3247 24.0128 71.4254 23.9335 71.5055 23.8349C71.6412 23.6662 71.7155 23.4552 71.7159 23.2375V20.2646H70.7805V23.1095C70.7811 23.142 70.7751 23.1743 70.7631 23.2044C70.751 23.2346 70.7331 23.262 70.7104 23.2849C70.686 23.3099 70.6568 23.3295 70.6246 23.3426C70.5924 23.3556 70.558 23.3618 70.5233 23.3608H68.8256V20.2646H67.8902V23.8823C67.8902 24.8875 67.3757 25.3948 66.3655 25.3948C66.209 25.3955 66.0527 25.3844 65.8978 25.3616L66.3141 26.1771H66.562C67.0878 26.1944 67.6054 26.0417 68.0399 25.7409C68.2766 25.5623 68.4707 25.3318 68.6075 25.0667C68.7443 24.8015 68.8205 24.5085 68.8303 24.2095L68.8022 24.219Z" fill="black"/>
<path d="M77.9176 21.725L77.8521 21.6918L77.8895 21.6254C78.0145 21.4205 78.1946 21.256 78.4086 21.1513C78.6127 21.0509 78.8366 20.999 79.0634 20.9996C79.269 20.9952 79.4726 21.0407 79.6574 21.1323C79.8822 21.2478 80.0703 21.4253 80.1999 21.6444L80.2373 21.7108L80.1672 21.7487C79.9586 21.8689 79.7757 22.0301 79.6293 22.2228C79.4074 22.4728 79.2302 22.76 79.1055 23.0715L79.0353 23.247L78.9699 23.0715C78.8549 22.7743 78.6868 22.501 78.4741 22.2655C78.3196 22.0716 78.1289 21.9105 77.9129 21.7914L77.9176 21.725ZM74.2883 23.8871C74.2883 24.8922 73.7785 25.3996 72.7683 25.3996H72.6093L72.9928 26.1819C73.5104 26.2091 74.0217 26.057 74.4426 25.7504C74.6795 25.5715 74.8739 25.3411 75.0115 25.0761C75.1491 24.8111 75.2263 24.5182 75.2377 24.219V24.1478H78.5723C78.6485 24.1503 78.7241 24.1339 78.7925 24.1C78.861 24.0662 78.9203 24.0158 78.9652 23.9534L79.026 23.906L79.0681 23.9534C79.1162 24.0172 79.1777 24.0694 79.248 24.1062C79.3183 24.1431 79.3958 24.1638 79.475 24.1668H82.8891C83.0154 24.1711 83.1409 24.1445 83.2549 24.0892C83.3689 24.0339 83.468 23.9516 83.5439 23.8491C83.6894 23.6875 83.7681 23.4753 83.7637 23.2565V18.0836L82.8283 18.5957V23.0905C82.8279 23.1559 82.8028 23.2187 82.7582 23.2659C82.708 23.3151 82.6408 23.3423 82.5711 23.3418H79.9286L79.9754 23.2328C80.0728 22.9473 80.2327 22.688 80.4431 22.4741C80.6525 22.2568 80.892 22.0716 81.154 21.9241L81.2335 21.7108C81.0681 21.212 80.7376 20.7865 80.2981 20.5065C79.9468 20.2726 79.5352 20.1489 79.1149 20.1509C78.6914 20.1467 78.2746 20.2581 77.9082 20.4733C77.4267 20.7485 77.0645 21.1969 76.8933 21.7297L76.9822 21.9384C77.2666 22.0752 77.5186 22.2725 77.7211 22.5168C77.8907 22.73 78.0206 22.9725 78.1046 23.2328L78.1374 23.3276H75.2377V20.2457H74.3023V23.8728L74.2883 23.8871Z" fill="black"/>
<path d="M89.7548 20.9427C90.118 20.9438 90.4673 21.0844 90.7323 21.3362C90.8553 21.4673 90.9511 21.6222 91.0137 21.7917C91.0764 21.9611 91.1048 22.1416 91.0971 22.3224V23.119C91.1017 23.1531 91.0985 23.1878 91.0877 23.2205C91.0769 23.2531 91.0588 23.2828 91.0348 23.3071C91.0108 23.3315 90.9815 23.3498 90.9493 23.3608C90.9171 23.3718 90.8828 23.375 90.8492 23.3703H88.5107V24.1763H91.2C91.3978 24.1737 91.5889 24.1035 91.7425 23.9772C91.7842 23.9463 91.818 23.9057 91.8407 23.8586L91.8781 23.7354L92.2429 24.1763H93.8892C94.0174 24.1771 94.1442 24.1485 94.26 24.0927C94.3758 24.0369 94.4777 23.9552 94.558 23.8539L94.6094 23.7923L94.9602 24.1763H99.7167L100.124 23.6548V23.3703H98.524C98.3475 23.3796 98.1718 23.3405 98.0154 23.257C97.859 23.1736 97.7278 23.0489 97.6354 22.8961C97.512 22.6872 97.4489 22.4474 97.453 22.2039C97.4298 22.0399 97.4445 21.8726 97.4959 21.7153C97.5472 21.558 97.6339 21.4149 97.749 21.2973C97.8641 21.1796 98.0046 21.0907 98.1594 21.0374C98.3141 20.9841 98.479 20.9679 98.641 20.9901C98.9074 20.9948 99.1726 21.0298 99.4314 21.0944V20.3026C99.1414 20.2147 98.8407 20.1684 98.5381 20.1651C98.0463 20.1479 97.5628 20.2962 97.163 20.5871C96.9417 20.7603 96.7652 20.9854 96.6487 21.2431C96.5322 21.5008 96.4792 21.7833 96.4943 22.0664C96.4927 22.3201 96.5355 22.5722 96.6205 22.8108C96.6647 22.9599 96.7292 23.1019 96.8123 23.2328L96.8965 23.3513H94.7357V20.2694H93.8003V23.0716C93.8018 23.1083 93.795 23.145 93.7804 23.1786C93.7658 23.2123 93.7439 23.2422 93.7162 23.266C93.693 23.2956 93.6629 23.319 93.6286 23.3339C93.5943 23.3488 93.5569 23.3548 93.5197 23.3513H92.0512V23.2755C92.0567 23.1918 92.0567 23.1078 92.0512 23.0242V22.1944C92.071 21.6693 91.8843 21.1576 91.532 20.772C91.3327 20.5651 91.0927 20.4029 90.8277 20.2959C90.5626 20.189 90.2784 20.1395 89.9933 20.1509C89.7821 20.1498 89.5711 20.1641 89.3619 20.1936V20.9522C89.4927 20.9429 89.624 20.9429 89.7548 20.9522V20.9427Z" fill="black"/>
<path d="M103.266 25.6461C103.743 26.0396 104.346 26.2391 104.959 26.2056H105.792C106.37 26.2271 106.938 26.0518 107.406 25.7078C107.626 25.5278 107.805 25.3015 107.931 25.0445C108.057 24.7875 108.127 24.5058 108.135 24.219V24.1526H110.207C110.334 24.1535 110.459 24.1259 110.574 24.0718C110.689 24.0177 110.79 23.9384 110.871 23.8397C111.007 23.6709 111.081 23.46 111.082 23.2423V20.2694H110.146V23.1142C110.144 23.1817 110.116 23.2457 110.068 23.2925C110.02 23.3394 109.956 23.3656 109.889 23.3655H108.154V20.2694H107.218V23.8871C107.24 24.111 107.209 24.3369 107.128 24.5463C107.046 24.7556 106.917 24.9425 106.751 25.0914C106.339 25.3321 105.864 25.4396 105.39 25.3996C104.899 25.44 104.408 25.3222 103.987 25.0629C103.836 24.9101 103.722 24.7254 103.65 24.522C103.579 24.3186 103.553 24.1018 103.575 23.8871V21.9194L102.64 22.4599V23.9772C102.621 24.2875 102.671 24.598 102.785 24.8866C102.899 25.1752 103.075 25.4346 103.299 25.6461H103.266Z" fill="black"/>
<path d="M123.564 21.725L123.494 21.687L123.532 21.6206C123.654 21.408 123.834 21.2353 124.051 21.1228C124.255 21.0231 124.479 20.9712 124.705 20.9711C124.913 20.9662 125.118 21.0117 125.304 21.1038C125.529 21.2193 125.717 21.3968 125.847 21.6159L125.884 21.687L125.814 21.7202C125.61 21.8353 125.429 21.9881 125.281 22.1706C125.055 22.4202 124.876 22.7094 124.752 23.0241L124.687 23.1948L124.617 23.0241C124.505 22.7239 124.336 22.4486 124.121 22.2133C123.966 22.0221 123.777 21.8614 123.564 21.7392V21.725ZM132.329 21.725C132.324 21.6248 132.34 21.5248 132.376 21.4316C132.413 21.3383 132.468 21.2541 132.539 21.1844C132.604 21.1146 132.682 21.0598 132.769 21.0238C132.856 20.9878 132.95 20.9714 133.044 20.9758C133.175 20.9719 133.304 20.9985 133.423 21.0536C133.541 21.1087 133.645 21.1908 133.727 21.2935C133.932 21.5807 134.033 21.9307 134.013 22.2844C134.027 22.6207 133.935 22.9529 133.751 23.2327C133.679 23.3478 133.58 23.4423 133.462 23.5071C133.344 23.5718 133.211 23.6047 133.077 23.6025C132.939 23.6019 132.803 23.572 132.678 23.5149C132.552 23.4577 132.44 23.3745 132.348 23.2706L132.329 21.725ZM115.305 24.1573H120.015C120.142 24.1645 120.269 24.1376 120.383 24.0794C120.497 24.0211 120.594 23.9336 120.665 23.8254L120.711 23.7495L121.1 24.1573H124.224C124.299 24.159 124.374 24.1422 124.441 24.1084C124.509 24.0745 124.567 24.0246 124.612 23.9629L124.635 23.9392L124.696 23.8918L124.738 23.9439C124.786 24.0073 124.846 24.0593 124.916 24.0962C124.985 24.133 125.062 24.1539 125.14 24.1573H128.559C128.688 24.1581 128.816 24.1296 128.932 24.0738C129.049 24.018 129.151 23.9363 129.233 23.8349L129.28 23.7732L129.63 24.1573H131.422C131.647 24.1616 131.865 24.0765 132.03 23.9202L132.086 23.8681L132.128 23.9297C132.255 24.0856 132.417 24.2096 132.599 24.2918C132.782 24.3741 132.98 24.4124 133.18 24.4038C133.423 24.4085 133.664 24.3556 133.883 24.2494C134.102 24.1432 134.294 23.9867 134.443 23.7922C134.788 23.331 134.964 22.7631 134.943 22.1849C134.959 21.8908 134.911 21.5968 134.802 21.3239C134.692 21.051 134.525 20.8058 134.312 20.606C133.97 20.3103 133.531 20.1533 133.082 20.165C132.663 20.1444 132.25 20.2625 131.903 20.5017C131.723 20.6432 131.579 20.8274 131.484 21.0381C131.39 21.2488 131.347 21.4797 131.361 21.7107V23.0905C131.36 23.1543 131.335 23.2154 131.291 23.2612C131.267 23.2864 131.239 23.3066 131.208 23.3204C131.176 23.3343 131.142 23.3415 131.108 23.3418H129.415V20.2599H128.48V23.062C128.48 23.0986 128.473 23.1349 128.458 23.1685C128.444 23.202 128.422 23.232 128.396 23.2564C128.372 23.2858 128.342 23.3089 128.308 23.3237C128.274 23.3386 128.236 23.3448 128.199 23.3418H125.585L125.613 23.2469C125.712 22.9623 125.871 22.7033 126.08 22.4883C126.287 22.2711 126.525 22.0872 126.787 21.9431L126.866 21.725C126.698 21.2276 126.368 20.803 125.931 20.5206C125.58 20.2854 125.168 20.1616 124.748 20.165C124.324 20.1634 123.908 20.2746 123.541 20.4875C123.059 20.7645 122.697 21.2145 122.526 21.7487L122.62 21.9573C122.903 22.092 123.153 22.2878 123.354 22.531C123.536 22.7397 123.679 22.9808 123.775 23.2422L123.808 23.337H120.898V23.2564V20.2693H119.94V23.0715C119.943 23.1379 119.923 23.2035 119.884 23.2564C119.855 23.2852 119.822 23.3081 119.785 23.3235C119.748 23.339 119.708 23.3468 119.668 23.3465H115.52C115.346 23.3451 115.179 23.2774 115.052 23.1568C114.982 23.0914 114.926 23.0114 114.889 22.9222C114.852 22.8331 114.834 22.7368 114.837 22.64V20.2693H113.902V22.64C113.895 22.8621 113.939 23.0828 114.03 23.285C114.121 23.4873 114.256 23.6656 114.426 23.8064C114.683 24.0378 115.017 24.1616 115.361 24.1525L115.305 24.1573Z" fill="black"/>
<path d="M105.806 20.2646H104.852V21.2414H105.806V20.2646Z" fill="black"/>
<path d="M111.1 24.9302H110.146V25.9069H111.1V24.9302Z" fill="black"/>
<path d="M117.872 24.9302H116.918V25.9069H117.872V24.9302Z" fill="black"/>
<path d="M94.7451 24.9302H93.791V25.9069H94.7451V24.9302Z" fill="black"/>
<path d="M75.247 18.4392H74.2929V19.4159H75.247V18.4392Z" fill="black"/>
<path d="M68.8163 18.4392H67.8622V19.4159H68.8163V18.4392Z" fill="black"/>
</g>
<defs>
<clipPath id="clip0_227_1463">
<rect width="152" height="55" fill="white"/>
</clipPath>
</defs>
</svg>
