<svg width="57" height="53" viewBox="0 0 57 53" fill="none" xmlns="http://www.w3.org/2000/svg">
<path d="M19.2924 29.1791C17.7464 27.0832 16.561 24.746 15.7847 22.263C13.9695 16.0456 14.9078 10.2997 19.0468 5.22613C20.0159 4.0106 21.225 3.00586 22.5994 2.27397C23.9738 1.54209 25.4842 1.09861 27.0375 0.970943C28.5908 0.843275 30.1539 1.03413 31.6302 1.5317C33.1064 2.02928 34.4646 2.82302 35.6207 3.86388C36.0416 4.22191 36.2608 4.17824 36.6292 3.86388C38.6667 1.97513 41.3347 0.904962 44.1181 0.859934C45.9844 0.838454 47.8285 1.26536 49.4939 2.10446C51.1594 2.94357 52.5971 4.17014 53.6853 5.68022C56.4941 9.26564 57.773 13.8078 57.2456 18.3247C56.8159 23.145 54.5535 27.1182 51.5982 30.7946L50.7213 31.8774C51.5772 31.8544 52.4183 32.1021 53.1241 32.5847C53.5297 32.8644 53.8391 33.2617 54.0101 33.7226C54.1811 34.1835 54.2055 34.6856 54.0799 35.1608C53.8729 36.0936 53.3572 36.9301 52.6155 37.536C47.6082 41.5704 42.8202 45.858 37.7078 49.7613C35.3977 51.3978 32.6495 52.31 29.8155 52.3811C26.3565 52.5513 22.9459 51.517 20.1693 49.4557C18.7662 48.4864 17.3105 47.587 15.8812 46.6701C15.1924 46.2081 14.3933 45.9357 13.5647 45.8805C12.7362 45.8253 11.9077 45.9892 11.1633 46.3557C10.121 46.805 9.04859 47.1814 7.95377 47.4822C7.42072 47.6411 6.84944 47.6163 6.33227 47.4119C5.81511 47.2075 5.38228 46.8354 5.10377 46.3557C4.42854 45.2554 3.91992 44.0591 3.34992 42.9064C2.44669 41.0289 1.55223 39.0816 0.508691 37.2304C0.284097 36.9051 0.131246 36.5362 0.0602054 36.1479C-0.0108348 35.7595 0.00154767 35.3606 0.0965373 34.9774C0.221013 34.5984 0.42111 34.2483 0.68482 33.9482C0.948529 33.6481 1.27041 33.4041 1.63115 33.2309C3.50777 32.1568 5.35808 31.0391 7.25223 30.0087C8.96518 29.0275 10.8715 28.4281 12.8396 28.2517C14.8077 28.0753 16.7909 28.3262 18.6522 28.987L19.2924 29.1791ZM19.6519 37.3351C21.1737 38.3478 22.7582 39.2636 24.3961 40.0771C25.3381 40.6015 26.3555 40.9785 27.4127 41.1949C29.9258 41.5166 32.4796 41.1576 34.8052 40.1557C35.2952 39.9712 35.7028 39.6181 35.9539 39.1602C36.0674 39.0246 36.1369 38.8579 36.1533 38.6821C36.1698 38.5063 36.1323 38.3297 36.0459 38.1756C35.9594 38.0215 35.8281 37.897 35.6693 37.8187C35.5104 37.7404 35.3314 37.7118 35.1559 37.7368C34.2153 37.7344 33.2765 37.6526 32.3498 37.4923C29.1869 37.0482 26.1866 35.8201 23.6244 33.9208C22.7861 33.2563 21.9075 32.6439 20.9936 32.087C19.1874 30.8785 17.0716 30.21 14.8962 30.1605C12.7207 30.1109 10.5764 30.6825 8.71669 31.8075C6.92777 32.7856 5.26161 33.8422 3.50777 34.8639C3.21754 34.9816 2.95262 35.1535 2.72731 35.3704C2.46423 35.7371 2.97284 35.8768 3.09561 36.1475C4.38469 38.9768 5.84038 41.7712 7.28731 44.5219C7.50654 44.9411 7.70823 45.0808 8.16423 44.845C9.0502 44.4255 9.95759 44.0524 10.8827 43.7273C11.9424 43.3274 13.0816 43.1807 14.2087 43.299C15.3357 43.4173 16.4192 43.7973 17.3719 44.4084C19.1959 45.5174 20.9235 46.7749 22.7562 47.9013C24.9406 49.2902 27.4993 49.9802 30.089 49.8788C32.6786 49.7773 35.175 48.8892 37.243 47.3337C42.1275 43.7273 46.9505 40.0335 51.7999 36.3746C52.0653 36.1715 52.2988 35.9302 52.4927 35.6585C53.4398 34.4098 53.0978 33.4056 51.6158 32.9777C51.4438 32.9309 51.2675 32.9016 51.0896 32.8904C49.9327 32.871 48.8102 33.282 47.9415 34.043C46.1141 35.2682 44.1171 36.2213 42.0135 36.8723C41.2058 37.163 40.362 37.3423 39.5055 37.405C40.6455 36.9771 41.7942 36.6016 42.8992 36.0864C45.5014 35.0236 47.8062 33.3487 49.6164 31.205C50.2215 30.4278 50.8265 29.6594 51.3702 28.856C54.001 25.0487 55.6058 20.9357 55.3953 16.2377C55.3364 12.6922 54.0051 9.28479 51.6421 6.63205C50.7503 5.54118 49.6257 4.66175 48.3501 4.05757C47.0745 3.4534 45.6797 3.13964 44.2672 3.13909C42.9682 3.18541 41.6931 3.50048 40.523 4.06425C39.353 4.62802 38.3136 5.42816 37.471 6.41374C36.5941 7.35684 35.9452 7.35684 35.0682 6.41374C33.6804 4.78841 31.784 3.67504 29.6839 3.25261C28.01 2.93367 26.2797 3.09236 24.6924 3.71038C23.1052 4.32839 21.7257 5.38057 20.713 6.74557C16.8896 11.3737 16.1355 16.718 17.9244 22.3067C19.1345 26.0616 20.9322 29.5546 24.2733 32.0782C27.3383 34.4499 31.0194 35.901 34.8841 36.2611C35.5067 36.3222 36.2345 36.3309 36.6379 36.8549C36.8585 37.1966 37.1955 37.4475 37.587 37.5614C37.9786 37.6753 38.3983 37.6446 38.7688 37.4749C38.7688 37.4749 38.7688 37.5185 38.8302 37.5447C38.6322 37.6766 38.4018 37.7521 38.1638 37.763C37.8305 37.8416 37.5236 37.8766 37.5412 38.3568C37.5638 38.9834 37.3736 39.5992 37.0012 40.1047C36.6288 40.6102 36.0961 40.9758 35.4892 41.1425C32.787 42.2672 29.7954 42.5058 26.9479 41.8236C24.1155 41.0726 21.853 39.2912 19.6168 37.4574C19.614 37.4167 19.614 37.3758 19.6168 37.3351H19.6519Z" fill="white"/>
</svg>
