<svg width="1217" height="191" viewBox="0 0 1217 191" fill="none" xmlns="http://www.w3.org/2000/svg">
<g clip-path="url(#clip0_34_1387)">
<path d="M159.6 18.5369L141.744 3.95806e-05L116.423 4.50466L110.709 21.9691L105.192 4.95155L105.049 4.50466L79.7108 4.22921e-05L61.8544 18.537L67.5149 36.0013L53.0691 25.4905L52.6762 25.2045L29.463 36.4661L25.8917 61.9745L40.7303 72.6998L22.5526 72.6998L10.9638 94.4722L10.9638 82.8173L20.3027 38.3788L10.9638 27.439L10.9638 0.804443L9.35672 0.804443L9.35672 27.4926L-6.66894e-06 38.4324L9.35673 82.871L9.35673 109.774L-1.60805e-06 154.212L9.35673 165.152L9.35673 190.124L10.9638 190.124L10.9638 165.098L20.3027 154.159L10.9638 109.774L10.9638 96.4742L22.5526 118.229L40.8911 118.229L26.4453 128.722L26.0524 129.008L29.6237 154.516L52.837 165.778L67.6756 155.052L62.158 172.07L62.0151 172.517L79.7465 191L105.085 186.495L110.709 169.031L116.263 186.031L116.423 186.495L141.744 191L159.6 172.445L153.922 154.981L168.368 165.492L168.76 165.778L191.974 154.516L195.545 129.008L180.706 118.282L199.045 118.282L210.634 96.5279L210.634 109.774L201.277 154.212L210.634 165.152L210.634 190.124L212.241 190.124L212.241 165.098L221.419 154.212L212.08 109.774L212.08 96.4742L223.74 118.229L242.079 118.229L227.633 128.722L227.24 129.008L230.811 154.516L253.935 165.778L268.774 155.052L263.113 172.517L280.934 191L306.272 186.495L311.933 169.031L317.45 186.031L317.611 186.495L342.931 191L360.788 172.445L355.109 154.981L369.627 165.492L370.019 165.778L393.233 154.516L396.804 129.008L381.965 118.282L400.304 118.282L411.893 96.5279L411.893 109.774L402.536 154.212L411.893 165.152L411.893 190.124L413.5 190.124L413.5 165.098L422.839 154.159L413.5 109.72L413.5 96.4206L424.981 118.229L443.32 118.229L428.874 128.722L428.481 129.008L432.052 154.516L455.266 165.778L470.104 155.052L464.587 172.07L464.444 172.517L482.122 191L507.46 186.495L513.12 169.031L518.638 186.031L518.799 186.495L544.119 191L561.975 172.445L556.297 154.981L570.743 165.492L571.136 165.778L594.349 154.516L597.92 129.008L583.081 118.282L601.42 118.282L613.009 96.5278L613.009 109.774L603.545 154.212L612.902 165.152L612.902 190.124L614.509 190.124L614.509 165.098L623.848 154.159L614.509 109.72L614.509 96.4206L626.097 118.175L644.436 118.175L629.99 128.668L629.597 128.954L633.169 154.462L656.382 165.724L671.22 154.999L665.703 172.016L665.56 172.463L683.309 191L708.647 186.495L714.254 169.031L719.772 186.031L719.933 186.495L745.307 191L763.163 172.445L757.484 154.981L771.93 165.492L772.323 165.778L795.536 154.516L799.108 129.008L784.269 118.282L802.608 118.282L814.196 96.5278L814.196 109.774L804.84 154.212L814.196 165.152L814.196 190.124L815.803 190.124L815.803 165.098L825.16 154.159L815.803 109.72L815.803 96.4206L827.392 118.175L845.731 118.175L830.892 128.9L834.463 154.409L857.587 165.67L872.426 154.945L866.908 171.963L866.765 172.409L884.497 191L909.835 186.495L915.495 169.031L921.013 186.031L921.174 186.495L946.494 191L964.35 172.445L958.672 154.999L973.171 165.492L973.564 165.778L996.778 154.516L1000.35 129.008L985.51 118.282L1003.71 118.282L1015.29 96.5278L1015.29 109.774L1005.94 154.212L1015.29 165.152L1015.29 190.124L1016.9 190.124L1016.9 165.098L1026.26 154.159L1016.9 109.72L1016.9 96.4206L1028.53 118.229L1046.86 118.229L1032.03 128.954L1035.6 154.462L1058.81 165.724L1073.65 154.999L1068.13 172.016L1067.99 172.463L1085.67 191L1111.02 186.495L1116.68 169.031L1122.2 186.031L1122.36 186.495L1147.68 191L1165.54 172.445L1159.86 154.981L1174.32 165.492L1174.7 165.778L1197.91 154.516L1201.48 129.008L1186.64 118.282L1204.98 118.282L1217.09 95.5447L1204.98 72.8249L1186.55 72.8249L1201.39 62.0996L1197.82 36.5912L1174.61 25.3296L1159.77 36.0549L1165.29 19.0553L1165.45 18.5905L1147.59 0.053615L1122.27 4.55824L1116.59 22.0226L1111.08 5.00514L1110.93 4.55824L1085.67 -1.67962e-06L1067.81 18.5369L1073.47 36.0013L1059.02 25.4905L1058.63 25.2045L1035.42 36.4661L1031.85 61.9744L1046.69 72.6997L1028.53 72.6997L1016.9 94.4721L1016.9 82.8173L1026.26 38.3788L1016.9 27.4389L1016.9 0.804399L1015.29 0.804399L1015.29 27.4926L1005.94 38.4324L1015.29 82.8709L1015.29 94.4721L1003.71 72.7176L985.367 72.7176L1000.21 61.9923L996.635 36.4839L973.421 25.2224L958.583 35.9477L964.243 19.0017L964.404 18.5369L946.548 4.40145e-06L921.227 4.50463L915.549 21.9511L910.031 4.95151L909.889 4.50463L884.55 7.11144e-06L866.694 18.5369L872.354 36.0013L857.909 25.4905L857.516 25.2045L834.392 36.4661L830.821 61.9744L845.659 72.6998L827.303 72.6998L815.714 94.4721L815.714 82.8173L825.071 38.3788L815.714 27.4389L815.714 0.804408L814.107 0.804408L814.107 27.4926L804.75 38.4324L814.107 82.8709L814.107 94.4721L802.518 72.7176L784.18 72.7176L799.018 61.9923L795.447 36.4839L772.234 25.2224L757.395 35.9477L762.913 18.9481L763.074 18.4833L745.217 -0.0536062L719.897 4.45102L714.254 21.969L708.737 4.95152L708.594 4.50464L683.256 1.59103e-05L665.399 18.5369L671.06 36.0013L656.614 25.4905L656.221 25.2045L633.008 36.4661L629.437 61.9744L644.275 72.6998L626.115 72.6998L614.526 94.4721L614.526 82.8173L623.865 38.3788L614.526 27.4389L614.526 0.804416L612.919 0.804417L612.919 27.4926L603.545 38.4324L612.902 82.8709L612.902 94.4721L601.313 72.7176L582.992 72.7176L597.438 62.2962L597.831 62.0102L594.26 36.5018L571.046 25.2403L556.208 35.9656L561.725 18.9659L561.886 18.5012L544.03 -0.0357293L518.709 4.46891L513.031 21.9333L507.513 4.9158L507.371 4.46891L482.122 2.47022e-05L464.265 18.5369L469.926 36.0013L455.48 25.4905L455.087 25.2045L431.874 36.4661L428.303 61.9745L443.141 72.6998L424.981 72.6998L413.339 94.4722L413.339 82.8173L422.678 38.3788L413.339 27.4389L413.339 0.804425L411.732 0.804425L411.732 27.4926L402.375 38.4324L411.732 82.8709L411.732 94.4722L400.143 72.7177L381.805 72.7177L396.25 62.2962L396.643 62.0102L393.072 36.5018L369.859 25.2403L355.02 35.9656L360.698 19.0017L360.859 18.5369L343.003 3.07832e-05L317.682 4.50466L312.004 21.9691L306.487 4.95154L306.344 4.50466L281.005 3.34932e-05L263.149 18.5369L268.81 36.0013L254.364 25.4905L253.971 25.2045L230.847 36.4661L227.276 61.9745L242.114 72.6998L223.74 72.6998L212.151 94.4722L212.151 82.8173L221.419 38.4324L212.08 27.4926L212.08 0.858053L210.473 0.858054L210.473 27.4926L201.116 38.4324L210.473 82.871L210.473 94.4722L198.884 72.7177L180.617 72.7177L195.063 62.2962L195.456 62.0102L191.884 36.5019L168.671 25.2403L153.833 35.9656L159.35 18.966L159.6 18.5369ZM1.78563 38.8793L10.2138 29.0299L18.5706 38.8793L10.1603 78.8847L1.78563 38.8793ZM18.5706 153.765L10.1603 163.615L1.78563 153.765L10.1603 113.76L18.5706 153.765ZM1116.74 65.4244C1119.62 65.4285 1122.49 65.8438 1125.25 66.6578L1116.74 92.8991L1108.24 66.6578C1110.98 65.8505 1113.82 65.4353 1116.68 65.4244L1116.74 65.4244ZM1116.74 125.576C1113.86 125.572 1110.99 125.151 1108.24 124.324L1116.68 98.0472L1125.2 124.324C1122.44 125.152 1119.57 125.574 1116.68 125.576L1116.74 125.576ZM1086.68 96.2597L1114.24 96.2597L1091.95 112.473C1088.66 107.697 1086.83 102.062 1086.68 96.2597ZM1085.2 98.655L1081.92 96.2597L1085.08 96.2597C1085.1 97.0998 1085.11 97.9042 1085.2 98.6908L1085.2 98.655ZM1090.56 113.42L1088.01 115.208L1089.27 111.293C1089.76 112.097 1090.18 112.795 1090.63 113.456L1090.56 113.42ZM1091.52 114.707C1092.02 115.351 1092.54 115.947 1093.08 116.495L1088.95 116.495L1091.52 114.707ZM1092.83 113.76L1115.09 97.5646L1106.58 123.788C1101.16 121.836 1096.41 118.368 1092.9 113.796L1092.83 113.76ZM1106.09 125.307L1105.18 128.436L1103.92 124.539C1104.65 124.861 1105.4 125.075 1106.17 125.343L1106.09 125.307ZM1107.61 125.826C1108.38 126.058 1109.15 126.255 1109.93 126.434L1106.63 128.829L1107.61 125.826ZM1125.63 125.826L1126.61 128.829L1123.31 126.434C1124.16 126.291 1124.95 126.094 1125.7 125.862L1125.63 125.826ZM1127.15 125.307C1127.91 125.039 1128.66 124.753 1129.4 124.431L1128.2 128.436L1127.15 125.307ZM1126.65 123.788L1118.15 97.5646L1140.49 113.796C1136.96 118.39 1132.19 121.871 1126.74 123.824L1126.65 123.788ZM1140.16 116.638C1140.7 116.03 1141.22 115.434 1141.72 114.85L1144.29 116.638L1140.16 116.638ZM1142.81 113.456C1143.25 112.795 1143.68 112.097 1144.07 111.4L1145.36 115.315L1142.81 113.456ZM1141.5 112.509L1119.17 96.2597L1146.7 96.2597C1146.56 102.071 1144.74 107.716 1141.45 112.509L1141.5 112.509ZM1148.31 96.2597L1151.47 96.2597L1148.16 98.6908C1148.27 97.9042 1148.29 97.0998 1148.31 96.2597ZM1148.31 94.6509C1148.31 93.8465 1148.31 93.06 1148.18 92.2734L1151.47 94.6509L1148.31 94.6509ZM1146.7 94.6509L1119.17 94.6509L1141.45 78.4557C1144.73 83.2423 1146.56 88.8813 1146.7 94.6866L1146.7 94.6509ZM1142.81 77.544L1145.36 75.7565L1144.07 79.6712C1143.63 78.9026 1143.2 78.2054 1142.81 77.544ZM1141.84 76.257C1141.34 75.6134 1140.82 75.0176 1140.29 74.4694L1144.41 74.4694L1141.84 76.257ZM1140.54 77.2044L1118.22 93.3996L1126.74 67.1762C1132.19 69.1244 1136.96 72.6065 1140.49 77.2044L1140.54 77.2044ZM1127.27 65.6568L1128.25 62.6358L1129.52 66.5327C1128.74 66.1931 1127.99 65.8713 1127.22 65.6568L1127.27 65.6568ZM1125.75 65.1384C1124.99 64.906 1124.22 64.7094 1123.43 64.5306L1126.74 62.1353L1125.75 65.1384ZM1107.74 65.1384L1106.75 62.1353L1110.06 64.5306C1109.22 64.7094 1108.45 64.906 1107.68 65.1384L1107.74 65.1384ZM1106.22 65.6568C1105.45 65.9249 1104.7 66.1931 1103.97 66.5327L1105.24 62.6358L1106.22 65.6568ZM1106.7 67.1762L1115.17 93.3996L1092.9 77.2044C1096.42 72.6079 1101.2 69.1262 1106.65 67.1762L1106.7 67.1762ZM1093.2 74.3264C1092.67 74.9342 1092.15 75.53 1091.65 76.114L1089.08 74.3264L1093.2 74.3264ZM1090.68 77.4904C1090.24 78.1518 1089.81 78.8489 1089.4 79.5461L1088.13 75.6313L1090.68 77.4904ZM1091.99 78.4378L1114.24 94.6866L1086.68 94.6866C1086.82 88.8922 1088.65 83.2643 1091.93 78.4914L1091.99 78.4378ZM1085.13 94.633L1081.92 94.633L1085.2 92.2556C1085.11 93.0957 1085.1 93.8822 1085.08 94.6866L1085.13 94.633ZM1085.54 100.621C1086.06 103.731 1087.05 106.744 1088.47 109.559L1088.29 109.559L1086.02 116.566L1051.74 116.566L1079.4 96.4384L1085.36 100.764L1085.54 100.621ZM1094.47 117.996C1096.72 120.211 1099.29 122.078 1102.09 123.538L1101.93 123.538L1104.22 130.545L1076.58 150.78L1087.13 118.229L1094.49 118.229L1094.47 117.996ZM1112.06 126.934L1111.95 126.791C1115.08 127.316 1118.27 127.316 1121.4 126.791L1121.29 126.934L1127.24 131.278L1116.68 163.829L1106.13 131.278L1112.06 126.934ZM1131.4 123.645L1131.25 123.645C1134.05 122.19 1136.62 120.322 1138.86 118.104L1138.86 118.282L1146.22 118.282L1156.81 150.78L1129.15 130.652L1131.4 123.645ZM1144.95 109.666C1146.36 106.85 1147.34 103.837 1147.86 100.729L1147.97 100.872L1153.93 96.5457L1181.61 116.62L1147.41 116.62L1145.13 109.613L1144.95 109.666ZM1147.86 90.3071C1147.34 87.1987 1146.36 84.1858 1144.95 81.3694L1145.11 81.3694L1147.4 74.3622L1181.59 74.3622L1153.95 94.4721L1147.99 90.1284L1147.86 90.3071ZM1138.93 72.9321C1136.68 70.7195 1134.12 68.8521 1131.33 67.3907L1131.47 67.3907L1129.2 60.3835L1156.86 40.2735L1146.29 72.8249L1138.88 72.8249L1138.93 72.9321ZM1121.38 64.0837L1121.49 64.2267C1118.36 63.7021 1115.17 63.7021 1112.04 64.2268L1112.15 64.0837L1106.2 59.7579L1116.75 27.2065L1127.33 59.7579L1121.38 64.0837ZM1102.02 67.3728L1102.18 67.3728C1099.39 68.8385 1096.82 70.7054 1094.56 72.9143L1094.56 72.7534L1087.2 72.7534L1076.65 40.202L1104.24 60.3299L1102.02 67.3728ZM1088.49 81.3694C1087.07 84.185 1086.08 87.1979 1085.56 90.3071L1085.56 90.1641L1079.43 94.4721L1051.74 74.3801L1085.93 74.38L1088.2 81.3873L1088.49 81.3694ZM1029.56 116.656L1018.63 96.2597L1076.97 96.2597L1049.04 116.62L1029.56 116.656ZM1049.67 118.264L1084.18 118.264L1036.99 152.585L1033.83 129.776L1049.67 118.264ZM1058.6 163.954L1037.92 153.89L1085.02 119.498L1074.31 152.371L1058.6 163.954ZM1069.6 172.034L1075.65 153.372L1103.58 133.065L1085.67 188.605L1069.6 172.034ZM1109.72 185.083L1087.15 189.105L1105.18 133.566L1115.9 166.421L1109.72 185.083ZM1123.52 185.083L1117.47 166.421L1128.18 133.566L1146.24 189.105L1123.52 185.083ZM1163.65 172.034L1147.68 188.605L1129.66 133.065L1157.66 153.372L1163.65 172.034ZM1158.95 152.371L1148.24 119.498L1195.55 153.855L1174.95 163.919L1158.95 152.371ZM1199.59 129.723L1196.43 152.532L1149.24 118.211L1183.88 118.211L1199.59 129.723ZM1184.27 116.602L1156.41 96.2597L1214.75 96.2597L1203.93 116.584L1184.27 116.602ZM1203.91 74.3622L1214.73 94.6688L1156.41 94.6688L1184.34 74.3622L1203.91 74.3622ZM1183.81 72.7534L1149.31 72.7534L1196.5 38.4324L1199.66 61.2237L1183.81 72.7534ZM1174.88 27.0635L1195.55 37.1275L1148.36 71.4485L1159.07 38.5932L1174.88 27.0635ZM1163.72 18.948L1157.66 37.5922L1129.74 57.9167L1147.75 2.37744L1163.72 18.948ZM1123.59 5.89891L1146.24 1.87692L1128.2 57.4162L1117.49 24.5431L1123.59 5.89891ZM1109.79 5.89891L1115.84 24.561L1105.13 57.434L1087.09 1.8948L1109.79 5.89891ZM1069.6 18.9659L1085.56 2.37744L1103.65 57.9167L1075.72 37.6101L1069.6 18.9659ZM1074.29 38.629L1085.01 71.4842L1037.81 37.1632L1058.49 27.0993L1074.29 38.629ZM1033.72 61.2415L1036.88 38.4503L1084.08 72.7712L1049.56 72.7712L1033.72 61.2415ZM1049.04 74.3801L1076.97 94.6866L1018.63 94.6866L1029.45 74.3801L1049.04 74.3801ZM1024.51 153.765L1016.03 163.615L1007.6 153.765L1016.03 113.76L1024.51 153.765ZM1007.67 38.8793L1016.03 29.0298L1024.44 38.8793L1016.03 78.8847L1007.67 38.8793ZM915.495 65.4244C918.379 65.4285 921.247 65.8438 924.013 66.6578L915.495 92.8991L906.996 66.6578C909.756 65.8455 912.618 65.4302 915.495 65.4244ZM915.495 125.576C912.617 125.572 909.754 125.151 906.996 124.324L915.495 98.0472L924.013 124.324C921.249 125.152 918.38 125.574 915.495 125.576ZM885.497 96.2597L913.031 96.2597L890.747 112.473C887.458 107.695 885.634 102.06 885.497 96.2597ZM884.015 98.655L880.729 96.2597L883.89 96.2597C883.89 97.0998 883.89 97.9042 884.015 98.6908L884.015 98.655ZM889.372 113.42L886.818 115.208L888.086 111.293C888.568 112.097 888.997 112.795 889.443 113.456L889.372 113.42ZM890.336 114.707C890.836 115.351 891.354 115.947 891.889 116.495L887.765 116.495L890.336 114.707ZM891.639 113.76L913.906 97.5646L905.389 123.788C899.968 121.836 895.221 118.368 891.711 113.796L891.639 113.76ZM904.889 125.307L903.996 128.436L902.728 124.539C903.532 124.861 904.21 125.075 904.96 125.343L904.889 125.307ZM906.424 125.826C907.174 126.058 907.96 126.255 908.746 126.434L905.442 128.829L906.424 125.826ZM924.442 125.826L925.406 128.829L922.12 126.434C922.977 126.291 923.745 126.094 924.513 125.862L924.442 125.826ZM925.959 125.307C926.727 125.039 927.477 124.753 928.209 124.432L927.013 128.436L925.959 125.307ZM925.459 123.788L916.96 97.5646L939.244 113.796C935.727 118.384 930.967 121.865 925.531 123.824L925.459 123.788ZM938.976 116.638C939.512 116.03 940.03 115.434 940.53 114.85L943.101 116.638L938.976 116.638ZM941.476 113.474C941.941 112.812 942.369 112.115 942.762 111.418L944.048 115.333L941.476 113.474ZM940.191 112.526L917.978 96.2597L945.512 96.2597C945.373 102.071 943.549 107.716 940.262 112.509L940.191 112.526ZM947.119 96.2597L950.28 96.2597L946.994 98.655C947.083 97.9042 947.101 97.0998 947.119 96.2597ZM947.119 94.6509C947.119 93.8465 947.119 93.06 946.994 92.2734L950.28 94.6509L947.119 94.6509ZM945.512 94.6509L917.978 94.6509L940.262 78.4557C943.547 83.2423 945.37 88.8813 945.512 94.6866L945.512 94.6509ZM941.566 77.5083L944.119 75.7207L942.816 79.5997C942.441 78.9026 942.012 78.2054 941.566 77.544L941.566 77.5083ZM940.601 76.2212C940.101 75.5777 939.584 74.9819 939.048 74.4337L943.155 74.4337L940.601 76.2212ZM939.298 77.1686L917.031 93.3996L925.531 67.1762C930.967 69.1349 935.727 72.6157 939.244 77.2044L939.298 77.1686ZM926.031 65.621L927.013 62.6001L928.281 66.4969C927.548 66.1931 926.745 65.8713 926.031 65.6568L926.031 65.621ZM924.513 65.1027C923.745 64.8703 922.977 64.6737 922.192 64.4949L925.477 62.0996L924.513 65.1027ZM906.496 65.1027L905.514 62.0996L908.889 64.5306C908.031 64.7094 907.246 64.906 906.496 65.1384L906.496 65.1027ZM904.96 65.621C904.21 65.8892 903.46 66.1573 902.728 66.4969L903.996 62.6001L904.96 65.621ZM905.46 67.1405L913.978 93.3996L891.711 77.2044C895.236 72.608 900.009 69.1262 905.46 67.1762L905.46 67.1405ZM891.961 74.2907C891.425 74.8984 890.907 75.4943 890.407 76.0782L887.836 74.2907L891.961 74.2907ZM889.443 77.4546C888.979 78.116 888.568 78.8132 888.157 79.5103L886.89 75.5956L889.443 77.4546ZM890.747 78.402L913.031 94.5973L885.497 94.5973C885.654 88.8334 887.478 83.239 890.747 78.4914L890.747 78.402ZM883.89 94.6866L880.729 94.6866L884.015 92.3092C883.89 93.0957 883.89 93.8822 883.89 94.6866ZM884.3 100.675C884.823 103.784 885.81 106.798 887.229 109.613L887.05 109.613L884.782 116.62L850.588 116.62L878.247 96.4921L884.211 100.818L884.3 100.675ZM893.229 118.05C895.482 120.264 898.052 122.132 900.853 123.591L900.71 123.591L902.978 130.599L875.372 150.78L885.943 118.229L893.3 118.229L893.229 118.05ZM910.817 126.988L910.71 126.845C913.837 127.369 917.029 127.369 920.156 126.845L920.049 126.988L925.995 131.331L915.495 163.829L904.942 131.278L910.817 126.988ZM930.316 123.645L930.173 123.645C932.972 122.19 935.536 120.322 937.78 118.104L937.78 118.282L945.155 118.282L955.619 150.78L927.959 130.652L930.316 123.645ZM943.869 109.666C945.282 106.85 946.263 103.837 946.78 100.729L946.887 100.872L952.851 96.5457L980.421 116.62L946.226 116.62L943.941 109.613L943.869 109.666ZM946.78 90.3071C946.262 87.1987 945.281 84.1858 943.869 81.3694L944.03 81.3694L946.316 74.3622L980.51 74.3622L952.762 94.4721L946.798 90.1284L946.78 90.3071ZM937.852 72.9321C935.603 70.7195 933.04 68.8521 930.245 67.3907L930.388 67.3907L928.12 60.3835L955.779 40.2735L945.226 72.8249L937.852 72.8249L937.852 72.9321ZM920.281 63.9944L920.388 64.1374C917.261 63.6127 914.069 63.6127 910.942 64.1374L911.049 63.9944L905.103 59.6685L915.656 27.1172L926.227 59.6685L920.281 63.9944ZM900.942 67.2835L901.085 67.2835C898.288 68.7492 895.719 70.616 893.461 72.8249L893.461 72.664L886.104 72.664L875.533 40.1127L903.05 60.3299L900.942 67.2835ZM887.39 81.28C885.972 84.0956 884.985 87.1085 884.461 90.2178L884.372 90.0748L878.247 94.4721L850.588 74.3443L884.782 74.3443L887.05 81.3515L887.39 81.28ZM828.463 116.566L817.446 96.2597L875.783 96.2597L847.856 116.62L828.463 116.566ZM848.57 118.175L883.086 118.175L835.677 152.55L832.517 129.741L848.57 118.175ZM857.498 163.865L836.82 153.801L883.89 119.498L873.176 152.389L857.498 163.865ZM868.658 171.98L874.711 153.318L902.46 133.065L884.443 188.605L868.658 171.98ZM908.781 185.03L885.961 189.105L903.996 133.566L914.71 166.439L908.781 185.03ZM922.584 185.03L916.531 166.385L927.245 133.512L945.048 189.105L922.584 185.03ZM962.458 172.034L946.565 188.605L928.531 133.065L956.476 153.461L962.458 172.034ZM957.761 152.371L947.048 119.498L994.367 153.855L973.689 163.919L957.761 152.371ZM998.403 129.723L995.313 152.55L948.173 118.229L982.635 118.229L998.403 129.723ZM983.082 116.602L955.315 96.2597L1013.65 96.2597L1002.83 116.584L983.082 116.602ZM1002.72 74.3622L1013.54 94.6688L955.315 94.6688L983.242 74.3622L1002.72 74.3622ZM982.617 72.7534L948.173 72.7534L995.367 38.4324L998.528 61.2237L982.617 72.7534ZM973.689 27.0635L994.367 37.1275L947.173 71.4485L957.886 38.5933L973.689 27.0635ZM962.458 18.9659L956.404 37.6101L928.531 57.9167L946.548 2.37745L962.458 18.9659ZM922.334 5.9168L944.976 1.89481L926.941 57.4341L916.228 24.561L922.334 5.9168ZM908.531 5.9168L914.585 24.561L903.871 57.4341L885.836 1.89481L908.531 5.9168ZM868.408 18.9659L884.372 2.37745L902.46 57.9167L874.533 37.6101L868.408 18.9659ZM873.104 38.629L883.818 71.4842L836.624 37.1632L857.302 27.0993L873.104 38.629ZM832.535 61.2416L835.677 38.4503L882.872 72.7713L848.373 72.7713L832.535 61.2416ZM847.856 74.3801L875.783 94.6866L817.446 94.6866L828.267 74.3801L847.856 74.3801ZM823.321 153.765L814.911 163.615L806.482 153.765L814.911 113.76L823.321 153.765ZM806.482 38.8793L814.911 29.0299L823.321 38.8793L814.911 78.8847L806.482 38.8793ZM714.254 65.4244C717.138 65.4285 720.005 65.8438 722.772 66.6578L714.254 92.8991L705.755 66.6578C708.515 65.8455 711.377 65.4302 714.254 65.4244ZM714.254 125.576C711.376 125.572 708.512 125.151 705.755 124.324L714.254 98.0473L722.825 124.324C720.044 125.157 717.157 125.579 714.254 125.576ZM684.309 96.2597L711.844 96.2597L689.559 112.473C686.271 107.695 684.446 102.06 684.309 96.2597ZM682.827 98.655L679.541 96.2597L682.702 96.2597C682.72 97.0999 682.738 97.9043 682.827 98.6908L682.827 98.655ZM688.184 113.42L685.631 115.208L686.898 111.293C687.47 112.097 687.791 112.795 688.255 113.456L688.184 113.42ZM689.148 114.707C689.648 115.351 690.166 115.947 690.702 116.495L686.577 116.495L689.148 114.707ZM690.452 113.76L712.719 97.5646L704.201 123.788C698.781 121.836 694.034 118.368 690.523 113.796L690.452 113.76ZM703.719 125.307L702.808 128.436L701.541 124.539C702.273 124.861 703.023 125.075 703.79 125.343L703.719 125.307ZM705.237 125.826C705.987 126.058 706.772 126.255 707.558 126.434L704.255 128.829L705.237 125.826ZM723.254 125.826L724.218 128.829L720.933 126.434C721.79 126.291 722.557 126.094 723.325 125.862L723.254 125.826ZM724.772 125.307C725.54 125.039 726.289 124.753 727.022 124.432L725.825 128.436L724.772 125.307ZM724.272 123.788L715.772 97.5646L738.039 113.76C734.531 118.359 729.777 121.852 724.343 123.824L724.272 123.788ZM737.789 116.638C738.325 116.03 738.842 115.434 739.342 114.85L741.914 116.638L737.789 116.638ZM740.307 113.474C740.753 112.812 741.182 112.115 741.574 111.418L742.842 115.333L740.307 113.474ZM739.003 112.526L716.79 96.2597L744.324 96.2597C744.185 102.071 742.361 107.716 739.075 112.509L739.003 112.526ZM745.931 96.2597L749.092 96.2597L745.807 98.655C745.896 97.9042 745.914 97.0999 745.931 96.2597ZM745.931 94.6509C745.931 93.8465 745.931 93.06 745.807 92.2735L749.092 94.6509L745.931 94.6509ZM744.324 94.6509L716.79 94.6509L739.075 78.4557C742.359 83.2423 744.183 88.8813 744.324 94.6867L744.324 94.6509ZM740.378 77.5083L742.932 75.7207L741.646 79.6355C741.253 78.9026 740.825 78.2054 740.378 77.544L740.378 77.5083ZM739.414 76.2212C738.914 75.5777 738.396 74.9819 737.86 74.4337L741.967 74.4337L739.414 76.2212ZM738.11 77.1686L715.844 93.3996L724.343 67.1762C729.799 69.1259 734.579 72.6074 738.11 77.2044L738.11 77.1686ZM724.843 65.6211L725.825 62.6001L727.093 66.497C726.361 66.1931 725.611 65.8713 724.843 65.6568L724.843 65.6211ZM723.325 65.1027C722.557 64.8703 721.79 64.6737 721.004 64.4949L724.29 62.0996L723.325 65.1027ZM705.308 65.1027L704.326 62.0996L707.63 64.4949C706.844 64.7094 706.058 64.906 705.326 65.1384L705.308 65.1027ZM703.773 65.6211C703.023 65.8892 702.273 66.1573 701.541 66.497L702.808 62.6001L703.773 65.6211ZM704.273 67.1405L712.79 93.3996L690.523 77.2044C694.048 72.608 698.822 69.1262 704.273 67.1762L704.273 67.1405ZM690.773 74.2907C690.237 74.8985 689.72 75.4943 689.22 76.0782L686.648 74.2907L690.773 74.2907ZM688.255 77.4547C687.791 78.116 687.38 78.8132 686.97 79.5103L685.702 75.5956L688.255 77.4547ZM689.559 78.4021L711.844 94.5973L684.309 94.5973C684.467 88.8334 686.29 83.239 689.559 78.4914L689.559 78.4021ZM682.702 94.5973L679.541 94.5973L682.827 92.2198C682.738 93.0957 682.72 93.8823 682.702 94.6867L682.702 94.5973ZM683.113 100.586C683.635 103.695 684.622 106.708 686.041 109.523L685.863 109.523L683.595 116.531L649.4 116.531L677.06 96.4027L683.006 100.729L683.113 100.586ZM692.041 117.961C694.295 120.175 696.864 122.043 699.666 123.502L699.505 123.502L701.791 130.509L674.185 150.78L684.756 118.229L692.112 118.229L692.041 117.961ZM709.63 126.898L709.522 126.755C711.087 127.017 712.668 127.161 714.254 127.184C715.839 127.171 717.421 127.04 718.986 126.791L718.879 126.934L724.968 131.278L714.254 163.829L703.701 131.278L709.63 126.898ZM728.968 123.609L728.825 123.609C731.624 122.154 734.188 120.286 736.432 118.068L736.432 118.247L743.789 118.247L754.431 150.78L726.754 130.652L728.968 123.609ZM742.521 109.631C743.934 106.815 744.915 103.802 745.431 100.693L745.539 100.836L751.503 96.51L779.234 116.62L745.039 116.62L742.824 109.613L742.521 109.631ZM745.431 90.2714C744.914 87.163 743.933 84.1501 742.521 81.3336L742.682 81.3336L744.967 74.3264L779.162 74.3264L751.574 94.4721L745.61 90.1284L745.431 90.2714ZM736.503 72.8964C734.255 70.6838 731.691 68.8164 728.897 67.355L729.039 67.355L726.754 60.3299L754.431 40.2199L743.86 72.7713L736.503 72.7713L736.503 72.8964ZM718.933 63.9586L719.04 64.1016C717.474 63.8532 715.893 63.7217 714.308 63.7084C712.729 63.7209 711.153 63.8524 709.594 64.1016L709.701 63.9586L703.755 59.6328L714.254 27.1708L724.968 59.7221L718.933 63.9586ZM699.576 67.2477L699.737 67.2477C696.94 68.7134 694.371 70.5802 692.112 72.7891L692.112 72.6283L684.756 72.6283L674.185 40.0769L701.862 60.3299L699.576 67.2477ZM686.041 81.2443C684.623 84.0599 683.636 87.0728 683.113 90.182L683.006 90.039L677.06 94.4721L649.4 74.3443L683.595 74.3443L685.863 81.3515L686.041 81.2443ZM627.115 116.531L616.259 96.2597L674.595 96.2597L646.668 116.62L627.115 116.531ZM647.221 118.139L681.738 118.139L634.543 152.46L631.365 129.651L647.221 118.139ZM656.15 163.829L635.472 153.765L682.648 119.498L671.935 152.371L656.15 163.829ZM667.31 171.945L673.363 153.283L701.291 132.976L683.256 188.605L667.31 171.945ZM707.433 184.994L684.773 189.105L702.808 133.566L713.522 166.421L707.433 184.994ZM721.236 184.994L715.183 166.332L725.897 133.477L743.842 189.105L721.236 184.994ZM761.341 171.945L745.396 188.515L727.379 132.976L755.324 153.372L761.341 171.945ZM756.663 152.282L745.949 119.408L793.179 153.855L772.502 163.919L756.663 152.282ZM797.286 129.741L794.126 152.55L746.931 118.229L781.448 118.229L797.286 129.741ZM781.966 116.62L754.038 96.2597L812.464 96.2597L801.643 116.584L781.966 116.62ZM801.608 74.3801L812.464 94.6866L754.038 94.6867L781.966 74.3801L801.608 74.3801ZM781.501 72.7713L746.931 72.7713L794.126 38.4503L797.286 61.2416L781.501 72.7713ZM772.573 27.0814L793.179 37.1454L745.985 71.4663L756.699 38.6111L772.573 27.0814ZM761.395 18.9659L755.324 37.6101L727.361 57.9167L745.378 2.37745L761.395 18.9659ZM721.29 5.91681L743.914 1.89482L725.825 57.4341L715.111 24.561L721.29 5.91681ZM707.487 5.91681L713.54 24.561L702.826 57.4341L684.791 1.89482L707.487 5.91681ZM667.363 18.9659L683.327 2.37746L701.273 57.9167L673.345 37.6101L667.363 18.9659ZM672.06 38.629L682.773 71.4842L635.579 37.1632L656.257 27.0993L672.06 38.629ZM631.329 61.2416L634.508 38.4503L681.702 72.7713L647.186 72.7713L631.329 61.2416ZM646.668 74.3801L674.577 94.6867L616.259 94.6867L627.08 74.3801L646.668 74.3801ZM622.133 153.765L613.723 163.615L605.331 153.765L613.759 113.76L622.133 153.765ZM605.33 38.8793L613.759 29.0299L622.169 38.8793L613.723 78.8847L605.33 38.8793ZM513.12 65.4244C516.004 65.4285 518.872 65.8439 521.638 66.6578L513.12 92.8991L504.603 66.6578C507.37 65.8472 510.237 65.4319 513.12 65.4244ZM513.12 125.576C510.236 125.571 507.367 125.15 504.603 124.324L513.12 98.0473L521.638 124.324C518.874 125.152 516.005 125.574 513.12 125.576ZM483.122 96.2597L510.692 96.2597L488.371 112.509C485.076 107.721 483.251 102.073 483.122 96.2597ZM481.622 98.655L478.354 96.2597L481.515 96.2597C481.532 97.0999 481.55 97.9043 481.622 98.6908L481.622 98.655ZM486.979 113.42L484.425 115.208L485.693 111.293C486.193 112.097 486.604 112.795 487.068 113.456L486.979 113.42ZM487.943 114.707C488.443 115.351 488.961 115.947 489.496 116.495L485.372 116.495L487.943 114.707ZM489.246 113.76L511.513 97.5646L502.996 123.788C497.556 121.845 492.789 118.376 489.264 113.796L489.246 113.76ZM502.496 125.307L501.621 128.436L500.353 124.539C501.085 124.861 501.764 125.075 502.585 125.343L502.496 125.307ZM504.031 125.826C504.781 126.058 505.567 126.255 506.353 126.434L503.049 128.829L504.031 125.826ZM522.048 125.826L523.013 128.829L519.727 126.434C520.602 126.291 521.406 126.094 522.138 125.862L522.048 125.826ZM523.566 125.307C524.334 125.039 525.084 124.753 525.816 124.432L524.638 128.436L523.566 125.307ZM523.066 123.788L514.567 97.5646L536.834 113.76C533.34 118.351 528.606 121.843 523.191 123.824L523.066 123.788ZM536.566 116.638C537.113 116.03 537.631 115.434 538.119 114.85L540.708 116.638L536.566 116.638ZM539.262 113.456C539.726 112.795 540.155 112.097 540.548 111.4L541.815 115.315L539.262 113.456ZM537.976 112.509L515.602 96.2597L543.137 96.2597C542.998 102.071 541.174 107.716 537.887 112.509L537.976 112.509ZM544.744 96.2597L547.904 96.2597L544.619 98.6908C544.619 97.9043 544.726 97.0999 544.744 96.2597ZM544.744 94.6509C544.744 93.8465 544.744 93.06 544.619 92.2735L547.904 94.6509L544.744 94.6509ZM543.137 94.6509L515.602 94.6509L537.887 78.4557C541.171 83.2423 542.995 88.8813 543.137 94.6867L543.137 94.6509ZM539.262 77.544L541.815 75.7565L540.548 79.6712C540.066 78.9026 539.637 78.2054 539.262 77.544ZM538.316 76.257C537.816 75.6135 537.298 75.0176 536.762 74.4694L540.869 74.4694L538.316 76.257ZM537.012 77.2044L514.656 93.3996L523.191 67.1762C528.634 69.1319 533.401 72.6129 536.923 77.2044L537.012 77.2044ZM523.745 65.6568L524.727 62.6359L525.995 66.5327C525.173 66.1931 524.423 65.8713 523.656 65.6568L523.745 65.6568ZM522.227 65.1384C521.459 64.906 520.691 64.7094 519.906 64.5307L523.191 62.1353L522.227 65.1384ZM504.21 65.1384L503.228 62.1353L506.531 64.5307C505.656 64.7094 504.871 64.906 504.121 65.1384L504.21 65.1384ZM502.674 65.6568C501.924 65.9249 501.174 66.1931 500.442 66.5327L501.71 62.6359L502.674 65.6568ZM503.174 67.1762L511.603 93.3996L489.264 77.2044C492.808 72.5969 497.608 69.1142 503.085 67.1762L503.174 67.1762ZM489.675 74.3264C489.139 74.9342 488.621 75.5301 488.121 76.114L485.55 74.3264L489.675 74.3264ZM487.157 77.4904C486.693 78.1518 486.282 78.849 485.871 79.5461L484.604 75.6314L487.157 77.4904ZM488.461 78.4378L510.692 94.6867L483.122 94.6867C483.262 88.8922 485.086 83.2643 488.371 78.4914L488.461 78.4378ZM481.604 94.633L478.443 94.633L481.711 92.2556C481.55 93.0957 481.532 93.8823 481.515 94.6867L481.604 94.633ZM482.014 100.621C482.537 103.731 483.524 106.744 484.943 109.559L484.764 109.559L482.497 116.566L448.195 116.566L475.872 96.4921L481.818 100.818L482.014 100.621ZM490.943 117.996C493.196 120.211 495.766 122.078 498.567 123.538L498.407 123.538L500.692 130.545L472.997 150.78L483.568 118.229L490.925 118.229L490.943 117.996ZM508.531 126.934L508.424 126.791C509.983 127.04 511.559 127.172 513.138 127.184C514.723 127.171 516.305 127.04 517.87 126.791L517.763 126.934L523.709 131.278L513.12 163.829L502.549 131.278L508.531 126.934ZM527.87 123.645L527.727 123.645C530.525 122.19 533.09 120.322 535.334 118.104L535.334 118.282L542.69 118.282L553.243 150.78L525.584 130.652L527.87 123.645ZM541.423 109.666C542.836 106.85 543.817 103.837 544.333 100.729L544.44 100.872L550.387 96.5457L578.064 116.674L543.851 116.674L541.565 109.666L541.423 109.666ZM544.333 90.3072C543.816 87.1987 542.835 84.1858 541.423 81.3694L541.583 81.3694L543.869 74.3622L578.064 74.3622L550.369 94.4722L544.422 90.1284L544.333 90.3072ZM535.405 72.9321C533.156 70.7195 530.593 68.8522 527.798 67.3907L527.941 67.3907L525.673 60.3835L553.333 40.2736L542.762 72.8249L535.405 72.8249L535.405 72.9321ZM517.834 64.0838L517.941 64.2268C516.376 63.9783 514.794 63.8468 513.21 63.8335C511.631 63.8461 510.055 63.9775 508.495 64.2268L508.603 64.0838L502.639 59.7579L513.21 27.2066L523.781 59.7579L517.834 64.0838ZM498.478 67.3729L498.639 67.3729C495.841 68.8385 493.273 70.7054 491.014 72.9143L491.014 72.7534L483.657 72.7534L473.086 40.2021L500.674 60.3299L498.478 67.3729ZM484.943 81.3694C483.525 84.185 482.538 87.1979 482.014 90.3072L481.907 90.1642L475.872 94.4722L448.195 74.3801L482.389 74.3801L484.657 81.3873L484.943 81.3694ZM426.017 116.656L415.071 96.2597L473.408 96.2597L445.48 116.62L426.017 116.656ZM446.123 118.264L480.515 118.264L433.32 152.585L430.142 129.776L446.123 118.264ZM455.051 163.954L434.374 153.89L481.461 119.498L470.747 152.371L455.051 163.954ZM466.051 172.034L472.104 153.372L500.032 133.065L482.122 188.605L466.051 172.034ZM506.228 185.083L483.586 189.105L501.621 133.566L512.335 166.421L506.228 185.083ZM520.031 185.083L513.977 166.439L524.691 133.566L542.673 189.105L520.031 185.083ZM560.136 172.034L544.19 188.605L526.173 133.065L554.083 153.461L560.136 172.034ZM555.458 152.371L544.744 119.498L591.992 153.855L571.296 163.919L555.458 152.371ZM596.099 129.723L592.92 152.532L545.744 118.211L580.332 118.211L596.099 129.723ZM580.778 116.602L552.851 96.2597L611.187 96.2597L600.366 116.584L580.778 116.602ZM600.42 74.3622L611.241 94.6688L552.851 94.6688L580.778 74.3622L600.42 74.3622ZM580.314 72.7534L545.744 72.7534L592.92 38.4324L596.099 61.2237L580.314 72.7534ZM571.386 27.0636L592.081 37.1275L544.797 71.4664L555.511 38.6112L571.386 27.0636ZM560.225 18.9481L554.083 37.6101L526.173 57.9167L544.19 2.39533L560.225 18.9481ZM520.12 5.89893L542.762 1.87694L524.727 57.4162L514.013 24.5431L520.12 5.89893ZM506.317 5.89893L512.37 24.5431L501.656 57.4162L483.622 1.87695L506.317 5.89893ZM466.051 18.966L482.014 2.39533L500.085 57.9167L472.158 37.6101L466.051 18.966ZM470.747 38.629L481.461 71.4842L434.267 37.1632L454.944 27.0993L470.747 38.629ZM430.142 61.2416L433.32 38.4503L480.515 72.7713L445.998 72.7713L430.142 61.2416ZM445.48 74.3801L473.39 94.6867L415.071 94.6867L425.892 74.3801L445.48 74.3801ZM420.946 153.765L412.482 163.615L404.054 153.765L412.482 113.76L420.946 153.765ZM404.107 38.8793L412.482 29.0299L420.892 38.8793L412.482 78.8847L404.107 38.8793ZM311.933 65.4244C314.816 65.4286 317.684 65.8439 320.45 66.6579L311.933 92.8991L303.415 66.6579C306.182 65.8472 309.05 65.4319 311.933 65.4244ZM311.933 125.576C309.048 125.571 306.179 125.15 303.415 124.324L311.933 98.0473L320.45 124.324C317.687 125.152 314.817 125.574 311.933 125.576ZM281.934 96.2597L309.469 96.2597L287.184 112.473C283.895 107.695 282.071 102.06 281.934 96.2597ZM280.434 98.655L277.149 96.2597L280.345 96.2597C280.345 97.0999 280.345 97.9043 280.434 98.6908L280.434 98.655ZM285.791 113.42L283.238 115.208L284.505 111.293C285.005 112.097 285.416 112.795 285.88 113.456L285.791 113.42ZM286.755 114.707C287.255 115.351 287.773 115.947 288.309 116.495L284.273 116.495L286.755 114.707ZM288.059 113.76L310.326 97.5646L301.808 123.788C296.394 121.833 291.654 118.365 288.148 113.796L288.059 113.76ZM301.308 125.307L300.433 128.436L299.165 124.539C299.987 124.861 300.647 125.075 301.397 125.343L301.308 125.307ZM302.844 125.826C303.594 126.058 304.379 126.255 305.165 126.434L301.862 128.829L302.844 125.826ZM320.861 125.826L321.825 128.829L318.54 126.434C319.415 126.291 320.182 126.094 320.95 125.862L320.861 125.826ZM322.379 125.307C323.146 125.039 323.896 124.753 324.629 124.432L323.45 128.436L322.379 125.307ZM321.879 123.788L313.379 97.5646L335.7 113.796C332.177 118.387 327.411 121.868 321.968 123.824L321.879 123.788ZM335.378 116.638C335.938 116.03 336.455 115.434 336.932 114.85L339.503 116.638L335.378 116.638ZM337.896 113.474C338.36 112.812 338.771 112.115 339.181 111.418L340.449 115.333L337.896 113.474ZM336.61 112.526L314.415 96.2597L341.949 96.2597C341.81 102.071 339.986 107.716 336.699 112.509L336.61 112.526ZM343.556 96.2597L346.717 96.2597L343.431 98.655C343.503 97.9043 343.538 97.0999 343.556 96.2597ZM343.556 94.6509C343.556 93.8465 343.556 93.06 343.431 92.2735L346.717 94.6509L343.556 94.6509ZM341.949 94.6509L314.415 94.6509L336.699 78.4557C339.984 83.2424 341.808 88.8814 341.949 94.6867L341.949 94.6509ZM337.985 77.5083L340.539 75.7207L339.271 79.5997C338.86 78.9026 338.449 78.2054 337.985 77.544L337.985 77.5083ZM337.021 76.2213C336.539 75.5777 336.021 74.9521 335.485 74.4337L339.592 74.4337L337.021 76.2213ZM335.735 77.1687L313.468 93.3996L321.968 67.1762C327.411 69.132 332.177 72.6129 335.7 77.2044L335.735 77.1687ZM322.468 65.6211L323.45 62.6001L324.718 66.497C323.986 66.1931 323.2 65.8713 322.468 65.6568L322.468 65.6211ZM320.95 65.1027C320.182 64.8703 319.415 64.6737 318.629 64.4949L321.914 62.0996L320.95 65.1027ZM302.933 65.1027L301.951 62.0996L305.344 64.5307C304.469 64.7094 303.683 64.906 302.933 65.1384L302.933 65.1027ZM301.397 65.6211C300.647 65.8892 299.897 66.1573 299.165 66.497L300.433 62.6001L301.397 65.6211ZM301.897 67.1405L310.415 93.3996L288.148 77.2044C291.673 72.608 296.447 69.1262 301.897 67.1762L301.897 67.1405ZM288.398 74.2907C287.862 74.8985 287.344 75.4943 286.845 76.0782L284.273 74.2907L288.398 74.2907ZM285.88 77.4547C285.416 78.1161 285.005 78.8132 284.595 79.5104L283.327 75.5956L285.88 77.4547ZM287.184 78.4021L309.469 94.5973L281.934 94.5973C282.091 88.8335 283.915 83.239 287.184 78.4915L287.184 78.4021ZM280.345 94.6867L277.184 94.6867L280.452 92.3092C280.345 93.0958 280.345 93.8823 280.345 94.6867ZM280.755 100.675C281.278 103.784 282.265 106.798 283.684 109.613L283.505 109.613L281.238 116.62L247.025 116.62L274.684 96.4921L280.631 100.818L280.755 100.675ZM289.684 118.05C291.937 120.264 294.507 122.132 297.308 123.591L297.148 123.591L299.433 130.599L271.809 150.78L282.38 118.229L289.737 118.229L289.684 118.05ZM307.272 126.988L307.165 126.845C308.724 127.094 310.3 127.225 311.879 127.238C313.464 127.225 315.046 127.093 316.611 126.845L316.504 126.988L322.45 131.331L311.933 163.829L301.362 131.278L307.272 126.988ZM326.611 123.699L326.468 123.699C329.266 122.243 331.831 120.375 334.075 118.157L334.075 118.336L341.431 118.336L352.056 150.78L324.396 130.652L326.611 123.699ZM340.164 109.72C341.577 106.904 342.558 103.891 343.074 100.782L343.181 100.925L349.127 96.5993L376.805 116.727L342.663 116.727L340.378 109.72L340.164 109.72ZM343.074 90.3608C342.557 87.2524 341.576 84.2394 340.164 81.423L340.324 81.423L342.61 74.4158L376.805 74.4158L349.181 94.4722L343.235 90.1284L343.074 90.3608ZM334.146 72.9858C331.897 70.7732 329.334 68.9058 326.539 67.4444L326.682 67.4444L324.414 60.4372L352.074 40.3272L341.503 72.8785L334.146 72.8785L334.146 72.9858ZM316.575 64.048L316.682 64.191C315.117 63.9425 313.535 63.8111 311.951 63.7978C310.372 63.8103 308.796 63.9418 307.236 64.191L307.344 64.048L301.38 59.7221L311.951 27.1708L322.522 59.7221L316.575 64.048ZM297.219 67.3371L297.38 67.3371C294.582 68.8028 292.014 70.6696 289.755 72.8785L289.755 72.7177L282.398 72.7177L271.827 40.1663L299.487 60.3299L297.219 67.3371ZM283.684 81.3337C282.266 84.1493 281.279 87.1622 280.755 90.2714L280.648 90.1284L274.684 94.4722L247.025 74.3443L281.22 74.3443L283.488 81.3515L283.684 81.3337ZM224.758 116.62L213.883 96.2597L272.202 96.2597L244.293 116.62L224.758 116.62ZM244.864 118.229L279.381 118.229L232.133 152.55L228.954 129.741L244.864 118.229ZM253.792 163.919L233.115 153.855L280.345 119.498L269.631 152.389L253.792 163.919ZM264.953 172.034L271.006 153.372L298.933 133.065L280.863 188.605L264.953 172.034ZM305.076 185.083L282.398 189.105L300.433 133.566L311.147 166.439L305.076 185.083ZM318.879 185.083L312.826 166.439L323.539 133.566L341.467 189.105L318.879 185.083ZM358.913 172.034L342.967 188.605L324.986 133.065L352.895 153.461L358.913 172.034ZM354.234 152.371L343.521 119.498L390.804 153.855L370.109 163.919L354.234 152.371ZM394.875 129.723L391.697 152.532L344.628 118.229L379.144 118.229L394.875 129.723ZM379.555 116.602L351.663 96.2597L410 96.2597L399.179 116.584L379.555 116.602ZM399.197 74.3622L410.018 94.6688L351.663 94.6688L379.59 74.3622L399.197 74.3622ZM379.09 72.7534L344.628 72.7534L391.804 38.4324L394.983 61.2237L379.09 72.7534ZM370.162 27.0636L390.858 37.1275L343.663 71.4485L354.377 38.5933L370.162 27.0636ZM358.913 18.966L352.859 37.6101L324.986 57.9167L343.021 2.39534L358.913 18.966ZM318.807 5.91683L341.431 1.89484L323.45 57.4341L312.736 24.561L318.807 5.91683ZM305.004 5.91683L311.058 24.561L300.344 57.4341L282.309 1.89484L305.004 5.91683ZM264.881 18.966L280.827 2.39534L298.862 57.9167L270.935 37.6101L264.881 18.966ZM269.56 38.629L280.273 71.4842L233.079 37.1632L253.757 27.0993L269.56 38.629ZM228.954 61.2416L232.133 38.4503L279.327 72.7713L244.811 72.7713L228.954 61.2416ZM244.293 74.3801L272.202 94.6867L213.883 94.6867L224.704 74.3801L244.293 74.3801ZM219.758 153.765L211.348 163.615L202.92 153.765L211.348 113.76L219.758 153.765ZM202.92 38.8793L211.348 29.0299L219.758 38.8793L211.348 78.8847L202.92 38.8793ZM117.638 5.91683L140.28 1.89485L122.262 57.4341L111.549 24.561L117.638 5.91683ZM110.709 125.576C107.825 125.571 104.956 125.15 102.192 124.324L110.709 98.0473L119.263 124.324C116.488 125.156 113.606 125.577 110.709 125.576ZM110.709 65.4244C113.593 65.4286 116.461 65.8439 119.227 66.6579L110.709 92.8991L102.192 66.6579C104.959 65.8472 107.826 65.4319 110.709 65.4244ZM117.406 64.5307L120.691 62.1354L119.727 65.1384C118.995 64.9061 118.227 64.7094 117.441 64.5307L117.406 64.5307ZM101.781 65.1384L100.799 62.1354L104.103 64.5307C103.281 64.7094 102.495 64.9061 101.781 65.1384ZM100.246 65.6568C99.4956 65.925 98.7456 66.1931 98.0135 66.5327L99.2813 62.6359L100.246 65.6568ZM100.746 67.1763L109.227 93.3996L86.9605 77.2044C90.4853 72.608 95.259 69.1263 100.71 67.1763L100.746 67.1763ZM87.2462 74.3265C86.7105 74.9342 86.1926 75.5301 85.6927 76.114L83.1213 74.3265L87.2462 74.3265ZM84.7284 77.4904C84.2641 78.1518 83.8534 78.849 83.4428 79.5461L82.1392 75.685L84.7284 77.4904ZM86.0319 78.4378L108.281 94.6867L80.7464 94.6867C80.8867 88.8922 82.711 83.2643 85.9962 78.4915L86.0319 78.4378ZM79.1751 94.6331L75.9788 94.6331L79.2465 92.2556C79.1751 93.0958 79.1572 93.8823 79.1394 94.6867L79.1751 94.6331ZM79.1751 96.2419C79.1751 97.0463 79.1751 97.8507 79.2822 98.6372L75.9609 96.2597L79.1751 96.2419ZM80.7822 96.2419L108.281 96.2419L85.9962 112.509C82.7011 107.721 80.8763 102.073 80.7464 96.2597L80.7822 96.2419ZM84.7284 113.402L82.175 115.19L83.4428 111.275C83.8177 112.097 84.2284 112.795 84.6927 113.456L84.7284 113.402ZM85.6927 114.689C86.1926 115.333 86.7105 115.929 87.2462 116.477L83.0856 116.477L85.6927 114.689ZM86.9962 113.742L109.263 97.5468L100.71 123.824C95.259 121.874 90.4853 118.392 86.9605 113.796L86.9962 113.742ZM100.246 125.29L99.2456 128.436L97.9778 124.539C98.7099 124.861 99.4599 125.075 100.21 125.343L100.246 125.29ZM101.781 125.808C102.531 126.04 103.317 126.237 104.103 126.416L100.799 128.811L101.781 125.808ZM119.798 125.808L120.763 128.811L117.477 126.416C118.227 126.291 118.995 126.094 119.763 125.862L119.798 125.808ZM121.316 125.29C122.084 125.021 122.834 124.735 123.566 124.414L122.262 128.436L121.316 125.29ZM120.816 123.77L112.316 97.5468L134.548 113.796C131.016 118.393 126.236 121.874 120.78 123.824L120.816 123.77ZM134.316 116.62C134.875 116.012 135.393 115.416 135.869 114.832L138.44 116.62L134.316 116.62ZM136.833 113.456C137.298 112.795 137.708 112.097 138.119 111.4L139.28 115.315L136.833 113.456ZM135.548 112.509L113.227 96.2597L140.762 96.2597C140.622 102.071 138.799 107.716 135.512 112.509L135.548 112.509ZM142.369 96.2597L145.529 96.2597L142.244 98.655C142.315 97.9043 142.351 97.0999 142.369 96.2597ZM142.369 94.6509C142.369 93.8465 142.369 93.06 142.244 92.2735L145.529 94.6867L142.369 94.6509ZM140.762 94.6509L113.227 94.6509L135.512 78.4557C138.796 83.2424 140.62 88.8814 140.762 94.6867L140.762 94.6509ZM136.798 77.5083L139.351 75.7208L138.083 79.6355C137.673 78.9026 137.262 78.2054 136.798 77.5441L136.798 77.5083ZM135.833 76.2213C135.345 75.5777 134.827 74.9819 134.28 74.4337L138.405 74.4337L135.833 76.2213ZM134.548 77.1687L112.281 93.3996L120.78 67.1763C126.236 69.1259 131.016 72.6074 134.548 77.2044L134.548 77.1687ZM121.28 65.6211L122.262 62.6001L123.53 66.497C122.798 66.1931 122.048 65.8713 121.28 65.6568L121.28 65.6211ZM115.37 64.0123L115.37 64.1553C112.249 63.6309 109.063 63.6309 105.942 64.1553L106.049 64.0123L100.085 59.6864L110.709 27.1708L121.316 59.7221L115.37 64.0123ZM96.0136 67.3371L96.1743 67.3371C93.3747 68.7993 90.8055 70.6665 88.5497 72.8785L88.5497 72.7177L81.1929 72.7177L70.6219 40.1663L98.2992 60.3299L96.0136 67.3371ZM82.4785 81.3337C81.0607 84.1493 80.0736 87.1622 79.5501 90.2714L79.4429 90.1284L73.4968 94.4722L45.8373 74.3801L80.0322 74.3801L82.2999 81.3873L82.4785 81.3337ZM79.5501 100.675C80.0725 103.785 81.0597 106.798 82.4785 109.613L82.2999 109.613L80.0322 116.62L45.8373 116.62L73.4968 96.4921L79.4429 100.818L79.5501 100.675ZM88.4782 118.05C90.7286 120.269 93.2988 122.136 96.1029 123.591L95.9422 123.591L98.2278 130.599L70.6219 150.78L81.1929 118.229L88.5497 118.229L88.4782 118.05ZM106.067 126.988L105.96 126.845C109.081 127.367 112.267 127.367 115.388 126.845L115.388 126.988L121.334 131.331L110.709 163.829L100.174 131.278L106.067 126.988ZM125.405 123.699L125.244 123.699C128.051 122.248 130.622 120.38 132.869 118.157L132.869 118.336L140.226 118.336L150.868 150.78L123.209 130.652L125.405 123.699ZM138.958 109.72C140.371 106.904 141.352 103.891 141.869 100.782L141.976 100.925L147.922 96.5994L175.671 116.62L141.476 116.62L139.28 109.613L138.958 109.72ZM141.869 90.3608C141.351 87.2524 140.37 84.2395 138.958 81.423L139.119 81.423L141.404 74.4158L175.671 74.4158L147.993 94.4722L142.047 90.1284L141.869 90.3608ZM132.941 72.9858C130.689 70.7687 128.119 68.9009 125.316 67.4444L125.477 67.4444L123.209 60.3299L150.868 40.22L140.297 72.7713L132.941 72.7713L132.941 72.9858ZM103.853 5.97045L109.906 24.561L99.1921 57.4341L81.175 1.89485L103.853 5.97045ZM63.7293 19.0196L79.6751 2.44899L97.71 57.9167L69.7826 37.6102L63.7293 19.0196ZM68.4077 38.6827L79.1215 71.5379L31.9272 37.2169L52.5691 27.0815L68.4077 38.6827ZM27.7666 61.2416L30.9451 38.4503L78.1394 72.7713L43.6231 72.7713L27.7666 61.2416ZM43.1052 74.3801L71.0147 94.6867L12.6959 94.6867L23.5168 74.3801L43.1052 74.3801ZM23.4632 116.62L12.6959 96.2597L71.0147 96.2597L43.1052 116.62L23.4632 116.62ZM43.5695 118.229L78.1394 118.229L30.9451 152.55L27.7666 129.741L43.5695 118.229ZM52.4977 163.919L31.82 153.855L79.0858 119.498L68.372 152.371L52.4977 163.919ZM63.6579 172.034L69.7112 153.372L97.71 133.065L79.6751 188.605L63.6579 172.034ZM103.853 185.083L81.2107 189.105L99.2456 133.566L109.959 166.439L103.853 185.083ZM117.638 185.083L111.584 166.439L122.298 133.566L140.28 189.105L117.638 185.083ZM157.761 172.034L141.815 188.605L123.78 133.065L151.779 153.461L157.761 172.034ZM153.083 152.371L142.369 119.498L189.599 153.855L168.921 163.919L153.083 152.371ZM193.724 129.723L190.545 152.532L143.369 118.211L177.885 118.211L193.724 129.723ZM178.403 116.602L150.476 96.2597L208.812 96.2597L197.991 116.584L178.403 116.602ZM198.045 74.3622L208.866 94.6688L150.476 94.6688L178.403 74.3801L198.045 74.3622ZM177.939 72.7534L143.351 72.7534L190.545 38.4324L193.724 61.2237L177.939 72.7534ZM169.01 27.0636L189.688 37.1275L142.422 71.4664L153.136 38.6112L169.01 27.0636ZM123.78 57.9167L141.815 2.39535L157.761 18.966L151.779 37.6101L123.78 57.9167Z" fill="url(#paint0_linear_34_1387)" fill-opacity="0.2"/>
</g>
<defs>
<linearGradient id="paint0_linear_34_1387" x1="653.5" y1="191" x2="649.5" y2="-28.5" gradientUnits="userSpaceOnUse">
<stop stop-color="white"/>
<stop offset="1" stop-color="white" stop-opacity="0"/>
</linearGradient>
<clipPath id="clip0_34_1387">
<rect width="191" height="1217" fill="white" transform="translate(0 191) rotate(-90)"/>
</clipPath>
</defs>
</svg>
