<svg width="27" height="28" viewBox="0 0 27 28" fill="none" xmlns="http://www.w3.org/2000/svg">
<g clip-path="url(#clip0_34_1446)">
<path d="M13.6728 6.83538C9.89796 6.83538 6.85319 9.89133 6.85319 13.68C6.85319 17.4687 9.89796 20.5246 13.6728 20.5246C17.4475 20.5246 20.4923 17.4687 20.4923 13.68C20.4923 9.89133 17.4475 6.83538 13.6728 6.83538ZM13.6728 18.1299C11.2334 18.1299 9.23915 16.1343 9.23915 13.68C9.23915 11.2257 11.2274 9.2301 13.6728 9.2301C16.1181 9.2301 18.1064 11.2257 18.1064 13.68C18.1064 16.1343 16.1121 18.1299 13.6728 18.1299ZM22.3619 6.5554C22.3619 7.44299 21.6497 8.15188 20.7713 8.15188C19.8869 8.15188 19.1806 7.43704 19.1806 6.5554C19.1806 5.67375 19.8929 4.95891 20.7713 4.95891C21.6497 4.95891 22.3619 5.67375 22.3619 6.5554ZM26.8786 8.17571C26.7777 6.03713 26.291 4.1428 24.73 2.58206C23.175 1.02131 21.2876 0.532837 19.1569 0.42561C16.9609 0.300513 10.3787 0.300513 8.18268 0.42561C6.05788 0.52688 4.17048 1.01536 2.60952 2.5761C1.04856 4.13684 0.567806 6.03118 0.460972 8.16975C0.336333 10.3739 0.336333 16.9802 0.460972 19.1843C0.561871 21.3229 1.04856 23.2172 2.60952 24.778C4.17048 26.3387 6.05194 26.8272 8.18268 26.9344C10.3787 27.0595 16.9609 27.0595 19.1569 26.9344C21.2876 26.8331 23.175 26.3447 24.73 24.778C26.2851 23.2172 26.7718 21.3229 26.8786 19.1843C27.0032 16.9802 27.0032 10.3798 26.8786 8.17571ZM24.0416 21.5492C23.5786 22.7168 22.6824 23.6163 21.5132 24.0869C19.7623 24.7839 15.6076 24.6231 13.6728 24.6231C11.7379 24.6231 7.57729 24.778 5.83234 24.0869C4.66904 23.6223 3.77282 22.7228 3.30394 21.5492C2.60952 19.7919 2.76977 15.622 2.76977 13.68C2.76977 11.738 2.61545 7.56213 3.30394 5.81077C3.76688 4.64319 4.6631 3.74368 5.83234 3.27307C7.58322 2.5761 11.7379 2.73694 13.6728 2.73694C15.6076 2.73694 19.7682 2.58206 21.5132 3.27307C22.6765 3.73772 23.5727 4.63723 24.0416 5.81077C24.736 7.56809 24.5757 11.738 24.5757 13.68C24.5757 15.622 24.736 19.7979 24.0416 21.5492Z" fill="#181818"/>
</g>
<defs>
<clipPath id="clip0_34_1446">
<rect width="26.5897" height="27.3718" fill="#181818" transform="translate(0.371826)"/>
</clipPath>
</defs>
</svg>
