<svg width="28" height="28" viewBox="0 0 28 28" fill="none" xmlns="http://www.w3.org/2000/svg">
<g clip-path="url(#clip0_34_1444)">
<path d="M13.6859 0.00012207C6.12732 0.00012207 0 6.12745 0 13.686C0 21.2445 6.12732 27.3719 13.6859 27.3719C21.2444 27.3719 27.3718 21.2445 27.3718 13.686C27.3717 6.12745 21.2443 0.00012207 13.6859 0.00012207ZM10.0345 20.3025H7.02958V10.5946H10.0345V20.3025ZM8.5177 9.32328C7.53634 9.32328 6.74078 8.52123 6.74078 7.53201C6.74078 6.54268 7.53645 5.74068 8.5177 5.74068C9.49895 5.74068 10.2945 6.54268 10.2945 7.53201C10.2946 8.52128 9.499 9.32328 8.5177 9.32328ZM21.2952 20.3025H18.3049V15.2067C18.3049 13.809 17.774 13.0288 16.6689 13.0288C15.4661 13.0288 14.8377 13.8414 14.8377 15.2067V20.3025H11.9557V10.5946H14.8377V11.9021C14.8377 11.9021 15.7047 10.2985 17.7631 10.2985C19.8217 10.2985 21.2953 11.5554 21.2953 14.1556L21.2952 20.3025Z" fill="white"/>
</g>
<defs>
<clipPath id="clip0_34_1444">
<rect width="27.3718" height="27.3718" fill="white"/>
</clipPath>
</defs>
</svg>
