<svg width="206" height="56" viewBox="0 0 206 56" fill="none" xmlns="http://www.w3.org/2000/svg">
<path d="M69.4941 13.9932H71.2373L75.5786 22.5762C76.1763 21.4694 76.7573 20.3903 77.3218 19.3389C77.5597 18.8906 77.806 18.4258 78.0605 17.9443C78.3151 17.4629 78.5641 16.9897 78.8076 16.5249C79.0566 16.0545 79.2918 15.6035 79.5132 15.1719C79.7345 14.7402 79.9338 14.3473 80.1108 13.9932H81.6548V25H80.1274V15.9771L75.5039 25H75.1553L70.3159 15.5952V25H69.4941V13.9932ZM86.3447 16.5V22.5513C86.3447 22.7616 86.3973 22.9608 86.5024 23.1489C86.6131 23.3371 86.7598 23.5003 86.9424 23.6387C87.125 23.777 87.3381 23.8877 87.5815 23.9707C87.8306 24.0482 88.0962 24.0869 88.3784 24.0869C88.5666 24.0869 88.7575 24.0426 88.9512 23.9541C89.1504 23.8656 89.3441 23.7466 89.5322 23.5972C89.7259 23.4478 89.9085 23.2762 90.0801 23.0825C90.2572 22.8888 90.4149 22.6896 90.5532 22.4849V16.5H91.8979V25H90.5532V23.5059C90.3208 23.7881 90.0745 24.0343 89.8145 24.2446C89.5544 24.4494 89.2915 24.6237 89.0259 24.7676C88.7603 24.9059 88.4974 25.0083 88.2373 25.0747C87.9827 25.1466 87.7393 25.1826 87.5068 25.1826C87.1582 25.1826 86.8317 25.1134 86.5273 24.9751C86.223 24.8368 85.9546 24.6486 85.7222 24.4106C85.4953 24.1727 85.3154 23.8932 85.1826 23.5723C85.0498 23.2513 84.9834 22.911 84.9834 22.5513V16.5H86.3447ZM96.9033 13.6113H97.1606V16.5H99.0532V17.2222H97.1606V23.207C97.1606 23.3343 97.1883 23.4533 97.2437 23.564C97.299 23.6746 97.3737 23.7715 97.4678 23.8545C97.5674 23.9375 97.6808 24.0039 97.8081 24.0537C97.9409 24.098 98.0848 24.1201 98.2397 24.1201C98.4722 24.1201 98.6686 24.0814 98.8291 24.0039C98.9896 23.9264 99.1169 23.8324 99.2109 23.7217L99.46 23.8877C99.2275 24.2861 98.9342 24.6016 98.5801 24.834C98.2314 25.0664 97.8053 25.1826 97.3018 25.1826C97.0472 25.1826 96.8258 25.1328 96.6377 25.0332C96.4495 24.9391 96.2946 24.8063 96.1729 24.6348C96.0511 24.4577 95.9598 24.2502 95.8989 24.0122C95.8381 23.7687 95.8076 23.5003 95.8076 23.207V17.2222H94.3301V16.8735L95.6831 16.5H95.8076V14.043L96.9033 13.6113ZM102.116 16.7822L103.195 16.3423H103.461V25H102.116V16.7822ZM101.983 13.2461C101.983 13.1133 102.003 12.9888 102.042 12.8726C102.086 12.7563 102.144 12.654 102.216 12.5654C102.288 12.4769 102.371 12.4077 102.465 12.3579C102.564 12.3081 102.67 12.2832 102.78 12.2832C102.891 12.2832 102.993 12.3081 103.087 12.3579C103.187 12.4077 103.273 12.4769 103.345 12.5654C103.417 12.654 103.472 12.7563 103.511 12.8726C103.555 12.9888 103.577 13.1133 103.577 13.2461C103.577 13.3789 103.555 13.5034 103.511 13.6196C103.472 13.7358 103.417 13.8382 103.345 13.9268C103.273 14.0153 103.187 14.0845 103.087 14.1343C102.993 14.1841 102.891 14.209 102.78 14.209C102.67 14.209 102.564 14.1841 102.465 14.1343C102.371 14.0845 102.288 14.0153 102.216 13.9268C102.144 13.8382 102.086 13.7358 102.042 13.6196C102.003 13.5034 101.983 13.3789 101.983 13.2461ZM106.897 12.5986L107.985 12.167H108.259V17.9028C108.475 17.6649 108.71 17.4491 108.964 17.2554C109.224 17.0617 109.487 16.8984 109.753 16.7656C110.024 16.6273 110.295 16.5221 110.566 16.4502C110.838 16.3783 111.095 16.3423 111.338 16.3423C111.809 16.3423 112.24 16.4419 112.633 16.6411C113.026 16.8403 113.364 17.1115 113.646 17.4546C113.934 17.7977 114.158 18.1989 114.318 18.6582C114.479 19.112 114.559 19.599 114.559 20.1191C114.559 20.8219 114.44 21.4805 114.202 22.0947C113.964 22.709 113.638 23.2458 113.223 23.7051C112.813 24.1589 112.329 24.5186 111.77 24.7842C111.217 25.0498 110.625 25.1826 109.994 25.1826C109.396 25.1826 108.834 25.1051 108.309 24.9502C107.783 24.7897 107.312 24.549 106.897 24.228V12.5986ZM108.259 23.6138H108.309C108.414 23.7134 108.53 23.8158 108.657 23.9209C108.785 24.026 108.928 24.1229 109.089 24.2114C109.249 24.2944 109.432 24.3636 109.637 24.4189C109.847 24.4688 110.085 24.4937 110.351 24.4937C110.766 24.4937 111.145 24.3996 111.488 24.2114C111.831 24.0177 112.124 23.7521 112.368 23.4146C112.611 23.0715 112.799 22.6675 112.932 22.2026C113.065 21.7323 113.131 21.2204 113.131 20.667C113.131 20.2464 113.062 19.8535 112.924 19.4883C112.785 19.1175 112.597 18.7965 112.359 18.5254C112.121 18.2487 111.839 18.0329 111.513 17.8779C111.192 17.7174 110.849 17.6372 110.483 17.6372C110.273 17.6372 110.057 17.6649 109.836 17.7202C109.62 17.7756 109.413 17.8503 109.213 17.9443C109.02 18.0384 108.843 18.1491 108.682 18.2764C108.522 18.3981 108.392 18.5309 108.292 18.6748H108.259V23.6138ZM124.777 12.5986L125.865 12.167H126.139V17.9028C126.354 17.6649 126.59 17.4491 126.844 17.2554C127.104 17.0617 127.367 16.8984 127.633 16.7656C127.904 16.6273 128.175 16.5221 128.446 16.4502C128.717 16.3783 128.975 16.3423 129.218 16.3423C129.689 16.3423 130.12 16.4419 130.513 16.6411C130.906 16.8403 131.244 17.1115 131.526 17.4546C131.814 17.7977 132.038 18.1989 132.198 18.6582C132.359 19.112 132.439 19.599 132.439 20.1191C132.439 20.8219 132.32 21.4805 132.082 22.0947C131.844 22.709 131.518 23.2458 131.103 23.7051C130.693 24.1589 130.209 24.5186 129.65 24.7842C129.097 25.0498 128.504 25.1826 127.874 25.1826C127.276 25.1826 126.714 25.1051 126.188 24.9502C125.663 24.7897 125.192 24.549 124.777 24.228V12.5986ZM126.139 23.6138H126.188C126.294 23.7134 126.41 23.8158 126.537 23.9209C126.664 24.026 126.808 24.1229 126.969 24.2114C127.129 24.2944 127.312 24.3636 127.517 24.4189C127.727 24.4688 127.965 24.4937 128.23 24.4937C128.646 24.4937 129.025 24.3996 129.368 24.2114C129.711 24.0177 130.004 23.7521 130.248 23.4146C130.491 23.0715 130.679 22.6675 130.812 22.2026C130.945 21.7323 131.011 21.2204 131.011 20.667C131.011 20.2464 130.942 19.8535 130.804 19.4883C130.665 19.1175 130.477 18.7965 130.239 18.5254C130.001 18.2487 129.719 18.0329 129.393 17.8779C129.072 17.7174 128.729 17.6372 128.363 17.6372C128.153 17.6372 127.937 17.6649 127.716 17.7202C127.5 17.7756 127.292 17.8503 127.093 17.9443C126.9 18.0384 126.722 18.1491 126.562 18.2764C126.402 18.3981 126.271 18.5309 126.172 18.6748H126.139V23.6138ZM135.319 16.7822L136.398 16.3423H136.664V25H135.319V16.7822ZM135.187 13.2461C135.187 13.1133 135.206 12.9888 135.245 12.8726C135.289 12.7563 135.347 12.654 135.419 12.5654C135.491 12.4769 135.574 12.4077 135.668 12.3579C135.768 12.3081 135.873 12.2832 135.983 12.2832C136.094 12.2832 136.196 12.3081 136.291 12.3579C136.39 12.4077 136.476 12.4769 136.548 12.5654C136.62 12.654 136.675 12.7563 136.714 12.8726C136.758 12.9888 136.78 13.1133 136.78 13.2461C136.78 13.3789 136.758 13.5034 136.714 13.6196C136.675 13.7358 136.62 13.8382 136.548 13.9268C136.476 14.0153 136.39 14.0845 136.291 14.1343C136.196 14.1841 136.094 14.209 135.983 14.209C135.873 14.209 135.768 14.1841 135.668 14.1343C135.574 14.0845 135.491 14.0153 135.419 13.9268C135.347 13.8382 135.289 13.7358 135.245 13.6196C135.206 13.5034 135.187 13.3789 135.187 13.2461ZM141.205 16.3423H141.462V17.9941C142.12 17.4186 142.726 17.0008 143.28 16.7407C143.839 16.4751 144.384 16.3423 144.915 16.3423C145.186 16.3423 145.441 16.4087 145.679 16.5415C145.922 16.6743 146.132 16.8569 146.31 17.0894C146.487 17.3218 146.625 17.5957 146.725 17.9111C146.83 18.221 146.882 18.5531 146.882 18.9072V25H145.529V19.1978C145.529 18.9155 145.491 18.6693 145.413 18.459C145.341 18.2432 145.236 18.0633 145.098 17.9194C144.965 17.7756 144.804 17.6676 144.616 17.5957C144.434 17.5182 144.232 17.4795 144.01 17.4795C143.817 17.4795 143.612 17.5182 143.396 17.5957C143.18 17.6676 142.962 17.7673 142.74 17.8945C142.524 18.0163 142.306 18.1602 142.084 18.3262C141.869 18.4922 141.661 18.6665 141.462 18.8491V25H140.101V16.7739L141.205 16.3423ZM161.674 13.7441L166.854 25H165.269L163.592 21.3311H158.719L157.001 25H156.104L161.367 13.7441H161.674ZM159.06 20.6172H163.251L161.143 16.1431L159.06 20.6172ZM168.705 12.5986L169.792 12.167H170.066V17.9028C170.282 17.6649 170.517 17.4491 170.772 17.2554C171.032 17.0617 171.295 16.8984 171.561 16.7656C171.832 16.6273 172.103 16.5221 172.374 16.4502C172.645 16.3783 172.903 16.3423 173.146 16.3423C173.616 16.3423 174.048 16.4419 174.441 16.6411C174.834 16.8403 175.171 17.1115 175.454 17.4546C175.741 17.7977 175.965 18.1989 176.126 18.6582C176.286 19.112 176.367 19.599 176.367 20.1191C176.367 20.8219 176.248 21.4805 176.01 22.0947C175.772 22.709 175.445 23.2458 175.03 23.7051C174.621 24.1589 174.137 24.5186 173.578 24.7842C173.024 25.0498 172.432 25.1826 171.801 25.1826C171.204 25.1826 170.642 25.1051 170.116 24.9502C169.59 24.7897 169.12 24.549 168.705 24.228V12.5986ZM170.066 23.6138H170.116C170.221 23.7134 170.338 23.8158 170.465 23.9209C170.592 24.026 170.736 24.1229 170.896 24.2114C171.057 24.2944 171.24 24.3636 171.444 24.4189C171.655 24.4688 171.893 24.4937 172.158 24.4937C172.573 24.4937 172.952 24.3996 173.295 24.2114C173.639 24.0177 173.932 23.7521 174.175 23.4146C174.419 23.0715 174.607 22.6675 174.74 22.2026C174.873 21.7323 174.939 21.2204 174.939 20.667C174.939 20.2464 174.87 19.8535 174.731 19.4883C174.593 19.1175 174.405 18.7965 174.167 18.5254C173.929 18.2487 173.647 18.0329 173.32 17.8779C172.999 17.7174 172.656 17.6372 172.291 17.6372C172.081 17.6372 171.865 17.6649 171.644 17.7202C171.428 17.7756 171.22 17.8503 171.021 17.9443C170.827 18.0384 170.65 18.1491 170.49 18.2764C170.329 18.3981 170.199 18.5309 170.1 18.6748H170.066V23.6138ZM184.941 24.1782C184.67 24.383 184.405 24.5518 184.145 24.6846C183.884 24.8118 183.627 24.9142 183.373 24.9917C183.124 25.0636 182.88 25.1134 182.642 25.1411C182.41 25.1688 182.183 25.1826 181.961 25.1826C181.486 25.1826 181.04 25.0664 180.625 24.834C180.21 24.6016 179.847 24.2889 179.538 23.896C179.233 23.5031 178.99 23.0465 178.807 22.5264C178.63 22.0007 178.542 21.4473 178.542 20.8662C178.542 20.2907 178.655 19.7318 178.882 19.1895C179.109 18.6471 179.416 18.1657 179.803 17.7451C180.191 17.319 180.644 16.9787 181.165 16.7241C181.685 16.4696 182.241 16.3423 182.833 16.3423C183.016 16.3423 183.187 16.3534 183.348 16.3755C183.514 16.3921 183.677 16.4281 183.837 16.4834C184.003 16.5387 184.175 16.619 184.352 16.7241C184.529 16.8293 184.726 16.9648 184.941 17.1309V12.6069L186.021 12.167H186.286V25H184.941V24.1782ZM184.941 19.2061C184.941 18.874 184.875 18.5724 184.742 18.3013C184.609 18.0246 184.435 17.7894 184.219 17.5957C184.003 17.3965 183.76 17.2443 183.489 17.1392C183.218 17.0285 182.944 16.9731 182.667 16.9731C182.307 16.9731 181.97 17.0562 181.654 17.2222C181.339 17.3882 181.065 17.6234 180.833 17.9277C180.6 18.2266 180.415 18.5863 180.276 19.0068C180.144 19.4219 180.077 19.8812 180.077 20.3848C180.077 20.9271 180.149 21.4334 180.293 21.9038C180.442 22.3742 180.644 22.7865 180.899 23.1406C181.159 23.4893 181.461 23.766 181.804 23.9707C182.147 24.1699 182.515 24.2695 182.908 24.2695C183.107 24.2695 183.303 24.2474 183.497 24.2031C183.691 24.1533 183.873 24.0897 184.045 24.0122C184.222 23.9292 184.382 23.8351 184.526 23.73C184.67 23.6248 184.795 23.5142 184.9 23.3979H184.941V19.2061ZM190.951 16.5V22.5513C190.951 22.7616 191.004 22.9608 191.109 23.1489C191.22 23.3371 191.366 23.5003 191.549 23.6387C191.731 23.777 191.944 23.8877 192.188 23.9707C192.437 24.0482 192.703 24.0869 192.985 24.0869C193.173 24.0869 193.364 24.0426 193.558 23.9541C193.757 23.8656 193.951 23.7466 194.139 23.5972C194.332 23.4478 194.515 23.2762 194.687 23.0825C194.864 22.8888 195.021 22.6896 195.16 22.4849V16.5H196.504V25H195.16V23.5059C194.927 23.7881 194.681 24.0343 194.421 24.2446C194.161 24.4494 193.898 24.6237 193.632 24.7676C193.367 24.9059 193.104 25.0083 192.844 25.0747C192.589 25.1466 192.346 25.1826 192.113 25.1826C191.765 25.1826 191.438 25.1134 191.134 24.9751C190.829 24.8368 190.561 24.6486 190.329 24.4106C190.102 24.1727 189.922 23.8932 189.789 23.5723C189.656 23.2513 189.59 22.911 189.59 22.5513V16.5H190.951ZM201.194 25H199.833V12.6069L200.929 12.167H201.194V25ZM73.6528 34.7441L78.8325 46H77.2471L75.5703 42.3311H70.6978L68.9795 46H68.083L73.3457 34.7441H73.6528ZM71.0381 41.6172H75.23L73.1216 37.1431L71.0381 41.6172ZM79.3555 45.5103L85.4233 38.2139H79.3555V37.5H87.5317V37.915L81.3228 45.2861H87.5317V46H79.3555V45.5103ZM89.6816 37.7822L90.7607 37.3423H91.0264V46H89.6816V37.7822ZM89.5488 34.2461C89.5488 34.1133 89.5682 33.9888 89.6069 33.8726C89.6512 33.7563 89.7093 33.654 89.7812 33.5654C89.8532 33.4769 89.9362 33.4077 90.0303 33.3579C90.1299 33.3081 90.235 33.2832 90.3457 33.2832C90.4564 33.2832 90.5588 33.3081 90.6528 33.3579C90.7524 33.4077 90.8382 33.4769 90.9102 33.5654C90.9821 33.654 91.0374 33.7563 91.0762 33.8726C91.1204 33.9888 91.1426 34.1133 91.1426 34.2461C91.1426 34.3789 91.1204 34.5034 91.0762 34.6196C91.0374 34.7358 90.9821 34.8382 90.9102 34.9268C90.8382 35.0153 90.7524 35.0845 90.6528 35.1343C90.5588 35.1841 90.4564 35.209 90.3457 35.209C90.235 35.209 90.1299 35.1841 90.0303 35.1343C89.9362 35.0845 89.8532 35.0153 89.7812 34.9268C89.7093 34.8382 89.6512 34.7358 89.6069 34.6196C89.5682 34.5034 89.5488 34.3789 89.5488 34.2461ZM93.1348 45.5103L99.2026 38.2139H93.1348V37.5H101.311V37.915L95.1021 45.2861H101.311V46H93.1348V45.5103ZM117.572 34.9932V35.707H112.202V39.6416H116.086V40.3555H112.202V46H110.683V34.9932H117.572ZM123.25 46.1826C122.625 46.1826 122.046 46.0692 121.515 45.8423C120.989 45.6154 120.533 45.3083 120.146 44.9209C119.764 44.528 119.465 44.0715 119.249 43.5513C119.033 43.0256 118.925 42.4639 118.925 41.8662C118.925 41.2409 119.033 40.6543 119.249 40.1064C119.465 39.5531 119.764 39.0716 120.146 38.6621C120.533 38.2526 120.989 37.9316 121.515 37.6992C122.046 37.4613 122.625 37.3423 123.25 37.3423C123.87 37.3423 124.443 37.4502 124.968 37.666C125.494 37.8818 125.948 38.1779 126.33 38.5542C126.717 38.9305 127.019 39.3732 127.234 39.8823C127.45 40.3859 127.558 40.9282 127.558 41.5093C127.558 42.1512 127.45 42.7572 127.234 43.3271C127.019 43.8916 126.717 44.3869 126.33 44.813C125.948 45.2336 125.494 45.5684 124.968 45.8174C124.443 46.0609 123.87 46.1826 123.25 46.1826ZM123.574 45.5601C123.928 45.5601 124.252 45.4743 124.545 45.3027C124.844 45.1312 125.101 44.9015 125.317 44.6138C125.533 44.3205 125.699 43.9829 125.815 43.6011C125.937 43.2192 125.998 42.8153 125.998 42.3892C125.998 41.7749 125.942 41.1994 125.832 40.6626C125.721 40.1258 125.538 39.6582 125.284 39.2598C125.035 38.8613 124.708 38.5487 124.304 38.3218C123.906 38.0894 123.416 37.9731 122.835 37.9731C122.531 37.9731 122.235 38.0562 121.947 38.2222C121.665 38.3826 121.413 38.604 121.191 38.8862C120.976 39.1685 120.801 39.5005 120.668 39.8823C120.541 40.2586 120.478 40.6598 120.478 41.0859C120.478 41.7057 120.547 42.2868 120.685 42.8291C120.823 43.3714 121.023 43.8446 121.283 44.2485C121.548 44.6525 121.872 44.9735 122.254 45.2114C122.641 45.4438 123.081 45.5601 123.574 45.5601ZM131.65 37.5V43.5513C131.65 43.7616 131.703 43.9608 131.808 44.1489C131.919 44.3371 132.065 44.5003 132.248 44.6387C132.431 44.777 132.644 44.8877 132.887 44.9707C133.136 45.0482 133.402 45.0869 133.684 45.0869C133.872 45.0869 134.063 45.0426 134.257 44.9541C134.456 44.8656 134.65 44.7466 134.838 44.5972C135.032 44.4478 135.214 44.2762 135.386 44.0825C135.563 43.8888 135.721 43.6896 135.859 43.4849V37.5H137.204V46H135.859V44.5059C135.626 44.7881 135.38 45.0343 135.12 45.2446C134.86 45.4494 134.597 45.6237 134.332 45.7676C134.066 45.9059 133.803 46.0083 133.543 46.0747C133.288 46.1466 133.045 46.1826 132.812 46.1826C132.464 46.1826 132.137 46.1134 131.833 45.9751C131.529 45.8368 131.26 45.6486 131.028 45.4106C130.801 45.1727 130.621 44.8932 130.488 44.5723C130.355 44.2513 130.289 43.911 130.289 43.5513V37.5H131.65ZM141.636 37.3423H141.894V38.9941C142.552 38.4186 143.158 38.0008 143.711 37.7407C144.27 37.4751 144.815 37.3423 145.347 37.3423C145.618 37.3423 145.872 37.4087 146.11 37.5415C146.354 37.6743 146.564 37.8569 146.741 38.0894C146.918 38.3218 147.057 38.5957 147.156 38.9111C147.261 39.221 147.314 39.5531 147.314 39.9072V46H145.961V40.1978C145.961 39.9155 145.922 39.6693 145.845 39.459C145.773 39.2432 145.668 39.0633 145.529 38.9194C145.396 38.7756 145.236 38.6676 145.048 38.5957C144.865 38.5182 144.663 38.4795 144.442 38.4795C144.248 38.4795 144.043 38.5182 143.828 38.5957C143.612 38.6676 143.393 38.7673 143.172 38.8945C142.956 39.0163 142.737 39.1602 142.516 39.3262C142.3 39.4922 142.093 39.6665 141.894 39.8491V46H140.532V37.7739L141.636 37.3423ZM156.47 45.1782C156.199 45.383 155.933 45.5518 155.673 45.6846C155.413 45.8118 155.155 45.9142 154.901 45.9917C154.652 46.0636 154.408 46.1134 154.17 46.1411C153.938 46.1688 153.711 46.1826 153.49 46.1826C153.014 46.1826 152.568 46.0664 152.153 45.834C151.738 45.6016 151.376 45.2889 151.066 44.896C150.762 44.5031 150.518 44.0465 150.335 43.5264C150.158 43.0007 150.07 42.4473 150.07 41.8662C150.07 41.2907 150.183 40.7318 150.41 40.1895C150.637 39.6471 150.944 39.1657 151.332 38.7451C151.719 38.319 152.173 37.9787 152.693 37.7241C153.213 37.4696 153.769 37.3423 154.361 37.3423C154.544 37.3423 154.715 37.3534 154.876 37.3755C155.042 37.3921 155.205 37.4281 155.366 37.4834C155.532 37.5387 155.703 37.619 155.88 37.7241C156.057 37.8293 156.254 37.9648 156.47 38.1309V33.6069L157.549 33.167H157.814V46H156.47V45.1782ZM156.47 40.2061C156.47 39.874 156.403 39.5724 156.271 39.3013C156.138 39.0246 155.963 38.7894 155.748 38.5957C155.532 38.3965 155.288 38.2443 155.017 38.1392C154.746 38.0285 154.472 37.9731 154.195 37.9731C153.836 37.9731 153.498 38.0562 153.183 38.2222C152.867 38.3882 152.593 38.6234 152.361 38.9277C152.128 39.2266 151.943 39.5863 151.805 40.0068C151.672 40.4219 151.605 40.8812 151.605 41.3848C151.605 41.9271 151.677 42.4334 151.821 42.9038C151.971 43.3742 152.173 43.7865 152.427 44.1406C152.687 44.4893 152.989 44.766 153.332 44.9707C153.675 45.1699 154.043 45.2695 154.436 45.2695C154.635 45.2695 154.832 45.2474 155.025 45.2031C155.219 45.1533 155.402 45.0897 155.573 45.0122C155.75 44.9292 155.911 44.8351 156.055 44.73C156.199 44.6248 156.323 44.5142 156.428 44.3979H156.47V40.2061ZM166.979 44.8379C166.979 45.0924 167.056 45.3221 167.211 45.5269C167.366 45.7316 167.56 45.8893 167.792 46H166.314C166.121 45.9059 165.955 45.7593 165.816 45.5601C165.684 45.3553 165.617 45.1146 165.617 44.8379C165.451 44.9541 165.266 45.0897 165.061 45.2446C164.862 45.3996 164.638 45.5462 164.389 45.6846C164.14 45.8229 163.863 45.9391 163.559 46.0332C163.254 46.1328 162.917 46.1826 162.546 46.1826C162.236 46.1826 161.957 46.1273 161.708 46.0166C161.464 45.9115 161.257 45.7648 161.085 45.5767C160.913 45.3885 160.781 45.1644 160.687 44.9043C160.592 44.6442 160.545 44.3647 160.545 44.0659C160.545 43.6951 160.615 43.3604 160.753 43.0615C160.897 42.7627 161.09 42.4943 161.334 42.2563C161.583 42.0129 161.871 41.7998 162.197 41.6172C162.529 41.429 162.883 41.263 163.26 41.1191C163.636 40.9697 164.026 40.8397 164.43 40.729C164.834 40.6183 165.23 40.516 165.617 40.4219V39.9819C165.617 39.5946 165.587 39.2681 165.526 39.0024C165.465 38.7368 165.368 38.5238 165.235 38.3633C165.108 38.1973 164.945 38.0811 164.746 38.0146C164.546 37.9427 164.306 37.9067 164.023 37.9067C163.763 37.9067 163.523 37.9538 163.301 38.0479C163.08 38.1419 162.886 38.2692 162.72 38.4297C162.554 38.5846 162.419 38.77 162.313 38.9858C162.208 39.1961 162.139 39.4202 162.106 39.6582H160.894C160.938 39.293 161.06 38.9665 161.259 38.6787C161.458 38.391 161.708 38.1502 162.006 37.9565C162.311 37.7573 162.651 37.6051 163.027 37.5C163.409 37.3949 163.805 37.3423 164.214 37.3423C164.74 37.3423 165.18 37.3976 165.534 37.5083C165.888 37.6134 166.171 37.7629 166.381 37.9565C166.597 38.1502 166.749 38.3882 166.837 38.6704C166.931 38.9471 166.979 39.2542 166.979 39.5918V44.8379ZM165.617 41.0527C165.191 41.1689 164.757 41.3156 164.314 41.4927C163.871 41.6642 163.47 41.8579 163.11 42.0737C162.756 42.2896 162.466 42.5275 162.239 42.7876C162.012 43.0477 161.898 43.3244 161.898 43.6177C161.898 43.828 161.94 44.0272 162.023 44.2153C162.111 44.3979 162.228 44.5612 162.372 44.7051C162.515 44.8434 162.679 44.9541 162.861 45.0371C163.049 45.1146 163.243 45.1533 163.442 45.1533C163.658 45.1533 163.857 45.1229 164.04 45.062C164.228 45.0011 164.408 44.9237 164.58 44.8296C164.751 44.73 164.92 44.6193 165.086 44.4976C165.257 44.3703 165.435 44.2402 165.617 44.1074V41.0527ZM171.727 34.6113H171.984V37.5H173.876V38.2222H171.984V44.207C171.984 44.3343 172.012 44.4533 172.067 44.564C172.122 44.6746 172.197 44.7715 172.291 44.8545C172.391 44.9375 172.504 45.0039 172.631 45.0537C172.764 45.098 172.908 45.1201 173.063 45.1201C173.295 45.1201 173.492 45.0814 173.652 45.0039C173.813 44.9264 173.94 44.8324 174.034 44.7217L174.283 44.8877C174.051 45.2861 173.757 45.6016 173.403 45.834C173.055 46.0664 172.629 46.1826 172.125 46.1826C171.87 46.1826 171.649 46.1328 171.461 46.0332C171.273 45.9391 171.118 45.8063 170.996 45.6348C170.874 45.4577 170.783 45.2502 170.722 45.0122C170.661 44.7687 170.631 44.5003 170.631 44.207V38.2222H169.153V37.8735L170.506 37.5H170.631V35.043L171.727 34.6113ZM176.939 37.7822L178.019 37.3423H178.284V46H176.939V37.7822ZM176.807 34.2461C176.807 34.1133 176.826 33.9888 176.865 33.8726C176.909 33.7563 176.967 33.654 177.039 33.5654C177.111 33.4769 177.194 33.4077 177.288 33.3579C177.388 33.3081 177.493 33.2832 177.604 33.2832C177.714 33.2832 177.817 33.3081 177.911 33.3579C178.01 33.4077 178.096 33.4769 178.168 33.5654C178.24 33.654 178.295 33.7563 178.334 33.8726C178.378 33.9888 178.4 34.1133 178.4 34.2461C178.4 34.3789 178.378 34.5034 178.334 34.6196C178.295 34.7358 178.24 34.8382 178.168 34.9268C178.096 35.0153 178.01 35.0845 177.911 35.1343C177.817 35.1841 177.714 35.209 177.604 35.209C177.493 35.209 177.388 35.1841 177.288 35.1343C177.194 35.0845 177.111 35.0153 177.039 34.9268C176.967 34.8382 176.909 34.7358 176.865 34.6196C176.826 34.5034 176.807 34.3789 176.807 34.2461ZM185.473 46.1826C184.847 46.1826 184.269 46.0692 183.738 45.8423C183.212 45.6154 182.756 45.3083 182.368 44.9209C181.986 44.528 181.688 44.0715 181.472 43.5513C181.256 43.0256 181.148 42.4639 181.148 41.8662C181.148 41.2409 181.256 40.6543 181.472 40.1064C181.688 39.5531 181.986 39.0716 182.368 38.6621C182.756 38.2526 183.212 37.9316 183.738 37.6992C184.269 37.4613 184.847 37.3423 185.473 37.3423C186.092 37.3423 186.665 37.4502 187.191 37.666C187.717 37.8818 188.17 38.1779 188.552 38.5542C188.94 38.9305 189.241 39.3732 189.457 39.8823C189.673 40.3859 189.781 40.9282 189.781 41.5093C189.781 42.1512 189.673 42.7572 189.457 43.3271C189.241 43.8916 188.94 44.3869 188.552 44.813C188.17 45.2336 187.717 45.5684 187.191 45.8174C186.665 46.0609 186.092 46.1826 185.473 46.1826ZM185.796 45.5601C186.151 45.5601 186.474 45.4743 186.768 45.3027C187.066 45.1312 187.324 44.9015 187.54 44.6138C187.755 44.3205 187.921 43.9829 188.038 43.6011C188.159 43.2192 188.22 42.8153 188.22 42.3892C188.22 41.7749 188.165 41.1994 188.054 40.6626C187.944 40.1258 187.761 39.6582 187.506 39.2598C187.257 38.8613 186.931 38.5487 186.527 38.3218C186.128 38.0894 185.639 37.9731 185.058 37.9731C184.753 37.9731 184.457 38.0562 184.169 38.2222C183.887 38.3826 183.635 38.604 183.414 38.8862C183.198 39.1685 183.024 39.5005 182.891 39.8823C182.764 40.2586 182.7 40.6598 182.7 41.0859C182.7 41.7057 182.769 42.2868 182.908 42.8291C183.046 43.3714 183.245 43.8446 183.505 44.2485C183.771 44.6525 184.095 44.9735 184.477 45.2114C184.864 45.4438 185.304 45.5601 185.796 45.5601ZM193.616 37.3423H193.873V38.9941C194.532 38.4186 195.138 38.0008 195.691 37.7407C196.25 37.4751 196.795 37.3423 197.326 37.3423C197.597 37.3423 197.852 37.4087 198.09 37.5415C198.333 37.6743 198.544 37.8569 198.721 38.0894C198.898 38.3218 199.036 38.5957 199.136 38.9111C199.241 39.221 199.293 39.5531 199.293 39.9072V46H197.94V40.1978C197.94 39.9155 197.902 39.6693 197.824 39.459C197.752 39.2432 197.647 39.0633 197.509 38.9194C197.376 38.7756 197.215 38.6676 197.027 38.5957C196.845 38.5182 196.643 38.4795 196.421 38.4795C196.228 38.4795 196.023 38.5182 195.807 38.5957C195.591 38.6676 195.373 38.7673 195.151 38.8945C194.936 39.0163 194.717 39.1602 194.496 39.3262C194.28 39.4922 194.072 39.6665 193.873 39.8491V46H192.512V37.7739L193.616 37.3423Z" fill="#464646"/>
<rect x="27.5901" y="5.17948" width="32.0183" height="32.0183" transform="rotate(45 27.5901 5.17948)" stroke="url(#paint0_linear_49_1650)" stroke-width="7"/>
<defs>
<linearGradient id="paint0_linear_49_1650" x1="15.3431" y1="21.3442" x2="53.9453" y2="-14.5624" gradientUnits="userSpaceOnUse">
<stop stop-color="#00EFA4"/>
<stop offset="1" stop-color="#00956F"/>
</linearGradient>
</defs>
</svg>
