<svg width="531" height="354" viewBox="0 0 531 354" fill="none" xmlns="http://www.w3.org/2000/svg">
<g clip-path="url(#clip0_212_724)">
<path d="M433.355 261.909V86.7807C433.355 68.994 418.936 54.575 401.149 54.575L128.671 54.575C110.884 54.575 96.465 68.994 96.465 86.7807V261.909C96.465 279.696 110.884 294.115 128.671 294.115H401.149C418.936 294.115 433.355 279.696 433.355 261.909Z" fill="white" stroke="#E1E4E5" stroke-width="6.49"/>
<path d="M264.5 207C272.589 207 280.347 203.787 286.067 198.067C291.787 192.347 295 184.589 295 176.5C295 168.411 291.787 160.653 286.067 154.933C280.347 149.213 272.589 146 264.5 146C256.411 146 248.653 149.213 242.933 154.933C237.213 160.653 234 168.411 234 176.5C234 184.589 237.213 192.347 242.933 198.067C248.653 203.787 256.411 207 264.5 207Z" stroke="#DBDBDB" stroke-width="4" stroke-linecap="round" stroke-linejoin="round"/>
<path d="M318.623 145.809L318.124 144.939C316.754 142.565 316.055 139.863 316.101 137.122L316.327 123.672C316.35 122.323 316.012 120.993 315.348 119.819C314.684 118.645 313.719 117.67 312.552 116.996L291.884 105.073C290.719 104.402 289.395 104.054 288.05 104.066C286.706 104.078 285.388 104.449 284.235 105.141L272.757 112.021C270.413 113.423 267.733 114.163 265.002 114.161H264.005C261.268 114.161 258.582 113.416 256.235 112.006L244.712 105.081C243.555 104.384 242.231 104.011 240.881 104C239.53 103.99 238.201 104.342 237.033 105.02L216.433 117.004C215.271 117.679 214.31 118.652 213.649 119.823C212.988 120.993 212.651 122.32 212.673 123.664L212.899 137.129C212.945 139.871 212.246 142.573 210.876 144.947L210.392 145.801C209.021 148.177 207.029 150.135 204.631 151.464L192.889 157.973C191.708 158.629 190.724 159.59 190.04 160.757C189.356 161.923 188.997 163.251 189 164.604L189.053 188.434C189.057 189.778 189.419 191.097 190.101 192.254C190.783 193.412 191.761 194.366 192.934 195.019L204.616 201.529C207.023 202.869 209.018 204.843 210.385 207.237L210.913 208.152C212.261 210.514 212.947 213.196 212.899 215.916L212.673 229.321C212.649 230.671 212.988 232.004 213.653 233.179C214.319 234.355 215.286 235.33 216.456 236.004L237.123 247.927C238.289 248.598 239.612 248.946 240.957 248.934C242.302 248.922 243.619 248.551 244.773 247.859L256.243 240.979C258.587 239.577 261.267 238.837 263.998 238.839H264.995C267.734 238.838 270.423 239.582 272.772 240.994L284.288 247.919C285.445 248.616 286.769 248.989 288.119 249C289.47 249.01 290.799 248.658 291.967 247.98L312.567 236.004C313.729 235.329 314.69 234.356 315.351 233.185C316.012 232.014 316.349 230.688 316.327 229.343L316.101 215.878C316.055 213.137 316.754 210.435 318.124 208.061L318.615 207.206C319.985 204.831 321.974 202.874 324.369 201.544L336.111 195.034C337.292 194.378 338.276 193.417 338.96 192.251C339.644 191.085 340.003 189.756 340 188.404L339.947 164.574C339.944 163.228 339.583 161.908 338.901 160.749C338.219 159.59 337.24 158.635 336.066 157.981L324.362 151.456C321.974 150.128 319.99 148.176 318.623 145.809Z" stroke="#DBDBDB" stroke-width="4" stroke-linecap="round" stroke-linejoin="round"/>
<path d="M449.882 281.167H81.1179C77.0096 281.167 73.6792 285.149 73.6792 290.06C73.6792 294.971 77.0096 298.952 81.1179 298.952H449.882C453.99 298.952 457.32 294.971 457.32 290.06C457.32 285.149 453.99 281.167 449.882 281.167Z" fill="white" stroke="#E1E4E5" stroke-width="6.49"/>
<path d="M93.158 212.569L436.572 175.306L436.572 197.749L93.1581 235.012L93.158 212.569Z" fill="#FEBD43"/>
<path d="M108.329 211.133L115.43 210.359L109.86 233.421L102.759 234.195L108.329 211.133Z" fill="black"/>
<path d="M127.857 209.004L134.958 208.23L129.388 231.292L122.287 232.066L127.857 209.004Z" fill="black"/>
<path d="M147.385 206.875L154.486 206.101L148.916 229.163L141.815 229.937L147.385 206.875Z" fill="black"/>
<path d="M166.912 204.747L174.013 203.973L168.443 227.034L161.342 227.808L166.912 204.747Z" fill="black"/>
<path d="M186.44 202.618L193.541 201.844L187.972 224.905L180.871 225.679L186.44 202.618Z" fill="black"/>
<path d="M205.968 200.489L213.069 199.715L207.499 222.776L200.398 223.551L205.968 200.489Z" fill="black"/>
<path d="M225.495 198.36L232.596 197.586L227.027 220.648L219.926 221.422L225.495 198.36Z" fill="black"/>
<path d="M245.023 196.231L252.124 195.457L246.555 218.519L239.454 219.293L245.023 196.231Z" fill="black"/>
<path d="M264.551 194.103L271.652 193.328L266.082 216.39L258.981 217.164L264.551 194.103Z" fill="black"/>
<path d="M284.078 191.974L291.179 191.2L285.61 214.261L278.509 215.035L284.078 191.974Z" fill="black"/>
<path d="M303.607 189.845L310.708 189.071L305.138 212.132L298.037 212.906L303.607 189.845Z" fill="black"/>
<path d="M323.134 187.716L330.235 186.942L324.666 210.003L317.565 210.778L323.134 187.716Z" fill="black"/>
<path d="M342.662 185.587L349.763 184.813L344.193 207.875L337.092 208.649L342.662 185.587Z" fill="black"/>
<path d="M362.19 183.458L369.291 182.684L363.721 205.746L356.62 206.52L362.19 183.458Z" fill="black"/>
<path d="M381.717 181.33L388.818 180.556L383.249 203.617L376.148 204.391L381.717 181.33Z" fill="black"/>
<path d="M401.245 179.201L408.346 178.427L402.777 201.488L395.676 202.262L401.245 179.201Z" fill="black"/>
<path d="M420.773 177.072L427.874 176.298L422.304 199.359L415.203 200.133L420.773 177.072Z" fill="black"/>
</g>
<defs>
<clipPath id="clip0_212_724">
<rect width="531" height="354" fill="white"/>
</clipPath>
</defs>
</svg>
