<svg width="309" height="423" viewBox="0 0 309 423" fill="none" xmlns="http://www.w3.org/2000/svg">
<g style="mix-blend-mode:overlay" clip-path="url(#clip0_34_1398)">
<path d="M279.011 -270.423L309 -299.22L301.712 -340.055L273.458 -349.27L300.989 -358.168L301.712 -358.398L309 -399.262L279.011 -428.059L250.757 -418.93L267.761 -442.227L268.224 -442.861L250.005 -480.297L208.738 -486.057L191.386 -462.126V-491.442L156.163 -510.131H175.018L246.911 -495.07L264.609 -510.131H307.699V-512.723H264.522L246.824 -527.813L174.931 -512.723H131.408L59.5154 -527.813L41.8169 -512.723H1.41703L1.41703 -510.131H41.9037L59.6021 -495.07L131.408 -510.131H152.924L117.729 -491.442L117.729 -461.867L100.754 -485.164L100.291 -485.798L59.0238 -480.038L40.8048 -442.602L58.1562 -418.671L30.6253 -427.569L29.9023 -427.8L0 -399.204L7.2876 -358.341L35.5415 -349.27L8.03949 -340.314L7.2876 -340.055L0 -299.22L30.018 -270.423L58.2719 -279.58L41.2675 -256.283L40.8048 -255.65L59.0238 -218.213L100.291 -212.454L117.643 -236.385L117.643 -206.81L152.837 -188.12H131.408L59.5154 -203.21L41.8169 -188.12H1.41703L1.41703 -185.529H41.9037L59.5154 -170.727L131.408 -185.788H152.924L117.729 -166.983V-137.408L100.754 -160.705L100.291 -161.339L59.0238 -155.579L40.8048 -118.287L58.1562 -94.3564L29.9023 -103.485L0 -74.7455L7.2876 -33.8822L35.5415 -24.7534L8.03949 -15.8551L7.2876 -15.5959L0 25.2386L30.018 54.0358L58.2719 44.8783L41.2675 68.2905L40.8048 68.924L59.0238 106.36L100.291 112.12L117.643 88.1894V117.764L152.837 136.454H131.408L59.5154 121.364L41.8169 136.454H1.41703L1.41703 139.045H41.9037L59.6021 154.106L131.495 139.045H153.011L117.729 157.562V187.137L100.754 163.84L100.291 163.206L59.0238 168.966L40.8048 206.402L58.1562 230.333L30.6253 221.434L29.9023 221.204L0 249.713L7.2876 290.577L35.5415 299.705L8.03949 308.604L7.2876 308.863L0 349.697L30.018 378.495L58.2719 369.337L41.2675 392.634L40.8048 393.268L59.0238 430.704L100.291 436.463L117.643 412.533V442.108L152.837 460.797H131.408L59.5154 445.535L41.8169 460.624H1.41703L1.41703 463.216H41.9037L59.6021 478.277L131.495 463.216H153.011L117.816 481.906L117.816 511.48L100.841 488.183L100.378 487.55L59.1105 493.309L40.8915 530.746L58.2429 554.676L30.712 545.778L29.989 545.547L0 574.172L7.2876 615.035L35.5415 624.078L8.03949 632.976L7.2876 633.235L0 674.156L30.018 702.953L58.2719 693.796L41.2675 717.093L40.8048 717.726L59.0238 755.163L100.291 760.922L117.643 736.992L117.643 766.566L152.837 785.256H131.408L59.5154 770.166L41.8169 785.256H1.41703L1.41703 787.848H41.9037L59.6021 802.937L131.495 787.848H153.011L117.816 806.537V836.112L100.465 812.181L59.1973 817.941L40.9783 855.233L58.3297 879.164L30.7988 870.265L30.0758 870.035L0 898.631L7.2876 939.494L35.5415 948.623L8.03949 957.521L7.2876 957.78L0 998.615L30.018 1027.41L58.2429 1018.25L41.2675 1041.64L40.8048 1042.27L59.0238 1079.71L100.291 1085.47L117.643 1061.54V1090.88L152.837 1109.57H131.408L59.5154 1094.48L41.8169 1109.57H1.41703L1.41703 1112.16H41.9037L59.6021 1127.25L131.495 1112.16H153.011L117.729 1130.91V1160.48L100.378 1136.55L59.1105 1142.31L40.8915 1179.75L58.2429 1203.68L30.712 1194.78L29.989 1194.55L0 1223.06L7.2876 1263.95L35.5415 1273.08L8.03949 1281.98L7.2876 1282.24L0 1323.07L30.018 1351.87L58.2719 1342.71L41.2675 1366.04L40.8048 1366.64L59.0238 1404.08L100.291 1409.84L117.643 1385.91V1415.48L154.428 1435.01L191.184 1415.48V1385.77L208.535 1409.7L249.803 1403.94L268.022 1366.5L250.67 1342.57L278.172 1351.47L278.924 1351.73L308.913 1322.93L301.626 1282.09L273.372 1272.94L300.903 1264.04L301.626 1263.81L309 1223.06L279.011 1194.26L250.757 1203.39L267.761 1180.09L268.224 1179.46L250.005 1142.02L208.738 1136.27L191.386 1160.2L191.386 1130.91L156.163 1112.16H175.018L246.911 1127.25L264.609 1112.16H307.699V1109.57H264.522L246.824 1094.48L174.931 1109.57H156.163L191.357 1090.88V1061.31L208.709 1085.24L249.976 1079.48L268.195 1042.04L250.844 1018.11L278.259 1027.24L279.011 1027.5L309 998.701L301.712 957.866L273.487 948.709L300.989 939.811L301.712 939.58L309 898.717L279.011 869.92L250.757 879.048L267.761 855.751L268.224 855.118L250.005 817.825L208.738 812.066L191.386 835.997V806.393L156.163 787.704H175.018L246.911 802.793L264.609 787.704H307.699V785.112H264.522L246.824 770.022L174.931 785.112H156.163L191.357 766.422V736.848L208.709 760.778L249.976 755.019L268.195 717.582L250.844 693.652L278.346 702.55L279.098 702.809L309.087 674.012L301.799 633.177L273.458 624.078L300.989 615.179L301.712 614.949L309 574.086L279.011 545.288L250.757 554.417L267.761 531.12L268.224 530.486L250.005 493.05L208.738 487.291L191.386 511.221V481.934L156.163 463.245H175.018L246.911 478.306L264.609 463.245H307.699V460.653H264.522L246.824 445.535L174.931 460.624H156.163L191.357 441.935V412.389L208.217 435.686L208.68 436.319L249.947 430.56L268.166 393.123L250.815 369.193L278.317 378.091L279.069 378.351L309.058 349.553L301.77 308.719L273.516 299.561L301.047 290.663L301.77 290.433L309 249.713L279.011 220.916L250.757 230.045L267.761 206.748L268.224 206.114L250.005 168.678L208.738 162.918L191.386 186.849V157.562L156.163 138.786H175.018L246.911 153.847L264.609 138.786H307.699V136.194H264.522L246.824 121.105L174.931 136.194H156.163L191.357 117.505L191.357 87.9302L208.217 111.227L208.68 111.861L249.947 106.101L268.166 68.6649L250.815 44.7343L278.259 53.8918L279.011 54.151L309 25.3538L301.712 -15.4807L273.458 -24.6383L300.989 -33.5366L301.712 -33.767L309 -74.6303L279.011 -103.428L250.757 -94.2989L267.761 -117.596L268.224 -118.229L250.005 -155.522L208.738 -161.281L191.386 -137.351V-166.983L156.163 -185.673H175.018L246.824 -170.727L264.522 -185.788H307.612V-188.379H264.522L246.824 -203.469L174.931 -188.379H156.163L191.357 -207.069V-236.528L208.217 -213.232L208.68 -212.598L249.947 -218.357L268.166 -255.794L250.815 -279.724L278.317 -270.826L279.011 -270.423ZM246.101 -524.933L262.035 -511.341L246.101 -497.864L181.38 -511.427L246.101 -524.933ZM60.2384 -497.864L44.304 -511.427L60.2384 -524.933L124.959 -511.427L60.2384 -497.864ZM203.156 1273.17C203.15 1277.82 202.478 1282.44 201.161 1286.9L158.708 1273.17L201.161 1259.46C202.467 1263.88 203.139 1268.47 203.156 1273.08V1273.17ZM105.844 1273.17C105.849 1268.53 106.531 1263.91 107.868 1259.46L150.379 1273.08L107.868 1286.82C106.528 1282.36 105.846 1277.73 105.844 1273.08V1273.17ZM153.271 1224.7V1269.14L127.041 1233.2C134.768 1227.88 143.884 1224.93 153.271 1224.7ZM149.396 1222.31L153.271 1217.01V1222.11C151.912 1222.14 150.61 1222.17 149.338 1222.31H149.396ZM125.509 1230.95L122.617 1226.83L128.95 1228.88C127.649 1229.66 126.521 1230.35 125.451 1231.07L125.509 1230.95ZM123.426 1232.51C122.385 1233.31 121.421 1234.15 120.535 1235.01V1228.36L123.426 1232.51ZM124.959 1234.61L151.16 1270.52L108.736 1256.78C111.894 1248.04 117.504 1240.38 124.901 1234.72L124.959 1234.61ZM106.277 1256L101.217 1254.54L107.521 1252.49C107 1253.67 106.653 1254.88 106.22 1256.12L106.277 1256ZM105.439 1258.45C105.063 1259.69 104.745 1260.93 104.456 1262.2L100.58 1256.87L105.439 1258.45ZM105.439 1287.51L100.58 1289.09L104.456 1283.77C104.687 1285.15 105.005 1286.41 105.381 1287.62L105.439 1287.51ZM106.277 1289.96C106.711 1291.19 107.174 1292.4 107.695 1293.58L101.217 1291.66L106.277 1289.96ZM108.736 1289.15L151.16 1275.44L124.901 1311.47C117.469 1305.78 111.837 1298.08 108.678 1289.29L108.736 1289.15ZM120.303 1310.95C121.286 1311.81 122.25 1312.65 123.195 1313.46L120.303 1317.6V1310.95ZM125.451 1315.21C126.521 1315.93 127.649 1316.62 128.776 1317.26L122.443 1319.33L125.451 1315.21ZM126.983 1313.11L153.271 1277.08V1321.49C143.869 1321.27 134.736 1318.32 126.983 1313.02V1313.11ZM153.271 1324.08L153.271 1329.18L149.338 1323.85C150.61 1324.02 151.912 1324.05 153.271 1324.08ZM155.874 1324.08C157.175 1324.08 158.447 1324.08 159.72 1323.88L155.874 1329.18L155.874 1324.08ZM155.874 1321.49V1277.08L182.074 1313.02C174.33 1318.32 165.208 1321.26 155.816 1321.49H155.874ZM183.549 1315.21L186.441 1319.33L180.108 1317.26C181.351 1316.54 182.479 1315.85 183.549 1315.21ZM185.631 1313.66C186.672 1312.85 187.636 1312.02 188.523 1311.15V1317.8L185.631 1313.66ZM184.099 1311.55L157.898 1275.56L200.322 1289.29C197.17 1298.09 191.537 1305.79 184.099 1311.47V1311.55ZM202.78 1290.16L207.668 1291.74L201.363 1293.79C201.913 1292.52 202.433 1291.31 202.78 1290.07V1290.16ZM203.619 1287.71C203.995 1286.47 204.313 1285.23 204.602 1283.97L208.477 1289.29L203.619 1287.71ZM203.619 1258.65L208.477 1257.07L204.602 1262.4C204.313 1261.04 203.995 1259.81 203.619 1258.57V1258.65ZM202.78 1256.21C202.347 1254.97 201.913 1253.76 201.363 1252.58L207.668 1254.62L202.78 1256.21ZM200.322 1256.98L157.898 1270.63L184.099 1234.72C191.535 1240.41 197.167 1248.11 200.322 1256.9V1256.98ZM188.755 1235.21C187.771 1234.35 186.807 1233.51 185.863 1232.71L188.755 1228.56V1235.21ZM183.636 1231.15C182.566 1230.43 181.438 1229.74 180.31 1229.08L186.643 1227.03L183.636 1231.15ZM182.103 1233.25L155.816 1269.14V1224.7C165.19 1224.93 174.295 1227.87 182.016 1233.17L182.103 1233.25ZM155.903 1222.2V1217.01L159.749 1222.31C158.39 1222.17 157.117 1222.14 155.816 1222.11L155.903 1222.2ZM146.215 1222.86C141.184 1223.7 136.31 1225.29 131.755 1227.58V1227.29L120.419 1223.64L120.419 1168.35L152.982 1212.95L145.983 1222.57L146.215 1222.86ZM118.105 1237.26C114.523 1240.89 111.502 1245.04 109.14 1249.55V1249.29L97.8042 1252.98L65.0678 1208.4L117.729 1225.42V1237.29L118.105 1237.26ZM103.646 1265.62L103.877 1265.45C103.028 1270.49 103.028 1275.64 103.877 1280.68L103.646 1280.51L96.6185 1290.1L43.9569 1273.08L96.6185 1256.06L103.646 1265.62ZM108.967 1296.81V1296.58C111.321 1301.09 114.343 1305.23 117.932 1308.85H117.643V1320.71L65.0678 1337.79L97.6307 1293.18L108.967 1296.81ZM131.582 1318.67C136.137 1320.95 141.012 1322.53 146.041 1323.36L145.81 1323.53L152.808 1333.15L120.332 1377.79L120.332 1322.64L131.668 1318.96L131.582 1318.67ZM162.901 1323.36C167.93 1322.53 172.804 1320.94 177.36 1318.67V1318.93L188.697 1322.61L188.697 1377.76L156.163 1333.18L163.19 1323.56L162.901 1323.36ZM191.01 1308.96C194.59 1305.34 197.611 1301.2 199.975 1296.7V1296.93L211.311 1293.27L243.845 1337.88L191.184 1320.83V1308.88L191.01 1308.96ZM205.325 1280.66L205.094 1280.83C205.943 1275.79 205.943 1270.64 205.094 1265.59L205.325 1265.77L212.324 1256.18L264.985 1273.2L212.324 1290.24L205.325 1280.66ZM200.004 1249.44V1249.7C197.633 1245.19 194.613 1241.04 191.039 1237.4H191.299V1225.54L243.961 1208.52L211.398 1253.01L200.004 1249.44ZM177.36 1227.61C172.805 1225.32 167.931 1223.73 162.901 1222.89H163.132L156.163 1213.01L188.668 1168.35V1223.49L177.332 1227.15L177.36 1227.61ZM120.274 1132.58L153.271 1114.96L153.271 1209.04L120.332 1164L120.274 1132.58ZM117.672 1165.01L117.672 1220.67L62.147 1144.56L99.0477 1139.46L117.672 1165.01ZM43.7545 1179.4L60.0359 1146.06L115.676 1222.02L62.494 1204.75L43.7545 1179.4ZM30.6831 1197.14L60.8746 1206.91L93.7266 1251.94L3.87515 1223.06L30.6831 1197.14ZM9.5722 1261.85L3.06542 1225.45L92.9169 1254.54L39.7637 1271.81L9.5722 1261.85ZM9.5722 1284.11L39.7637 1274.35L92.9169 1291.63L3.06542 1320.74L9.5722 1284.11ZM30.6831 1348.82L3.87515 1323.07L93.7266 1294.02L60.8746 1339.17L30.6831 1348.82ZM62.494 1341.24L115.676 1323.97L60.0938 1400.28L43.8123 1367.05L62.494 1341.24ZM99.1345 1406.79L62.2338 1401.69L117.758 1325.58L117.758 1381.45L99.1345 1406.79ZM120.361 1382.08L153.271 1337.16V1431.24L120.39 1413.78L120.361 1382.08ZM188.697 1413.76L155.845 1431.21V1337.16L188.697 1382.19V1413.76ZM191.299 1381.33L191.299 1325.69L246.824 1401.81L209.952 1406.9L191.299 1381.33ZM265.216 1366.93L248.935 1400.28L193.411 1324.17L246.564 1341.45L265.216 1366.93ZM278.346 1348.93L248.183 1339.17L215.302 1294.13L305.154 1323.19L278.346 1348.93ZM299.457 1284.23L305.963 1320.74L216.112 1291.66L269.294 1274.38L299.457 1284.23ZM299.457 1261.97L269.265 1271.73L216.083 1254.45L305.935 1225.36L299.457 1261.97ZM278.317 1197.14L305.154 1222.89L215.302 1252.06L248.154 1207.02L278.317 1197.14ZM246.506 1204.72L193.353 1221.99L248.877 1145.88L265.159 1179.23L246.506 1204.72ZM209.923 1139.29L246.795 1144.39L191.271 1220.5V1164.83L209.923 1139.29ZM188.668 1164L155.816 1209.04L155.816 1114.96L188.668 1132.41L188.668 1164ZM60.2384 1124.43L44.304 1110.75L60.2384 1097.16L124.959 1110.75L60.2384 1124.43ZM246.101 1097.27L262.035 1110.75L246.101 1124.31L181.38 1110.75L246.101 1097.27ZM203.156 948.623C203.15 953.273 202.478 957.898 201.161 962.359L158.708 948.623L201.161 934.915C202.475 939.367 203.147 943.982 203.156 948.623ZM105.844 948.623C105.849 943.98 106.531 939.363 107.868 934.915L150.379 948.623L107.868 962.359C106.528 957.902 105.846 953.275 105.844 948.623ZM153.271 900.243V944.649L127.041 908.71C134.771 903.406 143.887 900.464 153.271 900.243ZM149.396 897.853L153.271 892.554V897.651C151.912 897.651 150.61 897.651 149.338 897.853H149.396ZM125.509 906.492L122.617 902.374L128.95 904.419C127.649 905.196 126.521 905.887 125.451 906.607L125.509 906.492ZM123.426 908.047C122.385 908.854 121.421 909.689 120.535 910.553V903.901L123.426 908.047ZM124.959 910.149L151.16 946.06L108.736 932.323C111.894 923.582 117.504 915.926 124.901 910.265L124.959 910.149ZM106.277 931.517L101.217 930.077L107.521 928.033C107 929.328 106.653 930.423 106.22 931.632L106.277 931.517ZM105.439 933.994C105.063 935.203 104.745 936.47 104.456 937.737L100.58 932.41L105.439 933.994ZM105.439 963.05L100.58 964.605L104.456 959.306C104.687 960.689 105.005 961.927 105.381 963.165L105.439 963.05ZM106.277 965.498C106.711 966.736 107.174 967.946 107.695 969.126L101.217 967.197L106.277 965.498ZM108.736 964.692L151.16 950.984L124.901 986.923C117.478 981.25 111.847 973.574 108.678 964.807L108.736 964.692ZM120.303 986.491C121.286 987.355 122.25 988.19 123.195 988.996L120.303 993.143V986.491ZM125.422 990.523C126.492 991.271 127.62 991.962 128.748 992.596L122.414 994.669L125.422 990.523ZM126.955 988.449L153.271 952.625L153.271 997.031C143.869 996.806 134.736 993.865 126.983 988.564L126.955 988.449ZM153.271 999.622V1004.72L149.396 999.421C150.61 999.565 151.912 999.594 153.271 999.622ZM155.874 999.622C157.175 999.622 158.447 999.623 159.72 999.421L155.874 1004.72V999.622ZM155.874 997.031L155.874 952.625L182.074 988.564C174.33 993.861 165.208 996.802 155.816 997.031H155.874ZM183.607 990.667L186.499 994.785L180.223 992.682C181.351 992.078 182.479 991.387 183.549 990.667H183.607ZM185.689 989.112C186.73 988.305 187.694 987.47 188.581 986.606V993.23L185.689 989.112ZM184.156 987.009L157.898 951.099L200.322 964.807C197.153 973.574 191.522 981.25 184.099 986.923L184.156 987.009ZM202.838 965.613L207.725 967.197L201.421 969.241C201.913 968.061 202.433 966.765 202.78 965.613H202.838ZM203.677 963.165C204.053 961.927 204.371 960.689 204.66 959.422L208.535 964.72L203.677 963.165ZM203.677 934.109L208.535 932.525L204.602 937.968C204.313 936.585 203.995 935.318 203.619 934.109H203.677ZM202.838 931.632C202.404 930.423 201.971 929.213 201.421 928.033L207.725 930.077L202.838 931.632ZM200.38 932.438L157.898 946.175L184.099 910.265C191.535 915.949 197.167 923.648 200.322 932.438H200.38ZM188.812 910.668C187.829 909.804 186.865 908.969 185.921 908.162L188.812 904.016V910.668ZM183.694 906.607C182.624 905.859 181.496 905.196 180.368 904.534L186.701 902.489L183.694 906.607ZM182.161 908.71L155.96 944.649V900.243C165.285 900.497 174.336 903.438 182.016 908.71H182.161ZM155.816 897.651V892.554L159.662 897.853C158.39 897.651 157.117 897.651 155.816 897.651ZM146.128 898.314C141.097 899.156 136.223 900.748 131.668 903.036V902.749L120.332 899.091V843.945L152.895 888.552L145.897 898.17L146.128 898.314ZM118.019 912.713C114.436 916.347 111.415 920.491 109.054 925.009V924.779L97.7174 928.436L65.0678 883.915L117.729 900.963V912.828L118.019 912.713ZM103.559 941.078L103.79 940.905C102.942 945.948 102.942 951.096 103.79 956.139L103.559 955.966L96.5318 965.555L43.9569 948.623L96.6185 931.604L103.559 941.078ZM108.967 972.524V972.294C111.321 976.807 114.343 980.943 117.932 984.562H117.643V996.455L65.0678 1013.33L97.6307 968.723L108.967 972.524ZM131.582 994.382C136.137 996.661 141.012 998.243 146.041 999.075L145.81 999.248L152.808 1008.87L120.332 1053.33L120.332 998.183L131.668 994.497L131.582 994.382ZM162.901 999.075C167.93 998.241 172.804 996.659 177.36 994.382V994.641L188.697 998.327V1053.47L156.163 1008.72L163.19 999.104L162.901 999.075ZM191.01 984.677C194.59 981.05 197.611 976.916 199.975 972.409V972.64L211.311 968.982L243.845 1013.59L191.184 996.57V984.677H191.01ZM205.47 956.34L205.238 956.513C206.087 951.47 206.087 946.322 205.238 941.279L205.47 941.452L212.468 931.863L265.13 948.882L212.468 965.93L205.47 956.34ZM200.149 925.153V925.383C197.777 920.872 194.757 916.729 191.184 913.087H191.444V901.222L244.106 884.174L211.398 928.551L200.149 925.153ZM177.505 903.296C172.95 901.009 168.076 899.417 163.046 898.573L163.277 898.429L156.163 888.552L188.726 843.945V899.091L177.389 902.749L177.505 903.296ZM120.419 808.265L153.271 790.497L153.271 884.578L120.332 839.539L120.419 808.265ZM117.816 840.691L117.816 896.356L62.2049 819.899L99.1055 814.802L117.816 840.691ZM43.8991 855.089L60.1805 821.742L115.676 897.651L62.4651 880.373L43.8991 855.089ZM30.7699 873.087L60.9613 882.85L93.7266 927.601L3.87515 898.544L30.7699 873.087ZM9.65896 937.795L3.06542 900.992L92.9169 930.077L39.7348 947.356L9.65896 937.795ZM9.65896 960.055L39.8215 950.293L93.0036 967.571L3.06542 996.282L9.65896 960.055ZM30.6831 1024.36L3.87515 998.73L93.7266 969.645L60.73 1014.71L30.6831 1024.36ZM62.494 1016.79L115.676 999.507L60.0938 1075.82L43.8123 1042.47L62.494 1016.79ZM99.1345 1082.33L62.2049 1077.35L117.729 1001.32L117.729 1056.9L99.1345 1082.33ZM120.361 1057.62L153.271 1012.84V1106.92L120.39 1089.47L120.361 1057.62ZM188.697 1089.3L155.845 1106.75V1012.84L188.697 1057.88V1089.3ZM191.299 1056.87V1001.32L246.824 1077.43L209.952 1082.53L191.299 1056.87ZM265.216 1042.47L248.935 1075.82L193.411 999.709L246.564 1016.99L265.216 1042.47ZM278.317 1024.36L248.154 1014.6L215.302 969.645L305.154 998.701L278.317 1024.36ZM299.428 959.652L305.935 996.167L216.083 967.082L269.265 949.803L299.428 959.652ZM299.428 937.392L269.265 947.154L216.083 929.876L305.935 900.79L299.428 937.392ZM278.317 872.684L305.154 898.429L215.302 927.601L248.154 882.562L278.317 872.684ZM246.506 880.258L193.353 897.536L248.877 821.425L265.159 854.772L246.506 880.258ZM209.923 814.831L246.795 819.899L191.271 896.01V840.374L209.923 814.831ZM188.668 839.539L155.816 884.578L155.816 790.497L188.668 807.948V839.539ZM60.2384 799.971L44.304 786.408L60.2384 772.815L124.959 786.408L60.2384 799.971ZM246.101 772.815L262.035 786.408L246.101 799.971L181.38 786.408L246.101 772.815ZM203.156 624.078C203.15 628.727 202.478 633.353 201.161 637.814L158.708 624.078L201.161 610.37C202.475 614.822 203.147 619.437 203.156 624.078ZM105.844 624.078C105.849 619.435 106.531 614.818 107.868 610.37L150.379 624.078L107.868 637.9C106.52 633.416 105.838 628.759 105.844 624.078ZM153.271 575.785V620.19L127.041 584.251C134.771 578.948 143.887 576.005 153.271 575.785ZM149.396 573.394L153.271 568.096V573.193C151.912 573.222 150.61 573.25 149.338 573.394H149.396ZM125.509 582.034L122.617 577.916L128.95 579.96C127.649 580.882 126.521 581.4 125.451 582.149L125.509 582.034ZM123.426 583.589C122.385 584.395 121.421 585.23 120.535 586.094V579.442L123.426 583.589ZM124.959 585.691L151.16 621.601L108.736 607.865C111.894 599.123 117.504 591.467 124.901 585.806L124.959 585.691ZM106.277 607.087L101.217 605.619L107.521 603.574C107 604.755 106.653 605.964 106.22 607.202L106.277 607.087ZM105.439 609.535C105.063 610.744 104.745 612.011 104.456 613.279L100.58 607.951L105.439 609.535ZM105.439 638.591L100.58 640.146L104.456 634.848C104.687 636.23 105.005 637.468 105.381 638.707L105.439 638.591ZM106.277 641.039C106.711 642.277 107.174 643.487 107.695 644.668L101.217 642.738L106.277 641.039ZM108.736 640.233L151.16 626.525L124.959 662.436C117.519 656.779 111.867 649.112 108.678 640.348L108.736 640.233ZM120.303 662.032C121.286 662.896 122.25 663.731 123.195 664.538L120.303 668.684L120.303 662.032ZM125.422 666.093C126.492 666.813 127.62 667.504 128.748 668.137L122.414 670.182L125.422 666.093ZM126.955 663.99L153.271 628.167V672.572C143.869 672.348 134.736 669.406 126.983 664.106L126.955 663.99ZM153.271 675.164V680.261L149.396 674.962C150.61 675.106 151.912 675.135 153.271 675.164ZM155.874 675.164C157.175 675.164 158.447 675.164 159.72 674.962L155.874 680.261V675.164ZM155.874 672.572V628.167L182.074 664.106C174.33 669.402 165.208 672.344 155.816 672.572H155.874ZM183.607 666.208L186.499 670.326L180.166 668.253C181.351 667.619 182.479 666.928 183.549 666.208H183.607ZM185.689 664.653C186.73 663.847 187.694 663.011 188.581 662.147V668.771L185.689 664.653ZM184.156 662.551L157.898 626.641L200.322 640.348C197.168 649.147 191.536 656.855 184.099 662.551H184.156ZM202.838 641.154L207.725 642.738L201.421 644.783C201.913 643.602 202.433 642.393 202.78 641.154H202.838ZM203.677 638.707C204.053 637.468 204.371 636.23 204.66 634.963L208.535 640.262L203.677 638.707ZM203.677 609.65L208.535 608.066L204.66 613.394C204.313 612.127 203.995 610.86 203.619 609.679L203.677 609.65ZM202.838 607.174C202.404 605.964 201.971 604.755 201.421 603.574L207.725 605.619L202.838 607.174ZM200.38 607.98L157.898 621.716L184.099 585.806C191.535 591.49 197.167 599.189 200.322 607.98H200.38ZM188.812 586.209C187.829 585.345 186.865 584.51 185.921 583.704L188.812 579.557V586.209ZM183.694 582.149C182.624 581.4 181.496 580.738 180.368 580.075L186.701 578.031L183.694 582.149ZM182.161 584.251L155.96 620.19V575.785C165.285 576.039 174.336 578.979 182.016 584.251H182.161ZM155.96 573.193V568.096L159.807 573.394C158.39 573.25 157.117 573.222 155.816 573.193H155.96ZM146.273 573.855C141.242 574.698 136.367 576.29 131.813 578.578V578.29L120.477 574.633V519.486L153.04 564.093L146.041 573.682L146.273 573.855ZM118.163 588.254C114.581 591.889 111.559 596.032 109.198 600.55V600.291L97.862 603.977L65.0678 559.457L117.729 576.505L117.729 588.369L118.163 588.254ZM103.704 616.619L103.935 616.446C103.511 618.969 103.279 621.52 103.241 624.078C103.263 626.633 103.475 629.184 103.877 631.709L103.646 631.536L96.6185 641.356L43.9569 624.078L96.6185 607.058L103.704 616.619ZM109.025 647.806V647.576C111.379 652.089 114.401 656.225 117.99 659.844H117.7L117.7 671.708L65.0678 688.871L97.6307 644.236L109.025 647.806ZM131.639 669.664C136.195 671.943 141.07 673.525 146.099 674.358L145.868 674.53L152.866 684.149L120.332 728.871V673.724L131.668 670.153L131.639 669.664ZM162.959 674.358C167.988 673.523 172.862 671.941 177.418 669.664V669.923L188.755 673.609V728.756L156.163 684.264L163.19 674.646L162.959 674.358ZM191.068 659.959C194.648 656.332 197.669 652.198 200.033 647.691V647.922L211.398 644.236L243.932 688.871L191.271 671.823V659.959H191.068ZM205.528 631.622L205.296 631.795C205.698 629.271 205.911 626.72 205.932 624.164C205.912 621.617 205.699 619.076 205.296 616.562L205.528 616.734L212.526 607.145L265.043 624.078L212.381 641.356L205.528 631.622ZM200.207 600.406V600.665C197.835 596.154 194.815 592.011 191.242 588.369H191.502V576.505L244.163 559.457L211.398 604.092L200.207 600.406ZM177.563 578.578C173.008 576.291 168.134 574.699 163.103 573.855L163.335 573.682L156.163 564.093L188.726 519.486V574.633L177.389 578.29L177.563 578.578ZM120.477 483.547L153.271 466.038V560.119L120.332 515.08L120.477 483.547ZM117.874 515.973V571.638L62.3494 495.527L99.2501 490.401L117.874 515.973ZM43.9569 530.371L60.2384 497.024L115.676 573.106L62.494 555.828L43.9569 530.371ZM30.8277 548.37L61.0192 558.132L93.8712 603.171L3.87515 574.086L30.8277 548.37ZM9.7168 613.077L3.06542 576.533L92.9169 605.619L39.7637 622.897L9.7168 613.077ZM9.7168 635.337L39.9083 625.575L93.0615 642.853L3.06542 671.795L9.7168 635.337ZM30.8277 700.016L4.01975 674.3L93.8712 645.244L60.8746 690.311L30.8277 700.016ZM62.6386 692.471L115.821 675.193L60.0938 751.361L43.8123 718.014L62.6386 692.471ZM99.1055 757.985L62.2049 752.888L117.729 676.776V732.442L99.1055 757.985ZM120.332 733.277L153.271 688.238V782.462L120.39 765.011L120.332 733.277ZM188.668 764.954L155.816 782.462V688.238L188.668 733.277V764.954ZM191.271 732.528V676.776L246.795 752.888L209.923 757.985L191.271 732.528ZM265.188 718.129L248.906 751.361L193.382 675.25L246.535 692.529L265.188 718.129ZM278.317 700.102L248.154 690.311L215.302 645.215L305.154 674.271L278.317 700.102ZM299.428 635.424L305.935 671.91L216.083 642.738L269.265 625.46L299.428 635.424ZM299.428 613.163L269.265 622.926L216.083 605.647L305.935 576.562L299.428 613.163ZM278.317 548.456L305.154 574.201L215.302 603.142L248.154 558.103L278.317 548.456ZM246.506 556.03L193.353 573.308L248.877 497.197L265.159 530.544L246.506 556.03ZM209.923 490.343L246.795 495.469L191.271 571.58V515.915L209.923 490.343ZM188.668 515.08L155.816 560.09V466.038L188.668 483.489V515.08ZM60.2384 475.513L44.304 461.949L60.2384 448.414L124.959 462.007L60.2384 475.513ZM246.101 448.414L262.035 462.007L246.101 475.57L181.38 461.949L246.101 448.414ZM203.156 299.705C203.15 304.355 202.478 308.98 201.161 313.442L158.708 299.705L201.161 285.969C202.472 290.431 203.144 295.056 203.156 299.705ZM105.844 299.705C105.851 295.053 106.533 290.427 107.868 285.969L150.379 299.705L107.868 313.442C106.528 308.985 105.846 304.357 105.844 299.705ZM153.271 251.326L153.271 295.789L126.983 259.792C134.73 254.478 143.867 251.535 153.271 251.326ZM149.396 248.907L153.271 243.637V248.734C151.912 248.763 150.61 248.792 149.338 248.907H149.396ZM125.509 257.546L122.617 253.428L128.95 255.473C127.649 256.279 126.521 256.941 125.451 257.69L125.509 257.546ZM123.426 259.101C122.385 259.907 121.421 260.743 120.535 261.606V254.954L123.426 259.101ZM124.959 261.203L151.16 297.113L108.736 283.377C111.879 274.604 117.491 266.917 124.901 261.232L124.959 261.203ZM106.277 282.571L101.217 281.16L107.521 279.115C107 280.296 106.653 281.39 106.22 282.715L106.277 282.571ZM105.439 285.047C105.063 286.257 104.745 287.524 104.456 288.791L100.58 283.464L105.439 285.047ZM105.439 314.104L100.58 315.659L104.456 310.36C104.687 311.771 105.005 313.067 105.381 314.248L105.439 314.104ZM106.277 316.552C106.711 317.79 107.174 318.999 107.695 320.18L101.217 318.279L106.277 316.552ZM108.736 315.745L151.16 302.038L124.959 337.948C117.532 332.315 111.882 324.679 108.678 315.947L108.736 315.745ZM120.303 337.516C121.286 338.399 122.25 339.234 123.195 340.021L120.303 344.197V337.516ZM125.451 341.864C126.521 342.613 127.649 343.304 128.776 343.938L122.443 345.982L125.451 341.864ZM126.983 339.791L153.271 303.708V348.113C143.869 347.889 134.736 344.947 126.983 339.647V339.791ZM153.271 350.705V355.802L149.338 350.504C150.61 350.504 151.912 350.676 153.271 350.705ZM155.874 350.705C157.175 350.705 158.447 350.705 159.72 350.504L155.874 355.802V350.705ZM155.874 348.113V303.708L182.074 339.647C174.33 344.944 165.208 347.885 155.816 348.113H155.874ZM183.549 341.864L186.441 345.982L180.108 343.938C181.351 343.16 182.479 342.469 183.549 341.864ZM185.631 340.338C186.672 339.532 187.636 338.697 188.523 337.833V344.456L185.631 340.338ZM184.099 338.236L157.898 302.182L200.322 315.947C197.158 324.725 191.527 332.412 184.099 338.092V338.236ZM202.78 316.84L207.668 318.423L201.363 320.468C201.913 319.143 202.433 317.934 202.78 316.696V316.84ZM203.619 314.392C203.995 313.154 204.313 311.915 204.602 310.648L208.477 315.947L203.619 314.392ZM203.619 285.335L208.477 283.752L204.602 289.079C204.313 287.668 203.995 286.401 203.619 285.191V285.335ZM202.78 282.859C202.347 281.649 201.913 280.44 201.363 279.259L207.668 281.304L202.78 282.859ZM200.322 283.665L157.898 297.258L184.099 261.232C191.553 266.948 197.187 274.688 200.322 283.521V283.665ZM188.755 261.894C187.771 261.031 186.807 260.195 185.863 259.389L188.755 255.242V261.894ZM183.636 257.834C182.566 257.085 181.438 256.423 180.31 255.761L186.643 253.716L183.636 257.834ZM182.103 259.936L155.816 295.789L155.816 251.326C165.19 251.552 174.295 254.494 182.016 259.792L182.103 259.936ZM155.903 248.878V243.781L159.749 249.051C158.39 248.792 157.117 248.763 155.816 248.734L155.903 248.878ZM146.215 249.54C141.184 250.383 136.31 251.975 131.755 254.263V253.975L120.419 250.318L120.419 194.998L152.895 239.634L145.897 249.224L146.215 249.54ZM118.105 263.939C114.523 267.574 111.502 271.718 109.14 276.235V275.976L97.8042 279.662L65.0678 234.998L117.729 252.046V263.91L118.105 263.939ZM103.646 292.304L103.877 292.132C103.474 294.646 103.261 297.188 103.241 299.734C103.263 302.29 103.475 304.841 103.877 307.365L103.646 307.193L96.6185 316.782L43.9569 299.705L96.6185 282.657L103.646 292.304ZM108.967 323.492V323.261C111.321 327.775 114.343 331.91 117.932 335.529H117.643V347.394L65.0678 364.413L97.6307 319.806L108.967 323.492ZM131.582 345.349C136.137 347.628 141.012 349.21 146.041 350.043L145.81 350.216L152.808 359.805L120.245 404.441L120.245 349.265L131.582 345.579V345.349ZM162.901 350.043C167.93 349.209 172.804 347.626 177.36 345.349V345.608L188.697 349.294V404.441L156.163 359.776L163.19 350.187L162.901 350.043ZM191.01 335.644C194.59 332.018 197.611 327.884 199.975 323.377V323.607L211.311 319.95L243.845 364.557L191.184 347.509V335.644H191.01ZM205.325 307.308L205.094 307.48C205.496 304.956 205.708 302.405 205.73 299.849C205.71 297.303 205.497 294.761 205.094 292.247L205.325 292.419L212.324 282.801L264.985 299.849L212.324 316.897L205.325 307.308ZM200.004 276.091V276.351C197.633 271.839 194.613 267.697 191.039 264.054H191.299V252.19L243.961 235.142L211.398 279.634L200.004 276.091ZM177.36 254.263C172.805 251.977 167.931 250.385 162.901 249.54L163.132 249.368L156.163 239.634L188.668 194.998V250.145L177.332 253.802L177.36 254.263ZM120.274 159.232L153.271 141.579V235.66L120.332 190.621L120.274 159.232ZM117.672 191.658L117.672 247.121L62.147 171.01L99.0477 165.884L117.672 191.658ZM43.7545 206.057L60.0359 172.709L115.676 248.648L62.494 231.369L43.7545 206.057ZM30.6831 223.796L60.8746 233.558L93.7266 278.597L3.87515 249.713L30.6831 223.796ZM9.5722 288.589L3.06542 252.075L92.9169 281.16L39.7637 298.438L9.5722 288.589ZM9.5722 310.85L39.7348 301.087L92.9169 318.366L3.06542 347.365L9.5722 310.85ZM30.6831 375.528L3.87515 349.812L93.7266 320.756L60.73 365.766L30.6831 375.528ZM62.494 367.984L115.676 350.705L60.0938 426.903L43.8123 393.527L62.494 367.984ZM99.1345 433.526L62.2338 428.4L117.758 352.318L117.758 408.098L99.1345 433.526ZM120.361 408.818L153.271 363.779L153.271 457.86L120.39 440.409L120.361 408.818ZM188.697 440.495L155.845 457.946L155.845 363.779L188.697 408.818V440.495ZM191.299 408.069V352.318L246.824 428.4L209.952 433.526L191.299 408.069ZM265.216 393.671L248.935 427.047L193.382 350.792L246.535 368.07L265.216 393.671ZM278.346 375.672L248.154 365.766L215.302 320.756L305.125 349.812L278.346 375.672ZM299.457 310.994L305.963 347.509L216.112 318.423L269.294 301.145L299.457 310.994ZM299.457 288.733L269.294 298.496L216.112 281.217L305.963 252.132L299.457 288.733ZM278.317 223.796L305.125 249.54L215.302 278.683L248.154 233.644L278.317 223.796ZM246.506 231.369L193.353 248.648L248.877 172.537L265.159 205.884L246.506 231.369ZM209.923 165.884L246.795 171.01L191.271 247.121V191.456L209.923 165.884ZM188.668 190.621L155.816 235.631V141.579L188.668 159.031V190.621ZM60.2384 151.054L44.304 137.404L60.2384 123.812L124.959 137.404L60.2384 151.054ZM246.101 123.898L262.035 137.404L246.101 150.967L181.38 137.404L246.101 123.898ZM203.156 -24.7534C203.15 -20.1035 202.478 -15.4783 201.161 -11.0172L158.708 -24.7534L201.161 -38.4897C202.472 -34.0274 203.144 -29.403 203.156 -24.7534ZM105.844 -24.7534C105.851 -29.4054 106.533 -34.0319 107.868 -38.4897L150.379 -24.7534L107.868 -11.0172C106.528 -15.4741 105.846 -20.1012 105.844 -24.7534ZM153.271 -73.1328V-28.7275L127.041 -64.6664C134.771 -69.9698 143.887 -72.9122 153.271 -73.1328ZM149.396 -75.5518L153.271 -80.8505V-75.6958C151.912 -75.6958 150.61 -75.6958 149.338 -75.5518H149.396ZM125.509 -66.9126L122.617 -71.0307L128.95 -68.9861C127.649 -68.1797 126.521 -67.5174 125.451 -66.7686L125.509 -66.9126ZM123.426 -65.3576C122.385 -64.5513 121.421 -63.7161 120.535 -62.8522V-69.3604L123.426 -65.3576ZM124.959 -63.2554L151.16 -27.3452L108.736 -41.0815C111.899 -49.8125 117.509 -57.4578 124.901 -63.1114L124.959 -63.2554ZM106.277 -41.8878L101.217 -43.2989L107.521 -45.3435C107 -44.0188 106.653 -42.9533 106.22 -41.7439L106.277 -41.8878ZM105.439 -39.4113C105.063 -38.2018 104.745 -36.9347 104.456 -35.6676L100.58 -40.9951L105.439 -39.4113ZM105.439 -10.3548L100.58 -8.7998L104.456 -14.0984C104.687 -12.6874 105.005 -11.4491 105.381 -10.2108L105.439 -10.3548ZM106.277 -7.9071C106.711 -6.66882 107.174 -5.45929 107.695 -4.27863L101.217 -6.17926L106.277 -7.9071ZM108.736 -8.71338L151.16 -22.4209L124.901 13.5757C117.473 7.89551 111.842 0.208496 108.678 -8.5694L108.736 -8.71338ZM120.303 13.0574C121.286 13.9597 122.25 14.7947 123.195 15.5627L120.303 19.7095V13.0574ZM125.422 17.1177C126.492 17.8665 127.62 18.5288 128.748 19.1912L122.414 21.2358L125.422 17.1177ZM126.955 15.0443L153.271 -20.7506V23.6547C143.869 23.4302 134.736 20.4888 126.983 15.1884L126.955 15.0443ZM153.271 26.2465V31.3436L149.396 26.0449C150.61 26.1601 151.912 26.2177 153.271 26.2465ZM155.874 26.2465C157.175 26.2465 158.447 26.2465 159.72 26.0449L155.874 31.3436V26.2465ZM155.874 23.6547V-20.7506L182.074 15.1884C174.33 20.485 165.208 23.4264 155.816 23.6547H155.874ZM183.607 17.2617L186.499 21.3798L180.223 19.3351C181.351 18.6728 182.479 18.0104 183.549 17.2617H183.607ZM185.689 15.7067C186.73 14.9292 187.742 14.0941 188.581 13.2302V19.8535L185.689 15.7067ZM184.156 13.6333L157.898 -22.2769L200.322 -8.5694C197.158 0.208496 191.527 7.89551 184.099 13.5757L184.156 13.6333ZM202.838 -7.76306L207.725 -6.17926L201.421 -4.13458C201.913 -5.31525 202.433 -6.5824 202.78 -7.76306H202.838ZM203.677 -10.2108C204.053 -11.4491 204.371 -12.6874 204.66 -13.9545L208.535 -8.65582L203.677 -10.2108ZM203.677 -39.2673L208.535 -40.8511L204.602 -35.3796C204.313 -36.7907 203.995 -38.0578 203.619 -39.2673H203.677ZM202.838 -41.7439C202.404 -42.9533 201.971 -44.1628 201.421 -45.3435L207.725 -43.2989L202.838 -41.7439ZM200.38 -40.9375L157.898 -27.2012L184.099 -63.1114C191.535 -57.4269 197.167 -49.7282 200.322 -40.9375H200.38ZM188.812 -62.7083C187.829 -63.5722 186.865 -64.4073 185.921 -65.2136L188.812 -69.3604V-62.7083ZM183.694 -66.7686C182.624 -67.5174 181.496 -68.1797 180.368 -68.842L186.701 -70.8867L183.694 -66.7686ZM182.161 -64.6664L155.96 -28.7275V-73.1328C165.285 -72.8789 174.336 -69.938 182.016 -64.6664H182.161ZM155.816 -75.6958V-80.7929L159.662 -75.523C158.39 -75.6958 157.117 -75.6958 155.816 -75.6958ZM146.128 -75.0335C141.097 -74.1909 136.223 -72.5988 131.668 -70.3107V-70.5987L120.332 -74.256V-129.431L152.895 -84.8245L145.897 -75.235L146.128 -75.0335ZM118.019 -60.6349C114.436 -57.0001 111.415 -52.8562 109.054 -48.3384V-48.5976L97.7174 -44.9115L65.0678 -89.4609L117.729 -72.4129V-60.5485L118.019 -60.6349ZM103.559 -32.2695L103.79 -32.4423C103.387 -29.9276 103.175 -27.3863 103.154 -24.8398C103.176 -22.2839 103.388 -19.7331 103.79 -17.2086L103.559 -17.3814L96.5318 -7.79187L43.9569 -24.7534L96.6185 -41.8014L103.559 -32.2695ZM108.88 -1.08209V-1.3125C111.235 3.20074 114.257 7.33618 117.845 10.9551H117.556V22.8196L65.0678 39.954L97.6307 -4.65295L108.88 -1.08209ZM131.495 20.775C136.051 23.054 140.925 24.6364 145.954 25.469L145.723 25.6417L152.721 35.2313L120.159 79.867L120.159 24.8066L131.495 21.1205V20.775ZM162.814 25.469C167.843 24.6347 172.717 23.0524 177.274 20.775V21.0342L188.61 24.7202V79.867L156.163 35.3176L163.19 25.7281L162.814 25.469ZM190.923 11.0703C194.503 7.44379 197.524 3.30981 199.888 -1.19733V-0.966919L211.225 -4.62421L243.759 39.9828L191.097 22.9348V11.0703H190.923ZM205.383 -17.2662L205.152 -17.0934C205.554 -19.6179 205.766 -22.1687 205.788 -24.7247C205.768 -27.2711 205.555 -29.8125 205.152 -32.3271L205.383 -32.1544L212.381 -41.7726L265.043 -24.7247L212.381 -7.6767L205.383 -17.2662ZM200.062 -48.4824V-48.2232C197.691 -52.7348 194.671 -56.8773 191.097 -60.5197H191.357V-72.3842L244.019 -89.4321L211.398 -44.8251L200.062 -48.4824ZM177.418 -70.3107C172.863 -72.5972 167.989 -74.1892 162.959 -75.0335L163.19 -75.2063L156.163 -84.8245L188.726 -129.431L188.726 -74.2847L177.389 -70.6275L177.418 -70.3107ZM120.332 -165.342L153.271 -182.879V-88.8274L120.332 -133.837V-165.342ZM117.729 -132.916L117.729 -77.2509L62.2049 -153.448L99.1055 -158.574L117.729 -132.916ZM43.8123 -118.517L60.0938 -151.865L115.676 -75.6958L62.4651 -92.9742L43.8123 -118.517ZM30.6831 -100.519L60.8746 -90.7568L93.7266 -45.7179L3.87515 -74.8607L30.6831 -100.519ZM9.5722 -35.8116L3.06542 -72.3842L92.9169 -43.2989L39.7348 -26.0205L9.5722 -35.8116ZM9.5722 -13.5513L39.7348 -23.3136L92.9169 -6.03522L3.06542 22.8772L9.5722 -13.5513ZM30.6831 51.0121L3.87515 25.2962L93.7266 -3.7027L60.73 41.3074L30.6831 51.0121ZM62.494 43.4672L115.676 26.1889L60.0938 102.444L43.8123 69.068L62.494 43.4672ZM99.1345 109.01L62.2338 103.884L117.729 27.9743L117.729 83.6394L99.1345 109.01ZM120.361 84.3018L153.271 39.3204L153.271 133.401L120.39 115.95L120.361 84.3018ZM188.697 115.979L155.845 133.43L155.845 39.3204L188.697 84.3594L188.697 115.979ZM191.299 83.553V27.9743L246.824 104.057L209.952 109.183L191.299 83.553ZM265.216 69.1544L248.935 102.53L193.411 26.4193L246.564 43.6976L265.216 69.1544ZM278.317 51.0121L248.154 41.2499L215.302 -3.7027L305.125 25.3826L278.317 51.0121ZM299.428 -13.6666L305.935 22.8196L216.083 -6.17926L269.265 -23.4576L299.428 -13.6666ZM299.428 -35.9268L269.265 -26.1646L216.083 -43.4429L305.935 -72.5281L299.428 -35.9268ZM278.317 -100.634L305.125 -74.9183L215.302 -45.8331L248.154 -90.872L278.317 -100.634ZM246.506 -93.0893L193.353 -75.811L248.877 -151.922L265.159 -118.575L246.506 -93.0893ZM209.923 -158.574L246.795 -153.448L191.271 -77.3373L191.271 -133.002L209.923 -158.574ZM188.668 -133.837L155.816 -88.8274V-182.879L188.668 -165.428V-133.837ZM60.2384 -173.405L44.304 -186.968L60.2384 -200.561L124.959 -186.968L60.2384 -173.405ZM246.101 -200.561L262.035 -186.968L246.101 -173.405L181.38 -186.968L246.101 -200.561ZM299.428 -338.096L305.935 -301.581L216.083 -330.638L269.265 -347.916L299.428 -338.096ZM105.844 -349.27C105.851 -353.922 106.533 -358.548 107.868 -363.006L150.379 -349.27L107.868 -335.476C106.523 -339.951 105.841 -344.598 105.844 -349.27ZM203.156 -349.27C203.15 -344.62 202.478 -339.995 201.161 -335.533L158.708 -349.27L201.161 -363.006C202.472 -358.544 203.144 -353.919 203.156 -349.27ZM204.602 -338.471L208.477 -333.172L203.619 -334.727C203.995 -335.908 204.313 -337.146 204.602 -338.413V-338.471ZM203.619 -363.668L208.477 -365.252L204.602 -359.925C204.313 -361.249 203.995 -362.516 203.619 -363.668ZM202.78 -366.145C202.347 -367.354 201.913 -368.564 201.363 -369.745L207.668 -367.7L202.78 -366.145ZM200.322 -365.339L157.898 -351.66L184.099 -387.57C191.535 -381.886 197.167 -374.187 200.322 -365.396V-365.339ZM188.755 -387.109C187.771 -387.973 186.807 -388.808 185.863 -389.615L188.755 -393.762V-387.109ZM183.636 -391.17C182.566 -391.918 181.438 -392.581 180.31 -393.243L186.557 -395.345L183.636 -391.17ZM182.103 -389.068L155.816 -353.186V-397.592C165.19 -397.365 174.295 -394.423 182.016 -389.125L182.103 -389.068ZM155.903 -400.126V-405.28L159.749 -400.011C158.39 -400.126 157.117 -400.155 155.816 -400.183L155.903 -400.126ZM153.3 -400.126C151.998 -400.126 150.697 -400.126 149.425 -399.953L153.271 -405.309L153.3 -400.126ZM153.3 -397.534V-353.186L126.983 -389.125C134.73 -394.439 143.867 -397.382 153.271 -397.592L153.3 -397.534ZM125.538 -391.17L122.646 -395.288L128.979 -393.243C127.649 -392.638 126.521 -391.976 125.451 -391.227L125.538 -391.17ZM123.455 -389.615C122.414 -388.808 121.45 -387.973 120.563 -387.109V-393.819L123.455 -389.615ZM124.988 -387.513L151.189 -351.602L108.678 -365.396C111.832 -374.187 117.465 -381.886 124.901 -387.57L124.988 -387.513ZM106.306 -366.145L101.217 -367.758L107.521 -369.802C107 -368.622 106.653 -367.412 106.22 -366.203L106.306 -366.145ZM105.468 -363.668C105.092 -362.459 104.774 -361.192 104.484 -359.925L100.609 -365.252L105.468 -363.668ZM105.468 -334.612L100.609 -333.057L104.484 -338.356C104.687 -337.146 105.005 -335.908 105.381 -334.67L105.468 -334.612ZM106.306 -332.164C106.74 -330.926 107.203 -329.716 107.723 -328.536L101.217 -330.638L106.306 -332.164ZM108.765 -332.97L151.189 -346.678L124.901 -310.825C117.464 -316.521 111.832 -324.229 108.678 -333.028L108.765 -332.97ZM120.332 -311.2C121.315 -310.297 122.279 -309.462 123.224 -308.694L120.332 -304.548L120.332 -311.2ZM125.451 -307.139C126.521 -306.391 127.649 -305.728 128.776 -305.066L122.443 -303.194L125.451 -307.139ZM126.983 -309.213L153.271 -345.209V-300.804C143.869 -301.028 134.736 -303.97 126.983 -309.27V-309.213ZM153.271 -298.212V-293.115L149.396 -298.414C150.61 -298.299 151.912 -298.241 153.271 -298.212ZM155.874 -298.212C157.175 -298.212 158.447 -298.212 159.72 -298.414L155.816 -293.115L155.874 -298.212ZM155.874 -300.804V-345.209L182.074 -309.27C174.33 -303.974 165.208 -301.032 155.816 -300.804H155.874ZM183.607 -307.197L186.499 -303.079L180.166 -305.124C181.351 -305.786 182.479 -306.448 183.549 -307.197H183.607ZM185.689 -308.752C186.73 -309.539 187.694 -310.374 188.581 -311.257V-304.605L185.689 -308.752ZM184.156 -310.825L157.898 -346.736L200.322 -333.028C197.168 -324.229 191.536 -316.521 184.099 -310.825H184.156ZM202.838 -332.222L207.725 -330.638L201.421 -328.593C201.913 -329.774 202.433 -330.984 202.78 -332.222H202.838ZM205.441 -341.754H205.21C206.058 -346.787 206.058 -351.925 205.21 -356.959L205.441 -356.786L212.439 -366.404L265.043 -349.27L212.381 -332.164L205.441 -341.754ZM200.062 -372.97V-372.711C197.696 -377.226 194.676 -381.369 191.097 -385.007H191.357V-396.872L244.019 -413.92L211.398 -369.284L200.062 -372.97ZM177.418 -394.798C172.863 -397.085 167.989 -398.677 162.959 -399.521L163.19 -399.694L156.163 -409.283L188.668 -453.89L188.668 -398.743L177.332 -395.086L177.418 -394.798ZM146.128 -399.521C141.097 -398.678 136.223 -397.086 131.668 -394.798V-395.086L120.332 -398.743V-453.89L152.895 -409.283L145.897 -399.694L146.128 -399.521ZM118.019 -385.122C114.429 -381.493 111.407 -377.348 109.054 -372.826V-373.085L97.7174 -369.399L65.0678 -413.92L117.729 -396.872L117.729 -385.007L118.019 -385.122ZM103.559 -356.757L103.79 -356.93C102.945 -351.896 102.945 -346.758 103.79 -341.725H103.559L96.5318 -332.135L43.9569 -349.27L96.6185 -366.26L103.559 -356.757ZM108.88 -325.57V-325.829C111.227 -321.302 114.249 -317.156 117.845 -313.532H117.556L117.556 -301.668L65.0678 -284.505L97.6307 -329.112L108.88 -325.57ZM131.495 -303.712C136.051 -301.434 140.925 -299.851 145.954 -299.019L145.723 -298.846L152.721 -289.256L120.332 -244.505V-299.652L131.668 -303.194L131.495 -303.712ZM162.814 -299.019C167.843 -299.853 172.717 -301.435 177.274 -303.712V-303.453L188.61 -299.767L188.61 -244.505L156.163 -289.141L163.19 -298.731L162.814 -299.019ZM190.923 -313.417C194.51 -317.048 197.532 -321.193 199.888 -325.714V-325.454L211.398 -329.112L243.932 -284.505L191.271 -301.553V-313.417H190.923ZM299.341 -360.328L269.265 -350.566L216.083 -367.844L305.935 -396.9L299.341 -360.328ZM278.23 -425.035L305.038 -399.319L215.302 -370.234L248.154 -415.273L278.23 -425.035ZM246.419 -417.49L193.266 -400.212L248.79 -476.323L265.188 -443.034L246.419 -417.49ZM209.923 -483.033L246.795 -477.907L191.271 -401.796L191.271 -457.461L209.923 -483.033ZM188.668 -458.296L155.816 -413.286L155.816 -507.338L188.668 -489.887V-458.296ZM120.332 -489.973L153.271 -507.338L153.271 -413.286L120.332 -458.296L120.332 -489.973ZM117.729 -457.547V-401.796L62.2049 -477.907L99.1055 -483.033L117.729 -457.547ZM43.8123 -443.149L60.0938 -476.496L115.676 -400.27L62.494 -417.548L43.8123 -443.149ZM30.6831 -425.151L60.8746 -415.388L93.7266 -370.234L3.87515 -399.319L30.6831 -425.151ZM9.5722 -360.328L3.06542 -396.843L92.9169 -367.758L39.7348 -350.479L9.5722 -360.328ZM9.5722 -338.096L39.7348 -347.859L92.9169 -330.58L3.06542 -301.581L9.5722 -338.096ZM30.6831 -273.389L3.87515 -299.105L93.7266 -328.19L60.73 -283.036L30.6831 -273.389ZM62.494 -280.934L115.676 -298.212L60.0938 -222.043L43.8123 -255.391L62.494 -280.934ZM99.1345 -215.391L62.2338 -220.517L117.758 -296.6V-240.934L99.1345 -215.391ZM120.361 -240.099L153.271 -285.138L153.271 -191.058L120.39 -208.509L120.361 -240.099ZM188.697 -208.422L155.845 -190.971L155.845 -285.138L188.668 -240.099L188.697 -208.422ZM191.299 -240.848L191.299 -296.628L246.824 -220.517L209.952 -215.391L191.299 -240.848ZM265.216 -255.247L248.935 -221.899L193.382 -298.126L246.535 -280.847L265.216 -255.247ZM215.302 -328.19L305.125 -299.105L278.317 -273.389L248.154 -283.036L215.302 -328.19Z" fill="url(#paint0_linear_34_1398)" fill-opacity="0.3"/>
</g>
<defs>
<linearGradient id="paint0_linear_34_1398" x1="-4.60607e-05" y1="526.098" x2="355.107" y2="519.606" gradientUnits="userSpaceOnUse">
<stop stop-color="white"/>
<stop offset="1" stop-color="white" stop-opacity="0"/>
</linearGradient>
<clipPath id="clip0_34_1398">
<rect width="309" height="423" fill="white"/>
</clipPath>
</defs>
</svg>
