<svg width="91" height="86" viewBox="0 0 91 86" fill="none" xmlns="http://www.w3.org/2000/svg">
<g clip-path="url(#clip0_34_1425)">
<path d="M42.0187 86C35.4827 86 30.6089 82.8907 26.9014 77.7868C25.8094 76.4177 25.1903 74.7313 25.137 72.9804C25.0836 71.2295 25.5989 69.5085 26.6055 68.0754C28.6192 64.8033 31.1296 61.8648 34.0467 59.3657C38.3982 55.6466 43.8812 56.7527 46.7706 61.6737C47.0491 62.1702 47.2928 62.6841 47.5365 63.2066C48.0022 64.2839 48.3721 65.4002 48.6418 66.5425C48.929 67.5876 49.1466 67.727 50.1127 67.3264C61.9257 62.3618 69.921 53.8204 74.0985 41.7023C74.4031 40.8313 74.0985 40.4132 73.2282 40.2478C70.8107 39.8134 68.5279 38.8203 66.5616 37.3474C63.9506 35.4139 63.1848 33.2713 63.9506 30.127C64.1896 29.0491 64.5456 28.0006 65.0124 27.0002C66.646 23.7209 68.7223 20.6817 71.1829 17.9682C72.5007 16.5237 74.1161 15.3826 75.9175 14.6237C76.5434 14.3391 77.2245 14.1962 77.9119 14.2052C78.5994 14.2143 79.2765 14.375 79.8948 14.676C80.6632 15.016 81.3855 15.452 82.0445 15.9737C84.2961 17.7396 86.3399 19.7557 88.1367 21.9834C89.4225 23.5271 90.3177 25.3582 90.7464 27.3216C91.1751 29.2849 91.1248 31.3228 90.5996 33.2625C85.6998 53.295 74.4988 68.868 57.6757 80.5216C53.8577 83.2977 49.4165 85.0923 44.7428 85.7475C43.829 85.8955 42.9239 85.9304 42.0187 86ZM45.2128 63.3547C45.1127 63.3879 45.0164 63.4317 44.9256 63.4854C39.6254 67.9535 35.3521 73.3012 31.2617 78.8842C30.957 79.2935 31.1746 79.459 31.4531 79.6768C34.9344 82.3681 38.7202 83.6658 43.1066 82.2897C58.2013 77.6901 71.0258 67.5967 79.0506 54.0004C82.6189 48.104 85.2037 41.7197 87.7537 35.3442C88.2434 34.1507 88.5854 32.9017 88.772 31.6251C89.3986 27.3573 87.4752 24.0999 84.5945 21.2257C84.1854 20.8163 84.0114 21.2257 83.8025 21.4086C79.1619 26.1757 74.9181 31.3141 71.1133 36.7726C70.7478 37.2777 70.9044 37.4606 71.4179 37.5913C72.1577 37.7829 72.8975 38.0094 73.6459 38.1923C76.0567 38.8019 76.8748 40.1781 76.0567 42.5471C71.7051 55.124 63.3675 64.0602 51.0961 69.2686C48.6505 70.3051 47.2232 69.5473 46.527 66.9605C46.2696 65.7035 45.8421 64.4874 45.2563 63.346L45.2128 63.3547ZM65.8044 31.7035C65.7744 32.6351 66.017 33.5551 66.5026 34.3504C66.9881 35.1458 67.6953 35.7818 68.5372 36.1803C68.9375 36.3371 69.0072 36.0758 69.1464 35.8842C69.7643 35.0132 70.3562 34.1422 70.9741 33.3496C74.3874 28.6138 78.1519 24.1418 82.2359 19.9715C82.6015 19.6057 82.7668 19.3705 82.2794 18.9524C81.344 18.0876 80.3099 17.3363 79.1985 16.714C78.8171 16.5024 78.3907 16.3849 77.9548 16.3712C77.5188 16.3576 77.0859 16.4482 76.692 16.6356C74.9122 17.4266 73.3394 18.619 72.0968 20.1195C70.5337 22.0063 69.125 24.0161 67.8845 26.1293C66.7719 27.8025 66.0601 29.71 65.8044 31.7035ZM39.7472 59.3047C38.0017 59.3494 36.3367 60.0489 35.0823 61.2644C32.6345 63.5046 30.4714 66.0379 28.642 68.807C26.7447 71.8032 26.9014 74.2245 28.9553 77.0813C29.3122 77.5777 29.4949 77.7258 29.9301 77.0813C33.8186 71.4636 38.3812 66.3446 43.5157 61.8392C43.829 61.5779 43.9334 61.3863 43.594 61.0466C43.1003 60.5155 42.5059 60.088 41.8455 59.7889C41.1851 59.4898 40.4718 59.3252 39.7472 59.3047Z" fill="#787878"/>
<path d="M35.3086 1.42837C45.2911 1.42837 53.2545 8.09132 55.5695 17.9769C56.6748 22.6453 56.7097 27.1918 54.8298 31.6686C53.317 35.436 50.6904 38.6511 47.3016 40.8835C47.0459 41.0309 46.832 41.241 46.6797 41.4939C46.5275 41.7468 46.442 42.0343 46.4312 42.3293C46.2188 44.7332 45.8261 47.1177 45.2563 49.4626C44.8299 51.2046 43.6898 51.64 41.9926 51.3526C40.7345 51.1778 39.5254 50.7468 38.4402 50.0862C37.355 49.4256 36.4165 48.5493 35.6829 47.5116C35.3347 47.0239 34.9344 47.2416 34.5167 47.3548C31.8535 48.0516 29.1729 48.67 26.4663 49.0968C23.4755 49.6085 20.4125 49.5131 17.4594 48.8163C14.5063 48.1194 11.7234 46.8353 9.27618 45.0403C6.82897 43.2454 4.76746 40.9762 3.21426 38.3679C1.66105 35.7595 0.647879 32.8651 0.234996 29.857C-1.50563 18.212 7.1975 7.54261 16.4489 5.46969C21.549 4.32 26.6142 3.03967 31.7055 1.83773C32.8854 1.55463 34.0954 1.41716 35.3086 1.42837ZM42.9587 49.5932C43.7362 46.893 44.2378 44.1207 44.4556 41.319C44.4727 40.9385 44.5883 40.569 44.7913 40.2467C44.9942 39.9245 45.2775 39.6607 45.6132 39.4812C48.9624 37.4357 51.5465 34.3446 52.9673 30.6844C54.7079 26.4515 54.4468 22.2011 53.3589 17.8549C50.8873 7.99552 41.7751 1.91611 31.9753 3.92807C26.797 4.99065 21.6447 6.25357 16.536 7.66455C9.86067 9.5023 5.63094 13.9356 3.69884 20.5898C2.57614 24.4656 3.21147 28.2892 4.22974 32.0954C5.38456 36.4212 8.08984 40.1704 11.8297 42.6281C15.5697 45.0858 20.0826 46.08 24.508 45.4213C28.4767 44.7768 32.3409 43.6009 36.2486 42.6864C36.5439 42.5752 36.8675 42.5644 37.1696 42.6557C37.4716 42.7471 37.7352 42.9354 37.9196 43.1916C38.7899 44.3239 39.7211 45.4474 40.6088 46.5797C41.3573 47.5203 42.0797 48.4697 42.9587 49.5932Z" fill="#787878"/>
<path d="M67.7017 1.35871C67.2437 5.11993 66.368 8.8183 65.0907 12.3852C65.0583 12.5268 64.995 12.6593 64.9053 12.7735C64.8156 12.8876 64.7018 12.9805 64.572 13.0454C64.4423 13.1103 64.2997 13.1457 64.1547 13.1491C64.0096 13.1524 63.8657 13.1235 63.7331 13.0646C63.5942 13.0234 63.4659 12.9525 63.3571 12.8569C63.2482 12.7612 63.1614 12.6431 63.1027 12.5106C63.0439 12.3781 63.0146 12.2344 63.0168 12.0894C63.0189 11.9445 63.0525 11.8017 63.1151 11.671C64.3133 8.22172 65.1533 4.65805 65.6216 1.03645C65.7174 0.313544 66.1438 -0.0783947 66.8401 -7.05849e-06C67.5363 0.0783806 67.7365 0.618385 67.7017 1.35871Z" fill="#787878"/>
<path d="M69.0333 14.1272C68.8245 14.1173 68.6235 14.0455 68.4556 13.9209C68.2878 13.7963 68.1608 13.6246 68.0908 13.4275C68.0209 13.2305 68.011 13.017 68.0626 12.8144C68.1142 12.6117 68.2249 12.429 68.3805 12.2895L69.8862 10.9656L75.6303 5.94008C76.1873 5.45234 76.7878 5.1562 77.3709 5.80944C77.954 6.46267 77.6059 7.0288 77.0402 7.55138L70.0167 13.6482C69.7616 13.927 69.41 14.0983 69.0333 14.1272Z" fill="#787878"/>
<path d="M60.4607 14.3537C60.4776 14.4833 60.4684 14.6149 60.4335 14.7409C60.3987 14.8668 60.3389 14.9844 60.2577 15.0868C60.1765 15.1892 60.0756 15.2742 59.961 15.3367C59.8464 15.3993 59.7203 15.4382 59.5904 15.4511C59.4575 15.4801 59.3201 15.4816 59.1866 15.4557C59.0531 15.4298 58.9263 15.3769 58.8139 15.3003C58.7015 15.2236 58.6059 15.1249 58.5329 15.0101C58.4599 14.8953 58.4111 14.7667 58.3893 14.6324C57.9803 13.143 57.5886 11.6537 57.1883 10.1643C56.8924 9.03203 56.5965 7.89976 56.318 6.75879C56.264 6.62502 56.2403 6.48092 56.2486 6.33689C56.257 6.19286 56.2972 6.05247 56.3663 5.92584C56.4353 5.79922 56.5316 5.6895 56.6482 5.60461C56.7648 5.51972 56.8987 5.46176 57.0404 5.4349C57.1775 5.38726 57.3235 5.37032 57.4679 5.38528C57.6123 5.40025 57.7517 5.44675 57.8762 5.5215C58.0007 5.59626 58.1072 5.69745 58.1884 5.81793C58.2695 5.93841 58.3233 6.07524 58.3458 6.21878C59.0508 8.8317 59.7209 11.4446 60.4085 13.9879C60.432 14.1089 60.4494 14.2309 60.4607 14.3537Z" fill="#787878"/>
<path d="M14.4124 33.5151C13.7597 33.5151 13.368 33.2277 13.281 32.6441C13.2532 32.5113 13.2522 32.3743 13.278 32.2411C13.3038 32.1079 13.3559 31.9812 13.4313 31.8685C13.5067 31.7557 13.6038 31.6591 13.717 31.5844C13.8302 31.5097 13.9571 31.4584 14.0904 31.4335L19.5385 29.6915C25.1173 27.8973 30.7569 26.2686 35.9527 23.4728C37.6596 22.5448 39.3129 21.5212 40.9047 20.4069C41.5401 19.9714 42.2189 19.6579 42.7498 20.4069C43.2807 21.156 42.7498 21.696 42.1058 22.1489C36.6489 25.9463 30.5654 28.3676 24.273 30.3447C21.2095 31.3115 18.1808 32.3044 15.0825 33.2886L14.4124 33.5151Z" fill="#787878"/>
<path d="M12.7762 21.6001C12.1931 21.6001 11.7666 21.3563 11.6535 20.7292C11.5055 19.9888 11.9146 19.5969 12.5847 19.4227C14.0643 19.022 15.5612 18.6649 17.0494 18.2556C23.5615 16.4285 29.9223 14.0989 36.0745 11.2878C36.3182 11.1746 36.5619 11.0613 36.8056 10.9655C37.4496 10.713 38.0327 10.7652 38.3373 11.4533C38.6419 12.1413 38.2764 12.6204 37.6498 12.8991C35.7525 13.7701 33.8639 14.5801 31.9405 15.364C25.933 17.8447 19.748 19.871 13.4376 21.4259L12.7762 21.6001Z" fill="#787878"/>
<path d="M35.0736 35.0568C35.0791 35.2603 35.0207 35.4604 34.9068 35.6291C34.7929 35.7978 34.6291 35.9266 34.4383 35.9974C32.454 36.8074 30.461 37.6087 28.4767 38.4013C28.2291 38.4785 27.9617 38.4607 27.7265 38.3515C27.4913 38.2423 27.3051 38.0494 27.2041 37.8104C27.1031 37.5714 27.0946 37.3033 27.1802 37.0584C27.2658 36.8134 27.4395 36.6091 27.6673 36.4852C29.6777 35.6142 31.6881 34.8216 33.7595 34.0464C33.9147 33.9903 34.0816 33.9741 34.2448 33.9995C34.4079 34.0248 34.562 34.0909 34.693 34.1915C34.8239 34.2922 34.9274 34.4242 34.9939 34.5754C35.0604 34.7266 35.0879 34.8921 35.0736 35.0568Z" fill="#787878"/>
</g>
<defs>
<clipPath id="clip0_34_1425">
<rect width="91" height="86" fill="white"/>
</clipPath>
</defs>
</svg>
