<svg width="128" height="128" viewBox="0 0 128 128" fill="none" xmlns="http://www.w3.org/2000/svg">
<path fill-rule="evenodd" clip-rule="evenodd" d="M52.941 0.883331C18.2373 7.22302 -5.07081 40.3651 0.946302 74.8164C7.01504 109.563 40.293 133.093 74.8272 127.055C101.467 122.397 122.385 101.429 127.058 74.699C133.088 40.2089 109.518 6.96986 74.7099 0.877592C68.0102 -0.294441 59.3762 -0.292527 52.941 0.883331ZM78.6958 7.22876C90.9041 10.3068 102.792 18.2024 110.812 28.5606C114.745 33.6403 119.028 42.6148 120.848 49.5909C123.111 58.267 123.11 69.6876 120.846 78.3682C115.392 99.2747 99.271 115.403 78.3702 120.86C69.6985 123.125 58.2838 123.124 49.6077 120.858C28.7113 115.402 12.5911 99.2715 7.13804 78.3612C4.86211 69.6347 4.85828 58.2243 7.12785 49.5839C11.4962 32.9548 22.5393 19.2265 37.6583 11.6293C50.586 5.13338 64.4756 3.64379 78.6958 7.22876ZM48.4 38.7461C47.9787 39.5336 47.7403 48.6542 47.7403 63.976C47.7403 79.2979 47.9787 88.4184 48.4 89.206C48.7633 89.8844 49.695 90.4347 50.4713 90.429C51.2476 90.4233 60.4871 84.8794 71.0032 78.1087C88.8799 66.5994 90.1233 65.678 90.1233 63.9416C90.1233 62.204 88.8869 61.2902 71.0032 49.8052C60.4871 43.0523 51.2476 37.5237 50.4713 37.5199C49.695 37.516 48.7633 38.0676 48.4 38.7461ZM68.9694 54.9282C76.6143 59.828 82.6372 64.0519 82.3535 64.3146C81.7232 64.8981 56.2252 81.3601 54.6223 82.2184C53.5312 82.8025 53.4764 81.9257 53.4764 63.9607C53.4764 49.0412 53.6434 45.1872 54.273 45.5545C54.7115 45.8102 61.3246 50.0283 68.9694 54.9282Z" fill="white"/>
</svg>
