<svg width="96" height="94" viewBox="0 0 96 94" fill="none" xmlns="http://www.w3.org/2000/svg">
<g clip-path="url(#clip0_34_1436)">
<path d="M91.6199 36.9392C91.6874 39.034 91.9997 41.1969 90.6324 43.0106C90.4721 43.2235 90.5734 43.4534 90.6324 43.6748C92.8267 54.3785 94.5062 65.1673 95.7637 76.0328C96.1353 78.4747 96.0925 80.9626 95.6371 83.39C95.0548 85.9446 93.6538 87.1708 91.0207 87.3837L59.3048 89.9382C57.1696 90.1171 55.0259 90.4151 52.9498 89.5465C52.8737 89.5189 52.7918 89.5114 52.712 89.5248C52.6322 89.5383 52.5572 89.5721 52.4941 89.6232C49.9622 91.173 47.0759 91.5817 44.2317 92.0585C36.729 93.3273 29.1334 93.4295 21.5715 93.8553C19.1655 94.106 16.7374 94.043 14.3473 93.6679C10.0093 92.8164 7.46058 90.1511 6.91201 85.7402C6.65038 83.7306 6.50691 81.6955 6.36344 79.6688C5.72766 70.8016 5.24379 61.9202 4.91183 53.0246C4.91502 52.4397 4.72496 51.8704 4.3717 51.4067C3.37583 50.1464 3.49399 48.537 3.283 47.0724C1.89047 37.1947 1.15623 27.2489 0.489504 17.286C0.354471 15.2594 0.219438 13.2242 0.042207 11.1976C-0.278496 7.44236 1.22375 5.44128 4.93715 5.23691C11.8576 4.8963 18.7527 4.15547 25.6563 3.58495C29.741 3.24434 33.8173 2.85264 37.9021 2.48648C39.0041 2.37587 40.1129 2.35025 41.2188 2.40984C42.1638 2.41443 43.0707 2.78653 43.7507 3.4487C43.9998 3.73519 44.3323 3.93479 44.7007 4.01891C45.0691 4.10304 45.4544 4.06738 45.8015 3.91704C50.7133 2.89521 55.6505 2.28211 60.5961 1.70308C67.449 0.902641 74.3188 0.315087 81.2139 2.23741e-05C82.2206 -0.0768661 83.2329 -0.0253684 84.2268 0.153297C85.4663 0.399965 86.6086 1.00309 87.5161 1.88998C88.4235 2.77686 89.0574 3.90964 89.3412 5.15176C89.838 6.95718 90.0934 8.8215 90.1008 10.6952C90.3033 19.4574 91.2063 28.1855 91.6199 36.9392ZM45.2023 5.43276C43.776 3.12512 41.6155 2.87818 39.2946 3.21879C34.0536 3.92556 28.838 4.64936 23.6308 5.288C17.6387 6.02031 11.6635 6.81223 5.65451 7.15284C2.63315 7.33167 1.83983 8.26834 2.13522 11.3168C2.65003 16.707 3.13109 22.1056 3.62902 27.4958C4.27887 34.6231 5.10594 41.7248 6.21996 48.784C6.42251 50.0272 6.81073 50.3763 8.05135 50.2827C10.7372 50.0672 13.405 49.6632 16.0352 49.0735C18.8709 48.4604 20.812 49.8228 21.2171 52.7351C21.8332 57.1289 25.8673 60.3051 29.9098 59.5473C31.3471 59.3595 32.6575 58.6205 33.569 57.4836C34.4805 56.3467 34.9231 54.8992 34.8048 53.4418C34.4587 50.5722 36.1213 48.6392 39.0245 48.5115C41.396 48.4093 43.7676 48.2816 46.1391 48.1538C47.2025 48.0942 47.4557 47.8047 47.4135 46.7403C47.3459 45.0373 47.3037 43.2576 47.1434 41.529C46.9493 39.3746 46.7889 37.2032 45.6665 35.2617C45.5084 34.9218 45.2358 34.6495 44.8973 34.4936C44.5588 34.3376 44.1763 34.308 43.8182 34.4102C41.7373 34.8019 39.6216 34.9732 37.5054 34.9211C33.4038 34.7678 30.7538 32.6305 29.9098 28.7476C29.4922 26.7486 29.4922 24.6837 29.9098 22.6847C30.0674 21.6074 30.4752 20.5829 31.1001 19.695C31.7249 18.8071 32.549 18.0808 33.5051 17.5755C35.237 16.6285 37.1815 16.1476 39.1511 16.179C40.7035 16.3523 42.2679 16.3893 43.8266 16.2897C44.2696 16.2748 44.6904 16.0906 45.0038 15.7744C45.3172 15.4582 45.4998 15.0336 45.5146 14.5867C45.5767 13.4088 45.5202 12.2277 45.3458 11.0614C45.2445 9.55415 45.1601 8.04695 45.0841 6.53975C45.0841 6.28429 45.0841 5.96071 45.3795 5.9011C45.6749 5.84149 45.7677 6.09695 45.8775 6.30132C45.9709 6.43471 46.0448 6.58097 46.0969 6.7356C46.9611 9.3171 47.4583 12.0091 47.5738 14.7314C47.5738 16.9709 46.2741 18.2738 44.0545 18.6144C42.6552 18.7993 41.2397 18.825 39.8347 18.691C38.1038 18.5902 36.3808 18.9953 34.8723 19.8576C34.3185 20.1399 33.8333 20.5418 33.4511 21.0349C33.0689 21.528 32.7992 22.1 32.6611 22.7102C32.174 24.6932 32.2002 26.7692 32.7371 28.739C32.9285 29.5961 33.3832 30.3703 34.0364 30.9513C34.6895 31.5324 35.5078 31.8906 36.3745 31.9748C37.4022 32.1593 38.4502 32.1994 39.4887 32.0941C41.0331 31.8982 42.586 31.7109 44.1389 31.5576C44.8385 31.4727 45.5478 31.5873 46.1862 31.8883C46.8246 32.1893 47.3667 32.6647 47.751 33.2606C48.6222 34.4926 49.2235 35.8975 49.5149 37.382C50.0192 39.9267 50.3016 42.511 50.3589 45.1054C50.3589 45.48 50.1901 46.0421 50.9074 45.9569C53.9288 45.7866 56.9755 45.9058 59.9293 45.1054C61.5413 44.6711 61.6848 44.2539 60.8155 42.8403C60.0163 41.639 59.497 40.2708 59.2964 38.8381C58.5199 31.6087 65.7864 26.755 71.846 27.9556C75.475 28.6709 77.3064 31.2255 78.2347 34.6231C78.6713 36.6122 78.7938 38.6583 78.5976 40.686C78.5301 42.1421 78.5976 42.2272 80.0324 42.2102C82.4376 42.2102 84.8176 41.7248 87.2229 41.5715C87.6198 41.5715 88.0006 41.413 88.2821 41.1306C88.5636 40.8482 88.7229 40.4649 88.7251 40.0643C88.8179 38.8854 88.8179 37.7009 88.7251 36.522C88.4888 31.7024 88.2947 26.8742 87.9824 22.046C87.6702 17.2179 87.8221 12.5856 87.4085 7.87664C86.995 3.1677 84.9695 2.09478 81.2392 2.17993C73.171 2.37578 65.1112 2.82709 57.0683 3.43167C53.0173 3.73822 48.9748 4.09586 44.8563 4.43648L45.2023 5.43276ZM93.0462 79.192C92.8858 76.2372 92.5567 73.2994 92.2022 70.3702C91.527 64.9374 90.8266 59.5047 90.1345 54.072C89.7463 51.0065 89.4509 47.941 89.2315 44.867C89.2315 44.5519 89.3581 44.1432 88.6829 44.2964C86.0053 44.8426 83.2863 45.156 80.5556 45.2331C76.7325 45.4204 75.2809 43.8366 75.5678 39.9536C75.5678 39.8259 75.5678 39.6982 75.5678 39.5619C75.7112 38.4279 75.6742 37.2781 75.4581 36.1558C74.9349 33.0648 73.2976 31.0978 70.8923 30.8338C69.5292 30.6519 68.1426 30.8168 66.8587 31.3135C65.5749 31.8102 64.4345 32.623 63.5415 33.6779C62.6407 34.6631 62.0787 35.9151 61.9388 37.2481C61.7989 38.581 62.0887 39.924 62.765 41.0777C63.0847 41.6252 63.3666 42.1942 63.609 42.7807C63.7933 43.1695 63.8957 43.5925 63.9097 44.0232C63.9237 44.4539 63.849 44.8829 63.6904 45.283C63.5318 45.6831 63.2927 46.0457 62.9881 46.3478C62.6836 46.65 62.3202 46.8851 61.9211 47.0383C60.8749 47.4932 59.7583 47.7612 58.6212 47.8303C56.1216 48.0349 53.607 47.9491 51.1269 47.5748C50.6458 47.5152 50.4095 47.5748 50.342 48.1028C50.2199 48.9924 49.7674 49.802 49.076 50.3678C48.9436 50.4591 48.8462 50.5934 48.8001 50.7484C48.7541 50.9034 48.7621 51.0696 48.8229 51.2193C49.2702 52.9224 49.4643 54.7617 49.7765 56.5329C50.2576 59.2663 49.5993 59.2492 52.7473 58.7213C56.064 58.1593 58.9672 58.7213 61.1868 61.4717C62.2884 62.8628 63.0411 64.5015 63.3811 66.2488C63.8053 67.8527 63.6909 69.5533 63.0557 71.0847C62.4205 72.6161 61.3003 73.892 59.8703 74.713C59.0008 75.2893 58.0584 75.7447 57.0683 76.0669C55.5745 76.5267 54.0723 76.9184 52.57 77.3782C52.2156 77.4804 51.8611 77.5571 51.9371 78.0594C52.2662 80.1712 52.1227 82.3171 52.4941 84.4289C52.9245 86.8472 53.6756 87.571 56.1062 87.4518C58.8322 87.3155 61.5497 87.0175 64.2673 86.7706C71.1371 86.1404 77.9984 85.4933 84.8682 84.8717C86.7418 84.7014 88.6323 84.5992 90.5143 84.4544C92.2697 84.3267 92.7086 83.9094 92.9027 82.1297C92.9702 81.1079 92.9871 80.1542 93.0462 79.192ZM48.4937 50.7851C47.8669 51.0741 47.1965 51.2554 46.5104 51.3215C44.0714 51.4322 41.6408 51.5685 39.2018 51.6877C37.9865 51.7473 37.708 52.0027 37.8177 53.263C38.3916 59.7091 32.2982 63.7794 26.745 62.5787C24.6089 62.0717 22.6726 60.9301 21.1862 59.3013C19.6997 57.6726 18.7316 55.6315 18.4067 53.4418C18.1282 51.8665 17.875 51.7388 16.3306 52.0113C12.8619 52.6414 9.40168 53.3652 5.79799 52.8628C5.79799 53.0927 5.79799 53.3482 5.87394 53.6036C6.7179 59.2492 7.32555 64.9289 7.94164 70.6341C8.49865 75.6837 8.9797 80.7503 9.62955 85.7913C9.74221 86.7635 10.1163 87.686 10.7114 88.459C11.3064 89.232 12.0997 89.826 13.0054 90.1767C14.6928 90.8987 16.5303 91.1911 18.3561 91.0282C26.2808 90.5939 34.2224 90.4662 42.1303 89.7424C45.2192 89.4614 48.2996 89.0612 51.5235 88.695C49.996 86.7961 49.7681 84.6588 49.6921 82.4789C49.6921 81.3634 49.6077 80.2479 49.5571 79.1324C49.4136 75.9732 49.7597 75.5134 52.8401 74.8066C52.9329 74.8066 53.0342 74.8066 53.127 74.7555C54.9175 74.417 56.6567 73.8445 58.3005 73.0525C60.1066 72.0477 61.4822 70.6682 61.5835 68.4798C61.6886 67.1138 61.472 65.7421 60.9513 64.4768C60.4305 63.2115 59.6206 62.0884 58.5874 61.1992C57.7818 60.4774 56.7726 60.0278 55.7011 59.9134C54.2391 59.8523 52.7746 59.9064 51.321 60.0752C49.6331 60.1604 49.0929 59.7261 48.9832 57.9975C48.806 55.6132 48.6456 53.2375 48.4937 50.7851Z" fill="#446F50"/>
</g>
<defs>
<clipPath id="clip0_34_1436">
<rect width="96" height="94" fill="white"/>
</clipPath>
</defs>
</svg>
