<svg width="55" height="54" viewBox="0 0 55 54" fill="none" xmlns="http://www.w3.org/2000/svg">
<path d="M29.4552 52.7272C30.8172 52.6746 32.1705 52.5956 33.5237 52.5517C39.6134 52.3761 45.6942 52.0075 51.7838 51.9899C52.1894 51.9807 52.5751 51.8127 52.8579 51.5221C53.1406 51.2315 53.2977 50.8415 53.2953 50.4363C53.29 50.2551 53.2477 50.0769 53.1708 49.9127C53.0939 49.7486 52.9841 49.6019 52.8482 49.4818C52.7123 49.3617 52.5532 49.2707 52.3807 49.2144C52.2082 49.1582 52.026 49.1379 51.8453 49.1547C48.0551 49.1547 44.2648 49.1869 40.4745 49.2513C28.9631 49.4093 17.4605 49.3566 5.94903 49.3479C5.13181 49.3479 4.31459 49.225 3.48858 49.2425C3.28218 49.2267 3.07474 49.2537 2.87926 49.3217C2.68379 49.3898 2.5045 49.4974 2.35263 49.638C2.20077 49.7785 2.07961 49.9488 1.99675 50.1383C1.91389 50.3278 1.87112 50.5323 1.87112 50.7391C1.87112 50.9459 1.91389 51.1504 1.99675 51.3399C2.07961 51.5294 2.20077 51.6997 2.35263 51.8403C2.5045 51.9808 2.68379 52.0884 2.87926 52.1565C3.07474 52.2245 3.28218 52.2515 3.48858 52.2357L26.2127 53.0432C26.4315 53.0433 26.6487 53.082 26.8541 53.1573C26.7487 53.1913 26.6395 53.2119 26.529 53.2188C21.0223 53.4295 15.5126 53.6313 10 53.8244C7.79438 53.9034 5.60633 53.9912 3.4007 54.0263C2.98141 54.0588 2.55991 54.0049 2.16239 53.8678C1.76486 53.7306 1.39982 53.5133 1.08995 53.2293C0.780071 52.9453 0.531986 52.6007 0.36111 52.2168C0.190235 51.833 0.10022 51.4181 0.0966618 50.998C0.0885455 50.1585 0.404475 49.3481 0.978838 48.7352C1.5532 48.1222 2.34186 47.7538 3.18102 47.7064C3.52597 47.6757 3.87297 47.6757 4.21793 47.7064C4.62215 47.7064 4.72759 47.5923 4.73638 47.1885C4.81547 42.0273 4.85062 36.8661 4.80668 31.696C4.75396 25.9203 4.73052 20.1447 4.73638 14.369C4.73638 13.8599 4.61336 13.6843 4.10369 13.7458C3.80492 13.7458 3.48858 13.7458 3.22496 13.7458C2.75662 13.7618 2.29074 13.6715 1.86231 13.4819C1.43387 13.2922 1.05403 13.0081 0.751293 12.6508C0.448557 12.2935 0.230801 11.8723 0.114377 11.4189C-0.00204723 10.9655 -0.0141124 10.4916 0.0790871 10.0328C0.685414 7.56632 1.13357 5.06469 1.64323 2.58062C1.76515 1.83602 2.15635 1.16199 2.74268 0.686328C3.329 0.21067 4.06967 -0.0335421 4.82425 -4.25847e-06C6.47628 -4.25847e-06 8.1283 -4.25475e-06 9.76274 0.114105C14.5782 0.517876 19.4288 0.57932 24.2179 0.851426C26.3225 0.914298 28.4289 0.858618 30.5272 0.684651C31.3639 0.538538 32.2246 0.724346 32.9262 1.20253C33.406 1.55886 33.7575 2.06081 33.9279 2.63329C34.7012 5.21391 35.2636 7.8472 35.9315 10.4542C36.0063 10.8646 35.9915 11.2864 35.8881 11.6906C35.7847 12.0948 35.595 12.4719 35.3322 12.7962C35.0693 13.1204 34.7395 13.3841 34.3652 13.5692C33.9909 13.7543 33.5809 13.8564 33.1634 13.8687C32.5835 13.8687 31.8014 13.6053 31.4675 13.9828C31.1336 14.3602 31.362 15.08 31.3533 15.6505C31.3533 17.1778 31.3005 18.7051 31.2478 20.2412C31.2478 20.645 31.3445 20.7503 31.7575 20.724C34.8975 20.5309 38.0316 20.3583 41.1599 20.2061C41.5729 20.2061 41.6608 20.1096 41.5554 19.6794C40.7881 16.4735 40.5918 13.1576 40.9754 9.88361C41.1007 8.37489 41.3954 6.88503 41.8541 5.44213C42.0644 5.73608 42.1891 6.08241 42.2144 6.44278C42.2671 6.82022 42.4605 6.89044 42.7944 6.88166C44.0109 6.81299 45.2035 6.51517 46.3093 6.0039C47.2872 5.61242 48.3238 5.38694 49.3761 5.3368C49.8172 5.35347 50.257 5.27876 50.6678 5.11736C51.1336 4.89791 51.3357 5.11736 51.5466 5.49479C51.6327 5.70623 51.6717 5.93388 51.6608 6.16189C51.7223 8.13686 51.7311 10.1031 51.6608 12.078C51.6608 13.2806 51.0193 13.6492 49.9033 13.1401C48.9621 12.8019 47.9433 12.7409 46.9684 12.9646L44.9121 13.2016C44.5681 13.2664 44.214 13.2544 43.8752 13.1664C45.2109 12.8505 46.3445 12.3589 47.5132 11.9902C48.1025 11.815 48.7196 11.7525 49.3322 11.8059C49.6924 11.8059 49.7891 11.6918 49.7803 11.3407C49.7803 10.1996 49.7803 9.04974 49.7803 7.89987C49.7803 7.46098 49.5518 7.39954 49.2355 7.36443C48.2239 7.27343 47.2048 7.31474 46.2039 7.48732C44.9756 7.7542 43.6946 7.63145 42.5395 7.13621C42.5108 7.56776 42.5554 8.00105 42.6714 8.41775C42.9608 9.80234 43.0467 11.2217 42.9262 12.631C42.8207 13.3683 42.6626 14.1232 42.5923 14.8693C42.5032 16.2826 42.2676 17.6828 41.8893 19.0475C41.7575 19.4688 41.9947 19.4337 42.2584 19.4249L47.9965 19.2318C48.6936 19.151 49.3989 19.1777 50.0879 19.3108C50.6592 19.454 51.1661 19.7842 51.5277 20.2487C51.8892 20.7133 52.0846 21.2854 52.0826 21.8739C52.1793 30.0985 52.2584 38.3231 52.0826 46.5478C52.0826 46.9516 52.1881 47.092 52.5659 47.2061C53.3185 47.4195 53.968 47.8982 54.3943 48.5535C54.8205 49.2087 54.9945 49.9961 54.884 50.7697C54.7736 51.5432 54.3861 52.2506 53.7934 52.7607C53.2007 53.2707 52.4431 53.5488 51.6608 53.5436C47.1793 53.5436 42.6977 53.3241 38.225 53.1573L29.4376 52.8238L29.4552 52.7272ZM6.69596 30.7832C6.54657 36.2165 6.63445 41.6411 6.69596 47.0744C6.69596 47.5835 6.84534 47.7152 7.34622 47.7064C8.93966 47.7064 10.5302 47.7064 12.1178 47.7064C12.6186 47.7064 12.7153 47.5572 12.6889 47.0832C12.478 43.5722 12.3902 40.1313 12.3989 36.6554C12.3989 35.7776 12.812 35.2861 13.6995 35.2685C16.6169 35.2071 19.5167 35.3563 22.4341 35.3914C22.5795 35.3759 22.7265 35.3942 22.8637 35.4449C23.0008 35.4955 23.1244 35.5771 23.2248 35.6833C23.3252 35.7895 23.3996 35.9175 23.4423 36.0572C23.485 36.1968 23.4948 36.3445 23.471 36.4886C23.4359 38.5133 23.3333 40.5351 23.1634 42.554C23.0404 44.0637 22.891 45.5647 22.6626 47.0569C22.6098 47.3904 22.6626 47.5045 23.058 47.4958C24.8946 47.4958 26.7399 47.4519 28.5765 47.4958C29.1213 47.4958 29.2794 47.3729 29.2882 46.8111C29.3761 36.041 29.7452 25.2796 29.3937 14.5094C29.3937 13.974 29.2091 13.8599 28.7083 13.8687C21.5671 13.9857 14.4259 14.0237 7.28471 13.9828C6.82777 13.9828 6.70475 14.1057 6.71353 14.5533C6.7399 19.9428 6.79262 25.3586 6.69596 30.7744V30.7832ZM19.2443 11.5426H21.7663C25.4042 11.604 29.0422 11.683 32.6801 11.7269C33.7434 11.7269 34.174 11.2705 33.9982 10.2874C33.5501 7.82087 33.1195 5.36313 32.6186 2.90539C32.5854 2.58576 32.4315 2.29078 32.1883 2.08044C31.9451 1.8701 31.6308 1.7602 31.3093 1.77308C28.8049 1.65897 26.3005 1.48342 23.7873 1.57119C17.7241 1.79063 11.6608 2.06274 5.59754 2.17685C3.98067 2.17685 3.98067 2.22951 3.62918 3.80949C3.15466 5.95123 2.686 8.10468 2.2232 10.2698C2.00352 11.288 2.2935 11.6304 3.33919 11.6567C4.21793 11.6567 5.09666 11.5514 6.02812 11.5514C10.4306 11.5338 14.833 11.5426 19.2443 11.5426ZM50.0879 34.3293C50.0264 31.064 50.2021 27.0965 50.2021 23.1115C50.2021 21.9441 49.9209 21.6895 48.7522 21.6369C45.6766 21.5052 42.6011 21.435 39.5167 21.2506C36.8805 21.0926 34.3234 20.9961 31.7223 20.8557C31.3181 20.8557 31.1863 20.9698 31.1863 21.3472C31.1863 21.8651 31.116 22.383 31.1248 22.9008C31.2302 30.9529 31.3328 38.999 31.4323 47.0393C31.4323 47.5397 31.6344 47.5923 32.0387 47.5923C37.8969 47.6567 43.7551 47.7269 49.6134 47.803C50.0879 47.803 50.2197 47.6801 50.2021 47.2061C50.0879 43.1508 50.0879 39.0956 50.0879 34.3293ZM14.7188 42.1326C14.6397 43.8882 14.6046 45.3979 14.4991 46.8813C14.4991 47.408 14.6134 47.5221 15.1142 47.5133C17.3374 47.5133 19.5518 47.5133 21.775 47.5133C22.2408 47.5133 22.3726 47.3904 22.3023 46.934C21.8386 43.8909 21.5715 40.8212 21.5026 37.7438C21.5026 37.3839 21.3884 37.2962 21.0457 37.2962C19.1301 37.2962 17.2144 37.2962 15.2988 37.2962C14.9209 37.2962 14.8067 37.4015 14.8155 37.7789C14.8418 39.2887 14.8067 40.8335 14.7188 42.1326Z" fill="white"/>
</svg>
