<svg width="50" height="41" viewBox="0 0 50 41" fill="none" xmlns="http://www.w3.org/2000/svg">
<path d="M49.5817 20.3982C49.4136 19.0339 48.9511 17.7216 48.2259 16.551C47.934 16.0538 47.504 15.6507 46.9874 15.39C46.4707 15.1294 45.8894 15.0222 45.313 15.0813C44.6904 15.1457 44.099 15.3846 43.6079 15.7701C43.1168 16.1557 42.7463 16.672 42.5395 17.2589C42.2744 17.9365 42.1761 18.6673 42.2529 19.3902C41.1594 19.1139 40.0206 19.0615 38.9061 19.2364H38.7899C38.6085 19.2569 38.431 19.3036 38.2631 19.3749C38.0816 19.4518 37.8871 19.4936 37.6898 19.498L36.9848 19.4518C36.1714 19.4056 35.3424 19.3518 34.5212 19.2441C32.1971 18.9517 31.4689 18.2438 31.0583 15.9739C30.9963 15.6661 30.9498 15.3506 30.8956 15.0428L30.7329 14.1118C30.6801 13.5067 30.41 12.9407 29.972 12.5169C29.534 12.0932 28.9571 11.8399 28.3468 11.8034L27.8897 11.7496C27.9792 11.6329 28.0232 11.4881 28.0136 11.3418C28.0136 10.3261 28.5482 9.67974 29.718 9.28731L30.7484 8.97184C31.1202 8.87181 31.5231 8.76409 31.8485 8.64097C32.4394 8.47724 32.9864 8.18524 33.45 7.78605C33.9135 7.38686 34.282 6.89044 34.529 6.33261C34.7633 5.77894 34.8833 5.18417 34.8819 4.58357C34.8804 3.98297 34.7576 3.38878 34.5206 2.83622C34.2836 2.28366 33.9373 1.784 33.5023 1.36685C33.0672 0.94971 32.5522 0.623584 31.9879 0.407815C30.8044 -0.0516474 29.5005 -0.105885 28.2825 0.25369C27.0645 0.613265 26.002 1.3661 25.2634 2.39301C25.0697 2.65462 24.8838 2.93162 24.6979 3.16246C24.5119 3.3933 24.295 3.75494 24.0781 4.03964C23.9914 4.18842 23.8744 4.31765 23.7347 4.4191C23.5949 4.52056 23.4355 4.59201 23.2664 4.62892C23.0974 4.66583 22.9224 4.66739 22.7527 4.6335C22.583 4.59961 22.4223 4.53101 22.2808 4.43206C21.9391 4.25631 21.608 4.06106 21.2891 3.84727L20.9173 3.60105C20.495 3.3089 20.0493 3.05156 19.5848 2.8316C18.767 2.44366 17.8313 2.37969 16.9678 2.65271C16.1043 2.92572 15.3779 3.51521 14.9365 4.30125C14.5489 4.89549 14.4045 5.61428 14.5326 6.31075C14.6608 7.00722 15.0519 7.62881 15.626 8.04849C16.2793 8.55114 17.054 8.87481 17.8726 8.98723C18.4655 9.06886 19.0638 9.10487 19.6622 9.09495C20.2371 9.07964 20.8122 9.11052 21.3821 9.18729C21.8179 9.23179 22.2367 9.37937 22.6033 9.61767C22.97 9.85596 23.2738 10.178 23.4893 10.5569C23.7217 10.9801 23.7992 11.2571 23.714 11.4033C23.6288 11.5495 23.3731 11.6188 22.9393 11.6265C20.3052 11.7034 18.9417 12.8961 18.5079 15.4737C18.3994 16.1508 18.3065 16.7125 18.1903 17.2743C18.128 17.639 17.9611 17.9782 17.7097 18.2511C17.4582 18.5241 17.1328 18.7192 16.7725 18.8132C16.0552 19.0136 15.2987 19.0321 14.5724 18.867C13.1825 18.5793 11.7478 18.5793 10.3579 18.867C8.49363 19.3016 6.75608 20.1593 5.28156 21.3729C3.80705 22.5864 2.63567 24.1227 1.85931 25.8614C0.271149 29.0623 -0.278897 32.6633 0.131701 37.1954C0.302138 39.1729 1.45646 40.2732 3.55593 40.5195C4.32799 40.5995 5.10383 40.638 5.88007 40.6349C7.30936 40.6209 8.73687 40.531 10.1565 40.3656C10.7203 40.3436 11.2535 40.1051 11.6437 39.7004C12.0339 39.2956 12.2507 38.7561 12.2482 38.1957C12.2597 37.9932 12.2597 37.7903 12.2482 37.5878V37.4109V35.6642C12.2482 34.4023 12.2482 33.0942 12.3257 31.8169C12.2948 31.5447 12.3276 31.269 12.4217 31.0114C12.5158 30.7539 12.6686 30.5214 12.8681 30.3322C13.0676 30.143 13.3085 30.0021 13.5719 29.9206C13.8352 29.8392 14.114 29.8193 14.3864 29.8625C15.6557 29.8833 16.8914 30.271 17.9424 30.9782L19.5925 32.0555L20.9173 32.8865C21.764 33.4262 22.7098 33.7944 23.7003 33.97C24.6907 34.1456 25.7064 34.1252 26.6889 33.9098C27.5331 33.739 28.3345 33.4027 29.0462 32.9204C29.7579 32.4382 30.3655 31.8197 30.8336 31.1013C31.3156 30.4001 32.0507 29.9097 32.8866 29.7317C34.0855 29.4466 35.3229 29.3557 36.551 29.4624C37.7473 29.5452 38.947 29.5684 40.1456 29.5317C41.1 29.5226 42.0381 29.285 42.8804 28.8391C42.8804 28.9161 42.9579 28.993 43.0043 29.07C43.7885 30.4459 45.0287 31.5092 46.5138 32.0785C46.8048 32.2156 47.1247 32.2814 47.4466 32.2703C47.7685 32.2592 48.0831 32.1716 48.3639 32.0148C48.6446 31.858 48.8835 31.6367 49.0603 31.3693C49.2372 31.1019 49.3469 30.7963 49.3802 30.4781C50.1367 27.1667 50.2053 23.7368 49.5817 20.3982ZM38.0927 20.0058C38.2068 20.0818 38.3364 20.1317 38.4723 20.152C39.247 20.2213 39.9597 20.3136 40.7964 20.4367C41.3587 20.4835 41.8863 20.7262 42.286 21.1218C42.6858 21.5174 42.9319 22.0405 42.9811 22.5989C43.1428 23.8866 43.0507 25.1933 42.7099 26.4461C42.493 27.2848 41.8345 27.5619 40.8119 27.7004C39.9981 27.7846 39.1776 27.7846 38.3638 27.7004C38.0539 27.7004 37.7518 27.6619 37.4806 27.6619C35.7857 27.4508 34.067 27.5289 32.3985 27.8927C31.1394 28.1547 30.0299 28.8875 29.2997 29.9395C28.9574 30.4677 28.5126 30.9228 27.9911 31.2782C27.4697 31.6336 26.8821 31.8821 26.2628 32.0093C25.5567 32.1654 24.8266 32.1819 24.1141 32.0578C23.4016 31.9337 22.7207 31.6715 22.1103 31.286L20.7856 30.4242C20.2355 30.0549 19.6855 29.6932 19.1277 29.3393C17.5719 28.2694 15.6917 27.7665 13.8054 27.9158C12.9482 27.9743 12.1399 28.3339 11.5253 28.9303C10.9107 29.5267 10.5298 30.3208 10.4509 31.1706C10.3287 32.5263 10.2873 33.8881 10.3269 35.2487C10.3269 35.9104 10.3269 36.6029 10.3269 37.2801C10.3269 38.4265 10.3269 38.4265 9.51348 38.4804H9.21134H9.10288C7.2801 38.7024 5.43852 38.7282 3.61016 38.5574C2.46359 38.4112 2.06074 38.0033 1.99101 36.8261C1.64239 32.6864 2.09947 29.4547 3.43198 26.6385C4.10029 25.0555 5.14267 23.6556 6.47094 22.5573C7.79922 21.4591 9.37429 20.6947 11.0629 20.329C11.502 20.2469 11.9489 20.2133 12.3954 20.229C13.059 20.2414 13.7212 20.2928 14.3787 20.3828L15.0682 20.4675C15.6601 20.5309 16.2586 20.4866 16.8345 20.3367C17.5795 20.1876 18.2563 19.8039 18.7643 19.2425C19.2723 18.6811 19.5844 17.972 19.6545 17.2204C19.6545 17.0203 19.7087 16.8126 19.7397 16.6048C19.8094 16.1047 19.8791 15.5891 19.9876 15.0659C20.0509 14.4919 20.321 13.96 20.7482 13.5683C21.1753 13.1766 21.7306 12.9515 22.3117 12.9345C24.2373 12.788 26.1705 12.7674 28.0989 12.873C29.044 12.873 29.4469 13.2577 29.6483 14.2734C29.7257 14.5965 29.7877 14.9274 29.8575 15.2583C29.9272 15.5891 29.9814 15.8661 30.0511 16.1662C30.6632 18.8439 31.6858 19.7211 34.405 19.9212C35.4941 20.0349 36.5935 20.0038 37.6743 19.8288C37.7535 19.8195 37.8338 19.8309 37.9072 19.862C37.9806 19.893 38.0445 19.9426 38.0927 20.0058ZM26.1776 11.6957C25.767 11.6957 25.3486 11.6957 24.9303 11.6957C24.326 11.6957 24.326 11.6957 24.3337 11.0724C24.3366 10.6377 24.2158 10.2109 23.9851 9.84132C23.5533 9.10198 22.8559 8.55222 22.0328 8.30241C21.3821 8.11001 20.7116 7.99128 20.0341 7.94846H19.608C18.7777 7.94284 17.9576 7.76735 17.1986 7.43293C16.5789 7.10207 16.0056 6.70195 16.0598 5.89402C16.0995 5.5397 16.2434 5.20482 16.4735 4.93116C16.7036 4.6575 17.0096 4.45716 17.3536 4.35511C17.5866 4.2574 17.8392 4.2142 18.0917 4.22888C18.3443 4.24356 18.59 4.31571 18.81 4.43975C19.2683 4.67405 19.704 4.94965 20.1116 5.26307L20.1968 5.32463C20.6924 5.70125 21.2275 6.02372 21.7927 6.28644C22.3742 6.56863 23.0317 6.6574 23.6679 6.53961C24.3042 6.42182 24.8853 6.10373 25.3254 5.63241C25.7087 5.1967 26.0485 4.72513 26.3403 4.22431L26.5339 3.93961C27.0836 3.10106 27.9027 2.47189 28.8581 2.15448C29.4661 1.94961 30.1215 1.92796 30.7418 2.09226C31.3622 2.25657 31.9197 2.59947 32.3443 3.07782C32.5853 3.35174 32.7607 3.67634 32.8574 4.02723C32.954 4.37813 32.9693 4.74621 32.9022 5.10384C32.8352 5.46146 32.6874 5.79935 32.47 6.09213C32.2526 6.38491 31.9712 6.62497 31.647 6.79428C31.2009 7.00619 30.74 7.18619 30.268 7.3329C29.9659 7.43293 29.6638 7.53296 29.3616 7.64838C28.8626 7.80369 28.3998 8.05662 28.0007 8.39227C27.6015 8.72792 27.274 9.13951 27.0375 9.60279C26.8937 9.9087 26.8258 10.2443 26.8392 10.5816C26.8527 10.919 26.9473 11.2482 27.115 11.5418C27.1428 11.5984 27.1794 11.6504 27.2234 11.6957H26.1776ZM44.4995 25.9383V25.8075C44.6661 24.685 44.6661 23.5444 44.4995 22.4219C44.3627 21.6285 44.0028 20.8896 43.4614 20.2905C43.4022 20.246 43.3616 20.1814 43.3473 20.109C43.333 20.0366 43.346 19.9615 43.3839 19.8981C43.461 19.7089 43.5206 19.5132 43.5621 19.3133C43.5621 19.1825 43.6241 19.0594 43.6628 18.9286L43.7093 18.7978C43.7857 18.5325 43.8869 18.2749 44.0115 18.0283C44.1266 17.7298 44.3275 17.4715 44.5892 17.2855C44.8509 17.0995 45.1618 16.9939 45.4834 16.9819C46.1032 16.9819 46.4441 17.4051 46.7539 18.0283C47.3016 19.2888 47.6517 20.6252 47.7921 21.991L47.8308 22.2141C48.2399 24.8339 48.2581 27.4991 47.885 30.1241C47.8827 30.3747 47.7827 30.6146 47.6061 30.7936C47.3651 30.912 47.0867 30.9313 46.8314 30.8474C46.5349 30.7865 46.2482 30.6855 45.9792 30.5473C44.9857 30.0011 44.0645 29.3343 43.2368 28.5621C43.6117 28.2296 43.9163 27.8264 44.1331 27.376C44.3499 26.9256 44.4744 26.4369 44.4995 25.9383Z" fill="white"/>
</svg>
